<!-- Generated by IcoMoon.io -->
<svg version="1.1" xmlns="http://www.w3.org/2000/svg" width="32" height="32" viewBox="0 0 32 32">
<title>calendar</title>
<path d="M11.494 9.362h-1.655v-4.027h1.655v4.027zM22.16 5.333h-1.654v4.027h1.654v-4.027zM26.666 10.079v14.215c0 1.306-1.066 2.372-2.372 2.372h-16.588c-1.306 0-2.372-1.066-2.372-2.372v-14.215c0-1.306 1.066-2.372 2.372-2.372h1.066v2.372h3.787v-2.372h6.879v2.372h3.787v-2.372h1.066c1.306 0 2.372 1.066 2.372 2.372h0.002zM24.294 14.804h-16.588v9.491h16.588v-9.491zM12.799 16.588h-3.549v2.372h3.549v-2.372zM17.785 16.588h-3.57v2.372h3.57v-2.372zM22.748 16.588h-3.549v2.372h3.549v-2.372zM12.799 20.137h-3.549v2.372h3.549v-2.372zM17.785 20.137h-3.57v2.372h3.57v-2.372z"></path>
</svg>
