<!-- Generated by IcoMoon.io -->
<svg version="1.1" xmlns="http://www.w3.org/2000/svg" width="32" height="32" viewBox="0 0 32 32">
<title>car-front</title>
<path d="M26.167 18.467l-0.92 0.92h-2.761v-1.8l3.68-1v1.88h0.001zM19.685 23.028h-7.361v-1.8h7.361v1.8zM9.525 19.388h-2.761l-0.92-0.92v-1.88l3.68 1v1.8h0.001zM9.205 8.866c0.12-0.2 0.28-0.4 0.56-0.4h12.48c0.28 0 0.44 0.2 0.56 0.4 0.16 0.32 1.121 4.161 1.121 4.161h-15.801c0 0 0.92-3.839 1.080-4.161zM27.527 13.027h-1.721l-1.521-4.961c-0.52-1.040-0.92-1.4-2.16-1.4h-12.242c-1.2 0-1.64 0.36-2.16 1.4l-1.521 4.961h-1.721c-0.28 0-0.48 0.2-0.48 0.44v0.92c0 0.24 0.2 0.44 0.48 0.44h0.84l-0.4 0.92v10.481c0 0.24 0.2 0.44 0.48 0.44h1.84c0.24 0 0.44-0.2 0.44-0.44v-1.4h16.642v1.4c0 0.24 0.2 0.44 0.44 0.44h1.84c0.28 0 0.48-0.2 0.48-0.44v-10.481l-0.4-0.879h0.84c0.28 0 0.48-0.24 0.48-0.48v-0.92c0-0.24-0.2-0.44-0.48-0.44h0.008z"></path>
</svg>
