<!-- Generated by IcoMoon.io -->
<svg version="1.1" xmlns="http://www.w3.org/2000/svg" width="32" height="32" viewBox="0 0 32 32">
<title>car-side-front</title>
<path d="M29.11 18.387l1.557-0.329v-0.987l-1.377 0.298 0.599-3.622-0.839-1.108-1.077-0.329-1.406-2.455c-0.389-0.839-1.197-1.138-2.155-1.138l-5.478-0.718-6.287 0.779c-1.227 0.21-1.975 0.508-2.095 0.928l-2.185 2.815-2.036-0.241c-0.21 0-0.389 0.15-0.359 0.359l0.031 0.718c0 0.15 0.119 0.269 0.269 0.329l-4.011 2.155-0.298 0.749-0.629 2.274 0.658 2.634 8.711 2.605 5.118-1.406c-0.090-0.508-0.15-1.077-0.090-1.676 0.119-1.765 1.138-2.994 2.246-2.964 1.736 0.060 1.916 1.676 1.795 3.442l-0.031 0.15 5.538-1.497c-0.119-0.449 0.031-0.959 0.119-1.466 0.241-1.227 0.539-1.616 1.466-1.676 1.108-0.060 1.227 0.839 1.138 2.605l0.987-0.508 0.119-0.718 0.002-0.002zM25.518 9.827l1.826 2.815-3.144 0.718-0.478-3.263 1.796-0.27zM23.063 10.274l0.359 3.263-5.299 0.867 1.765-3.652 3.174-0.478zM11.3 18.566l0.42 1.377-1.257 0.658-2.934-0.688 0.241-1.348h3.53zM11.538 9.647l7.544 0.839-2.155 3.892-8.083-1.227 2.693-3.504zM7.107 22.459l-2.964-0.959 0.031-1.197 2.934 0.959v1.197h-0.001zM2.168 17.818l0.359-1.437 2.185 1.138-0.060 1.406-2.005-0.599-0.478-0.508h-0.001zM28.6 14.315h0.749l-0.42 2.036h-0.449l0.119-2.036h0.001zM24.26 14.376l-0.060 5.029-0.599 0.21 0.119-5.238h0.539l0.002-0.001zM19.291 21.65c0.119-1.585-0.449-2.903-1.287-2.964s-1.676 1.197-1.795 2.844c-0.15 1.616 0.478 2.934 1.318 2.934 0.867 0 1.616-1.257 1.765-2.815l-0.001 0.001zM27.793 19.854c0.090-1.197-0.269-2.215-0.867-2.274-0.569-0.060-1.138 0.928-1.227 2.155-0.090 1.257 0.329 2.274 0.928 2.274 0.569 0 1.077-0.987 1.168-2.155h-0.002z"></path>
</svg>
