<!-- Generated by IcoMoon.io -->
<svg version="1.1" xmlns="http://www.w3.org/2000/svg" width="32" height="32" viewBox="0 0 32 32">
<title>meter</title>
<path d="M13.748 20.077c-0.809 1.444-0.268 2.62 0.882 3.282s2.448 0.563 3.282-0.882c0.833-1.42 6.048-14.203 5.608-14.472-0.466-0.268-8.938 10.652-9.771 12.073l-0.001-0.001zM16 10.992c0.514 0 1.029 0.024 1.542 0.123 0.514-0.661 1.102-1.371 1.69-2.081-1.029-0.294-2.105-0.442-3.233-0.442-6.734 0-11.999 5.656-11.999 12.881 0 0.466 0.024 0.906 0.049 1.322 0.073 0.661 0.661 1.15 1.322 1.102 0.661-0.073 1.126-0.637 1.078-1.298-0.024-0.367-0.049-0.735-0.049-1.126 0-5.878 4.212-10.481 9.599-10.481h0.001zM24.668 12.486c-0.343 0.882-0.686 1.812-1.004 2.596 1.224 1.764 1.935 3.967 1.935 6.391 0 0.392-0.024 0.759-0.049 1.15-0.073 0.637 0.416 1.224 1.078 1.298 0.049 0 0.073 0 0.123 0 0.612 0 1.126-0.466 1.176-1.102 0.049-0.442 0.073-0.882 0.073-1.347 0-3.526-1.273-6.685-3.332-8.988v0.002z"></path>
</svg>
