<!-- Generated by IcoMoon.io -->
<svg version="1.1" xmlns="http://www.w3.org/2000/svg" width="32" height="32" viewBox="0 0 32 32">
<title>quote-right</title>
<path d="M9.245 18.491c-2.893 0-5.245-2.352-5.245-5.245s2.352-5.245 5.245-5.245c2.893 0 5.245 2.352 5.245 5.245l0.025 0.735c0 5.81-4.707 10.492-10.492 10.492v-2.99c2.010 0 3.873-0.784 5.295-2.205 0.271-0.271 0.514-0.564 0.76-0.858-0.271 0.049-0.564 0.073-0.834 0.073v0l0.001-0.001zM22.73 18.491c-2.893 0-5.245-2.352-5.245-5.245s2.352-5.245 5.245-5.245c2.893 0 5.245 2.352 5.245 5.245l0.025 0.735c0 5.81-4.681 10.492-10.492 10.492v-2.99c2.010 0 3.898-0.784 5.295-2.205 0.271-0.271 0.539-0.564 0.76-0.858-0.271 0.049-0.539 0.073-0.834 0.073v0l0.001-0.001z"></path>
</svg>
