<!-- Generated by IcoMoon.io -->
<svg version="1.1" xmlns="http://www.w3.org/2000/svg" width="32" height="32" viewBox="0 0 32 32">
<title>search-car</title>
<path d="M27.483 25.673l-1.812 1.812c-0.662 0.687-1.764 0.687-2.424 0l-4.946-4.922c-1.346 0.687-2.866 1.077-4.482 1.077-5.412 0-9.82-4.407-9.82-9.82 0-5.435 4.407-9.82 9.82-9.82 5.435 0 9.844 4.383 9.844 9.82 0 1.616-0.417 3.134-1.102 4.505l4.922 4.922c0.687 0.662 0.687 1.764 0 2.424l-0.002 0.002zM19.525 12.008h-0.832l-0.734-2.424c-0.269-0.49-0.442-0.662-1.029-0.662h-5.901c-0.563 0-0.76 0.172-1.029 0.662l-0.71 2.424h-0.857c-0.122 0-0.22 0.097-0.22 0.22v0.465c0 0.122 0.097 0.22 0.22 0.22h0.417l-0.197 0.442v5.093c0 0.122 0.097 0.221 0.22 0.221h0.906c0.097 0 0.22-0.097 0.22-0.221v-0.662h7.983v0.662c0 0.122 0.097 0.221 0.221 0.221h0.881c0.122 0 0.221-0.097 0.221-0.221v-5.093l-0.197-0.442h0.417c0.122 0 0.221-0.097 0.221-0.22v-0.465c0-0.122-0.097-0.22-0.221-0.22h0.001zM10.71 9.976c0.050-0.097 0.122-0.172 0.269-0.172h5.999c0.148 0 0.221 0.073 0.269 0.172 0.073 0.172 0.539 2.032 0.539 2.032h-7.591c0 0 0.442-1.861 0.515-2.032v0zM10.881 15.119h-1.346l-0.442-0.442v-0.931l1.787 0.49v0.881l0.001 0.003zM15.753 16.881h-3.551v-0.881h3.551v0.881zM18.863 14.679l-0.442 0.442h-1.346v-0.881l1.787-0.49v0.931l0.001-0.003z"></path>
</svg>
