<!-- Generated by IcoMoon.io -->
<svg version="1.1" xmlns="http://www.w3.org/2000/svg" width="32" height="32" viewBox="0 0 32 32">
<title>transmission</title>
<path d="M16 26.667c5.899 0 10.667-4.767 10.667-10.667s-4.767-10.667-10.667-10.667c-5.899 0-10.667 4.767-10.667 10.667s4.767 10.667 10.667 10.667v0zM9.333 10.817c0-0.822 0.627-1.484 1.405-1.484s1.405 0.662 1.405 1.484v3.699h1.405v-3.699c0-0.822 0.627-1.484 1.405-1.484 0.756 0 1.405 0.662 1.405 1.484v3.699h3.501v-3.699c0-0.822 0.627-1.484 1.405-1.484s1.405 0.662 1.405 1.484v5.183c0 0.822-0.627 1.484-1.405 1.484h-0.713v3.699c0 0.822-0.627 1.484-1.405 1.484s-1.405-0.662-1.405-1.484v-3.699h-1.383v3.699c0 0.822-0.648 1.484-1.405 1.484-0.778 0-1.405-0.662-1.405-1.484v-3.699h-1.405v3.699c0 0.822-0.627 1.484-1.405 1.484s-1.405-0.662-1.405-1.484v-10.365z"></path>
</svg>
