<!-- Generated by IcoMoon.io -->
<svg version="1.1" xmlns="http://www.w3.org/2000/svg" width="32" height="32" viewBox="0 0 32 32">
<title>hot</title>
<path d="M15.704 24.624c3.007 0 5.38-2.374 5.38-5.38 0-1.582-0.211-3.059-0.633-4.536-1.16 1.53-3.218 2.48-5.222 2.901s-3.165 1.636-3.165 3.481c0 1.952 1.636 3.534 3.64 3.534v-0.001zM17.708 4c4.378 3.534 7.332 8.967 7.332 15.033 0 4.958-4.062 8.967-9.020 8.967s-9.020-4.009-9.020-8.967c0-3.798 1.371-7.332 3.64-10.022v0.422c0 2.321 1.741 4.167 4.062 4.167s3.851-1.847 3.851-4.167c0-2.426-0.844-5.433-0.844-5.433h-0.001z"></path>
</svg>
