<!-- Generated by IcoMoon.io -->
<svg version="1.1" xmlns="http://www.w3.org/2000/svg" width="32" height="32" viewBox="0 0 32 32">
<title>users</title>
<path d="M12 6.667c-2.963 0-5.333 2.37-5.333 5.333s2.37 5.333 5.333 5.333c2.963 0 5.333-2.37 5.333-5.333s-2.37-5.333-5.333-5.333v0zM12 9.334c1.481 0 2.667 1.185 2.667 2.667s-1.185 2.667-2.667 2.667c-1.482 0-2.667-1.185-2.667-2.667s1.185-2.667 2.667-2.667zM21.925 9.334c-1.778 0-3.259 1.481-3.259 3.259s1.481 3.259 3.259 3.259c1.778 0 3.259-1.481 3.259-3.259s-1.333-3.259-3.259-3.259zM22.666 17.334c-1.926 0-3.407 0.741-4.444 1.481 3.111 1.778 4.296 4.444 4.444 4.593l0.148 0.296v0.296h6.519v-2.222c0 0-1.63-4.444-6.667-4.444zM12 18.667c-7.111 0-9.333 5.333-9.333 5.333v2.667h18.667v-2.667c0 0-2.222-5.333-9.333-5.333h-0.001zM12 21.333c4.593 0 6.074 2.667 6.074 2.667h-12.148c0 0 1.481-2.667 6.074-2.667z"></path>
</svg>
