<!-- Generated by IcoMoon.io -->
<svg version="1.1" xmlns="http://www.w3.org/2000/svg" width="32" height="32" viewBox="0 0 32 32">
<title>validated-buyer</title>
<path d="M13.602 4c-2.653 0-4.8 2.147-4.8 4.8s2.147 4.8 4.8 4.8c2.653 0 4.8-2.147 4.8-4.8s-2.147-4.8-4.8-4.8zM13.602 16.002c-7.323 0-9.602 4.8-9.602 4.8v2.4h10.314c-0.365-2.372 0.352-4.889 2.175-6.714 0.061-0.061 0.127-0.094 0.187-0.15-0.914-0.202-1.922-0.337-3.075-0.337v0.001zM22.004 16.002c-1.538 0-3.066 0.59-4.238 1.763-2.344 2.344-2.344 6.132 0 8.476s6.132 2.344 8.476 0c2.344-2.344 2.344-6.132 0-8.476-1.172-1.172-2.705-1.763-4.238-1.763zM24.141 19.34l1.725 1.725-4.463 4.426-3.263-3.225 1.725-1.725 1.538 1.575 2.738-2.776z"></path>
</svg>
