<!-- Generated by IcoMoon.io -->
<svg version="1.1" xmlns="http://www.w3.org/2000/svg" width="32" height="32" viewBox="0 0 32 32">
<title>android</title>
<path d="M18.985 9.016v-1.031h-0.984v1.031h0.984zM13.968 9.016v-1.031h-0.984v1.031h0.984zM19.5 6.157c1.5 1.077 2.485 2.86 2.485 4.829h-12.001c0-1.968 0.938-3.75 2.438-4.829l-1.312-1.312c-0.187-0.187-0.187-0.516 0-0.704s0.516-0.187 0.704 0l1.5 1.5c0.797-0.422 1.734-0.657 2.672-0.657s1.828 0.235 2.626 0.657l1.5-1.5c0.187-0.187 0.516-0.187 0.704 0s0.187 0.516 0 0.704l-1.315 1.312zM24.47 12.016c0.844 0 1.5 0.657 1.5 1.5v6.986c0 0.844-0.657 1.5-1.5 1.5s-1.5-0.657-1.5-1.5v-6.986c0-0.844 0.657-1.5 1.5-1.5zM7.5 12.016c0.844 0 1.5 0.657 1.5 1.5v6.986c0 0.844-0.657 1.5-1.5 1.5s-1.5-0.657-1.5-1.5v-6.986c0-0.844 0.657-1.5 1.5-1.5zM9.984 22.001v-9.985h12.001v9.985c0 0.563-0.422 0.984-0.984 0.984h-1.031v3.516c0 0.844-0.657 1.5-1.5 1.5s-1.5-0.657-1.5-1.5v-3.516h-1.968v3.516c0 0.844-0.657 1.5-1.5 1.5s-1.5-0.657-1.5-1.5v-3.516h-1.031c-0.563 0-0.984-0.422-0.984-0.984h-0.005z"></path>
</svg>
