<!-- Generated by IcoMoon.io -->
<svg version="1.1" xmlns="http://www.w3.org/2000/svg" width="32" height="32" viewBox="0 0 32 32">
<title>apple</title>
<path d="M25.956 21.525c-0.361 1.139-0.938 2.351-1.774 3.605-1.24 1.889-2.481 2.827-3.706 2.827-0.49 0-1.154-0.158-2.019-0.462-0.851-0.318-1.586-0.462-2.177-0.462-0.577 0-1.27 0.158-2.048 0.476-0.794 0.331-1.428 0.49-1.904 0.49-1.485 0-2.913-1.255-4.341-3.736-1.399-2.481-2.12-4.889-2.12-7.255 0-2.207 0.548-3.995 1.629-5.394 1.081-1.385 2.437-2.077 4.097-2.077 0.707 0 1.544 0.144 2.553 0.433 0.995 0.289 1.659 0.433 1.99 0.433 0.418 0 1.111-0.158 2.062-0.49 0.952-0.318 1.788-0.49 2.495-0.49 1.154 0 2.177 0.318 3.073 0.938 0.505 0.346 1.010 0.837 1.5 1.442-0.75 0.635-1.298 1.198-1.644 1.701-0.62 0.894-0.938 1.889-0.938 2.985 0 1.183 0.331 2.264 0.995 3.217s1.428 1.557 2.279 1.818h-0.002zM20.533 4.607c0 0.591-0.144 1.255-0.418 1.961-0.289 0.722-0.735 1.385-1.342 1.99-0.519 0.519-1.038 0.866-1.557 1.038-0.331 0.101-0.822 0.187-1.5 0.246 0.029-1.428 0.404-2.669 1.125-3.706s1.933-1.746 3.605-2.135c0.029 0.13 0.058 0.23 0.072 0.318 0 0.101 0.014 0.187 0.014 0.289v0z"></path>
</svg>
