<!-- Generated by IcoMoon.io -->
<svg version="1.1" xmlns="http://www.w3.org/2000/svg" width="32" height="32" viewBox="0 0 32 32">
<title>social-twitter</title>
<path d="M27.953 8.99c-0.884 0.389-1.83 0.654-2.825 0.775 1.014-0.611 1.794-1.574 2.162-2.723-0.951 0.555-2.005 0.959-3.127 1.184-0.896-0.959-2.173-1.559-3.591-1.559-2.717 0-4.92 2.203-4.92 4.917 0 0.39 0.045 0.765 0.127 1.124-4.090-0.193-7.715-2.157-10.141-5.126-0.427 0.722-0.666 1.561-0.666 2.475 0 1.71 0.87 3.213 2.188 4.095-0.807-0.026-1.566-0.248-2.228-0.616v0.061c0 2.385 1.693 4.374 3.946 4.827-0.413 0.111-0.849 0.171-1.296 0.171-0.314 0-0.615-0.030-0.916-0.086 0.631 1.953 2.445 3.377 4.604 3.417-1.679 1.319-3.809 2.105-6.102 2.105-0.39 0-0.779-0.023-1.17-0.067 2.189 1.394 4.768 2.209 7.556 2.209 9.053 0 13.999-7.496 13.999-13.985 0-0.209 0-0.42-0.015-0.63 0.961-0.689 1.8-1.56 2.46-2.548l-0.047-0.020v0.002z"></path>
</svg>
