<!-- Generated by IcoMoon.io -->
<svg version="1.1" xmlns="http://www.w3.org/2000/svg" width="32" height="32" viewBox="0 0 32 32">
<title>social-twitter-x</title>
<path d="M16 5.333l0.332 0.005c5.737 0.176 10.334 4.881 10.334 10.662v0l-0.005 0.332c-0.176 5.737-4.881 10.334-10.662 10.334v0l-0.332-0.005c-5.737-0.176-10.334-4.881-10.334-10.662v0l0.005-0.332c0.176-5.737 4.881-10.334 10.662-10.334v0zM13.416 9.954h-3.844l4.988 6.669-5.019 5.422h1.13l4.394-4.747 3.551 4.747h3.844l-5.269-7.044 4.671-5.047h-1.13l-4.047 4.372-3.27-4.372zM12.999 10.787l7.799 10.425h-1.766l-7.799-10.425h1.766z"></path>
</svg>
