<!-- Generated by IcoMoon.io -->
<svg version="1.1" xmlns="http://www.w3.org/2000/svg" width="32" height="32" viewBox="0 0 32 32">
<title>social-rss</title>
<path d="M22.4 26.666c0-9.362-7.703-17.066-17.065-17.066v-4.266c11.702 0 21.333 9.631 21.333 21.333l-4.268-0.001zM8.259 20.813c1.613 0 2.927 1.314 2.927 2.929 0 1.611-1.32 2.925-2.934 2.925-1.611 0-2.918-1.31-2.918-2.925s1.311-2.928 2.926-2.929v0zM19.475 26.666h-4.146c0-5.483-4.511-9.995-9.994-9.995v-4.146c7.758 0 14.141 6.386 14.141 14.142l-0.001-0.001z"></path>
</svg>
