<!-- Generated by IcoMoon.io -->
<svg version="1.1" xmlns="http://www.w3.org/2000/svg" width="32" height="32" viewBox="0 0 32 32">
<title>social-facebook</title>
<path fill="currentColor" d="M16 1c-8.284 0-15 6.715-15 15s6.715 15 15 15c8.285 0 15-6.715 15-15s-6.715-15-15-15z"></path>
<path fill="#fff" d="M18.030 19.976h3.882l0.61-3.944h-4.492v-2.155c0-1.638 0.535-3.091 2.068-3.091h2.462v-3.441c-0.433-0.059-1.348-0.186-3.076-0.186-3.611 0-5.727 1.907-5.727 6.25v2.623h-3.712v3.944h3.711v10.839c0.735 0.11 1.48 0.184 2.244 0.184 0.691 0 1.365-0.063 2.030-0.153v-10.871z"></path>
</svg>
