<!-- Generated by IcoMoon.io -->
<svg version="1.1" xmlns="http://www.w3.org/2000/svg" width="32" height="32" viewBox="0 0 32 32">
<title>social-whatsapp</title>
<path d="M23.479 8.434c-1.998-2.002-4.652-3.101-7.481-3.101-5.831 0-10.574 4.743-10.574 10.57-0.004 1.865 0.484 3.685 1.41 5.285l-1.501 5.479 5.608-1.472c1.543 0.844 3.283 1.286 5.053 1.29h0.004c5.827 0 10.57-4.743 10.574-10.574 0-2.824-1.096-5.479-3.093-7.477zM21.171 19.682c-0.219 0.616-1.298 1.212-1.782 1.253-0.488 0.045-0.943 0.219-3.172-0.657-2.688-1.058-4.383-3.813-4.516-3.99-0.133-0.174-1.075-1.431-1.075-2.73 0-1.303 0.682-1.94 0.922-2.204 0.244-0.264 0.53-0.331 0.707-0.331 0.174 0 0.352 0 0.504 0.008 0.191 0.004 0.397 0.017 0.595 0.455 0.236 0.521 0.749 1.828 0.815 1.96s0.112 0.29 0.021 0.463c-0.087 0.178-0.133 0.285-0.26 0.442-0.133 0.153-0.277 0.343-0.397 0.459-0.133 0.133-0.269 0.277-0.116 0.541s0.682 1.129 1.468 1.828c1.009 0.901 1.861 1.178 2.125 1.311s0.418 0.112 0.571-0.066c0.157-0.174 0.661-0.769 0.839-1.034 0.174-0.264 0.352-0.219 0.591-0.133 0.244 0.087 1.543 0.728 1.807 0.86s0.438 0.198 0.504 0.306c0.066 0.112 0.066 0.641-0.153 1.257l0.002 0.002z"></path>
</svg>
