<!-- Generated by IcoMoon.io -->
<svg version="1.1" xmlns="http://www.w3.org/2000/svg" width="32" height="32" viewBox="0 0 32 32">
<title>social-facebook</title>
<path d="M16 2.667c7.364 0 13.333 5.969 13.333 13.333s-5.969 13.333-13.333 13.333c-7.364 0-13.333-5.969-13.333-13.333s5.97-13.333 13.333-13.333zM19.097 8.141c-3.21 0-5.091 1.695-5.091 5.556v2.332h-3.3v3.506h3.299v9.635c0.653 0.098 1.316 0.164 1.995 0.164 0.614 0 1.213-0.056 1.804-0.136v-9.663l3.451 0.001 0.542-3.506h-3.993v-1.916c0-1.456 0.476-2.748 1.838-2.748h2.188v-3.059c-0.385-0.052-1.198-0.165-2.734-0.165z"></path>
</svg>
