<!-- Generated by IcoMoon.io -->
<svg version="1.1" xmlns="http://www.w3.org/2000/svg" width="32" height="32" viewBox="0 0 32 32">
<title>social-line-alt</title>
<path d="M27.999 13.739c0-5.369-5.383-9.739-12-9.739s-12 4.364-12 9.739c0 4.815 4.27 8.846 10.038 9.607 0.391 0.085 0.92 0.257 1.058 0.591 0.052 0.189 0.082 0.405 0.082 0.629 0 0.162-0.015 0.319-0.045 0.472s-0.138 0.831-0.167 1.013c-0.053 0.304-0.23 1.187 1.040 0.646s6.902-4.070 9.433-6.968v0c1.73-1.907 2.562-3.842 2.562-5.991l-0.001 0.002zM11.764 16.606c0 0.127-0.103 0.23-0.23 0.23h-3.366c0 0-0.001 0-0.001 0-0.062 0-0.118-0.025-0.16-0.065v0c-0.040-0.041-0.065-0.097-0.065-0.16 0-0.001 0-0.001 0-0.002v0-5.231c0-0.127 0.103-0.23 0.23-0.23h0.842c0.127 0 0.23 0.103 0.23 0.23v4.152h2.287c0.127 0 0.23 0.103 0.23 0.23l0.003 0.845zM13.793 16.606c0 0.127-0.103 0.23-0.23 0.23h-0.844c-0.127 0-0.23-0.103-0.23-0.23v-5.229c0-0.127 0.103-0.23 0.23-0.23h0.842c0.127 0 0.23 0.103 0.23 0.23l0.003 5.229zM19.586 16.606c0 0.127-0.103 0.23-0.23 0.23h-0.842c-0.009 0.001-0.019 0.002-0.030 0.002s-0.021-0.001-0.031-0.002h-0.029c-0.024-0.015-0.044-0.035-0.059-0.057l-2.4-3.24v3.106c0 0.127-0.103 0.23-0.23 0.23h-0.842c-0.127 0-0.23-0.103-0.23-0.23v-5.268c0-0.127 0.103-0.23 0.23-0.23h0.969l0.014 0.014 0.018 0.023 2.397 3.237v-3.106c0-0.127 0.103-0.23 0.23-0.23h0.842c0.127 0 0.23 0.103 0.23 0.23l-0.007 5.292zM24.245 12.221c0 0.127-0.103 0.23-0.23 0.23h-2.301v0.884h2.287c0.127 0 0.23 0.103 0.23 0.23v0.842c0 0.127-0.103 0.23-0.23 0.23h-2.287v0.884h2.287c0.127 0 0.23 0.103 0.23 0.23v0.842c0 0.127-0.103 0.23-0.23 0.23h-3.361c0 0-0.001 0-0.001 0-0.062 0-0.118-0.025-0.16-0.065v0c-0.040-0.041-0.065-0.097-0.065-0.16 0-0.001 0-0.001 0-0.002v0-5.218c0 0 0-0.001 0-0.001 0-0.062 0.025-0.118 0.065-0.16v0c0.041-0.041 0.098-0.066 0.161-0.066h3.363c0.127 0 0.23 0.103 0.23 0.23l0.012 0.841z"></path>
</svg>
