<!-- Generated by IcoMoon.io -->
<svg version="1.1" xmlns="http://www.w3.org/2000/svg" width="32" height="32" viewBox="0 0 32 32">
<title>rotate-right</title>
<path d="M15.399 5.341c0.238-0.017 0.442 0 0.6 0v2.133c-0.321 0-0.683 0.050-0.733 0.066l-0.666-2.033c0.296-0.1 0.562-0.15 0.8-0.166h-0.001zM12.833 5.841l0.6 2.033-0.266 0.066-0.134 0.066-0.9 0.4-0.134 0.066h-0.034l-1.1-1.833 0.266-0.134 1.166-0.5 0.134-0.066 0.4-0.1 0.001 0.001zM20.264 7.474l6.398 0.733-1.799 1.799c1.166 1.708 1.799 3.757 1.799 5.998 0 5.902-4.761 10.663-10.663 10.663s-10.663-4.761-10.663-10.663c0-0.321-0.030-0.808 0.166-1.399l2.033 0.666c-0.017 0.050-0.066 0.412-0.066 0.733 0 4.761 3.77 8.53 8.53 8.53s8.53-3.77 8.53-8.53c0-1.682-0.404-3.178-1.2-4.465l-2.333 2.333-0.733-6.398h0.001zM9.235 7.774l1.333 1.666-0.266 0.2-0.066 0.1h-0.034l-0.7 0.7v0.034l-0.034 0.066h-0.034l-0.1-0.1-1.599-1.166 0.066-0.1 0.034-0.066 0.066-0.034 0.866-0.9 0.1-0.1 0.366-0.3h0.001zM6.636 10.906l1.866 1.033-0.2 0.366v0.034l-0.066 0.1-0.4 1.066-1.999-0.766 0.466-1.199 0.066-0.134 0.266-0.5z"></path>
</svg>
