<!-- Generated by IcoMoon.io -->
<svg version="1.1" xmlns="http://www.w3.org/2000/svg" width="32" height="32" viewBox="0 0 32 32">
<title>rotate-right</title>
<path d="M16.597 5.341c0.238 0.017 0.504 0.066 0.8 0.166l-0.666 2.033c-0.050-0.017-0.412-0.066-0.733-0.066v-2.133c0.158 0 0.362-0.017 0.6 0h-0.001zM19.162 5.841l0.4 0.1 0.134 0.066 1.166 0.5 0.266 0.134-1.1 1.833h-0.034l-0.134-0.066-0.9-0.4-0.134-0.066-0.266-0.066 0.6-2.033 0.001-0.001zM11.732 7.474l-0.733 6.398-2.333-2.333c-0.795 1.287-1.2 2.782-1.2 4.465 0 4.761 3.77 8.53 8.53 8.53s8.53-3.77 8.53-8.53c0-0.321-0.050-0.683-0.066-0.733l2.033-0.666c0.196 0.591 0.166 1.078 0.166 1.399 0 5.902-4.761 10.663-10.663 10.663s-10.663-4.761-10.663-10.663c0-2.241 0.633-4.29 1.799-5.998l-1.799-1.799 6.398-0.733zM22.761 7.774l0.366 0.3 0.1 0.1 0.866 0.9 0.066 0.034 0.034 0.066 0.066 0.1-1.599 1.166-0.1 0.1h-0.034l-0.034-0.066v-0.034l-0.7-0.7h-0.034l-0.066-0.1-0.266-0.2 1.334-1.666zM25.36 10.906l0.266 0.5 0.066 0.134 0.466 1.199-1.999 0.766-0.4-1.066-0.066-0.1v-0.034l-0.2-0.366 1.866-1.033z"></path>
</svg>
