<!-- Generated by IcoMoon.io -->
<svg version="1.1" xmlns="http://www.w3.org/2000/svg" width="32" height="32" viewBox="0 0 32 32">
<title>zoom-out</title>
<path d="M12.8 5.334c-4.111 0-7.466 3.355-7.466 7.466s3.355 7.466 7.466 7.466c1.865 0 3.568-0.695 4.879-1.834l0.454 0.454v1.379l6.4 6.4 2.134-2.134-6.4-6.4h-1.379l-0.454-0.454c1.138-1.311 1.834-3.014 1.834-4.879 0-4.111-3.355-7.466-7.466-7.466l-0.001 0.001zM12.8 7.467c2.958 0 5.334 2.375 5.334 5.334s-2.375 5.334-5.334 5.334c-2.958 0-5.334-2.375-5.334-5.334s2.375-5.334 5.334-5.334zM9.6 11.734v2.134h6.4v-2.134h-6.4z"></path>
</svg>
