<!-- Generated by IcoMoon.io -->
<svg version="1.1" xmlns="http://www.w3.org/2000/svg" width="32" height="32" viewBox="0 0 32 32">
<title>zoom-in</title>
<path d="M12.8 5.333c-4.125 0-7.467 3.342-7.467 7.467s3.342 7.467 7.467 7.467c1.838 0 3.5-0.667 4.8-1.767l0.533 0.533v0.933l6.7 6.7 1.833-1.833-6.7-6.7h-0.933l-0.533-0.533c1.1-1.3 1.767-2.962 1.767-4.8 0-4.125-3.342-7.467-7.467-7.467zM12.8 7.467c2.942 0 5.333 2.392 5.333 5.333s-2.392 5.333-5.333 5.333c-2.942 0-5.333-2.392-5.333-5.333s2.392-5.333 5.333-5.333zM11.733 9.6v2.133h-2.133v2.133h2.133v2.133h2.133v-2.133h2.133v-2.133h-2.133v-2.133h-2.133z"></path>
</svg>
