<!-- Generated by IcoMoon.io -->
<svg version="1.1" xmlns="http://www.w3.org/2000/svg" width="32" height="32" viewBox="0 0 32 32">
<title>applicator</title>
<path d="M18.157 19.074c-0.33 0.412-0.757 0.69-1.254 0.832-0.218 0.060-0.315 0.18-0.305 0.412 0.011 0.229 0 0.461 0 0.69 0 0.206-0.101 0.315-0.297 0.319-0.239 0.008-0.478 0.008-0.717 0-0.21-0.004-0.308-0.127-0.312-0.337-0.004-0.169-0.004-0.337-0.004-0.502-0.004-0.371-0.014-0.386-0.359-0.442-0.442-0.071-0.873-0.176-1.275-0.379-0.315-0.157-0.348-0.24-0.257-0.585 0.069-0.255 0.134-0.514 0.214-0.765 0.091-0.293 0.167-0.33 0.428-0.191 0.446 0.24 0.92 0.375 1.417 0.439 0.319 0.041 0.634 0.007 0.931-0.127 0.554-0.251 0.641-0.915 0.174-1.312-0.159-0.135-0.341-0.236-0.529-0.322-0.486-0.221-0.993-0.39-1.449-0.675-0.743-0.461-1.214-1.091-1.16-2.028 0.062-1.057 0.641-1.717 1.576-2.070 0.388-0.146 0.388-0.139 0.391-0.559v-0.424c0.007-0.315 0.058-0.371 0.362-0.379 0.094-0.004 0.188 0 0.283 0 0.645 0 0.645 0 0.649 0.667 0.004 0.472 0 0.476 0.457 0.547 0.348 0.056 0.681 0.165 1.004 0.311 0.178 0.083 0.246 0.21 0.192 0.405-0.080 0.289-0.156 0.581-0.246 0.866-0.083 0.27-0.167 0.311-0.42 0.184-0.504-0.251-1.033-0.356-1.591-0.326-0.145 0.008-0.29 0.030-0.424 0.090-0.482 0.217-0.562 0.769-0.149 1.106 0.207 0.172 0.446 0.296 0.692 0.401 0.427 0.184 0.855 0.356 1.261 0.589 1.279 0.746 1.627 2.422 0.717 3.566v0zM25.602 12.8c0.586 0 1.065-0.479 1.065-1.065v-0.004c0-0.586-0.479-1.065-1.065-1.065h-1.602v-0.768c0-1.044-0.854-1.899-1.899-1.899h-0.768v-1.602c0-0.586-0.479-1.065-1.065-1.065h-0.004c-0.586 0-1.065 0.479-1.065 1.065v1.602h-2.133v-1.602c0-0.586-0.479-1.065-1.065-1.065h-0.004c-0.586 0-1.065 0.479-1.065 1.065v1.602h-2.133v-1.602c0-0.586-0.479-1.065-1.065-1.065h-0.004c-0.586 0-1.065 0.479-1.065 1.065v1.602h-0.768c-1.044 0-1.899 0.854-1.899 1.899v0.768h-1.602c-0.586 0-1.065 0.479-1.065 1.065v0.004c0 0.586 0.479 1.065 1.065 1.065h1.602v2.133h-1.602c-0.586 0-1.065 0.479-1.065 1.065v0.004c0 0.586 0.479 1.065 1.065 1.065h1.602v2.133h-1.602c-0.586 0-1.065 0.479-1.065 1.065v0.004c0 0.586 0.479 1.065 1.065 1.065h1.602v0.768c0 1.044 0.854 1.899 1.899 1.899h0.768v1.602c0 0.586 0.479 1.065 1.065 1.065h0.004c0.586 0 1.065-0.479 1.065-1.065v-1.602h2.133v1.602c0 0.586 0.479 1.065 1.065 1.065h0.004c0.586 0 1.065-0.479 1.065-1.065v-1.602h2.133v1.602c0 0.586 0.479 1.065 1.065 1.065h0.004c0.586 0 1.065-0.479 1.065-1.065v-1.602h0.768c1.044 0 1.899-0.854 1.899-1.899v-0.768h1.602c0.586 0 1.065-0.479 1.065-1.065v-0.004c0-0.586-0.479-1.065-1.065-1.065h-1.602v-2.133h1.602c0.586 0 1.065-0.479 1.065-1.065v-0.004c0-0.586-0.479-1.065-1.065-1.065h-1.602v-2.133h1.602z"></path>
</svg>
