<!-- Generated by IcoMoon.io -->
<svg version="1.1" xmlns="http://www.w3.org/2000/svg" width="32" height="32" viewBox="0 0 32 32">
<title>applicator</title>
<path d="M18.426 19.459c-0.371 0.464-0.852 0.776-1.41 0.936-0.245 0.067-0.355 0.202-0.343 0.464 0.012 0.257 0 0.519 0 0.776 0 0.232-0.114 0.354-0.334 0.358-0.269 0.008-0.538 0.008-0.807 0-0.236-0.004-0.347-0.143-0.351-0.38-0.004-0.19-0.004-0.38-0.004-0.565-0.004-0.418-0.016-0.434-0.403-0.498-0.497-0.080-0.982-0.198-1.435-0.426-0.355-0.177-0.391-0.27-0.289-0.658 0.077-0.287 0.151-0.578 0.24-0.861 0.102-0.329 0.188-0.371 0.481-0.215 0.501 0.27 1.035 0.422 1.594 0.494 0.359 0.046 0.713 0.008 1.048-0.143 0.624-0.283 0.721-1.029 0.196-1.476-0.179-0.152-0.383-0.266-0.595-0.363-0.546-0.249-1.117-0.439-1.631-0.759-0.836-0.519-1.366-1.227-1.305-2.282 0.069-1.189 0.722-1.932 1.773-2.328 0.436-0.165 0.436-0.156 0.44-0.628v-0.477c0.008-0.354 0.065-0.418 0.408-0.426 0.106-0.004 0.212 0 0.318 0 0.726 0 0.726 0 0.73 0.751 0.004 0.531 0 0.536 0.514 0.616 0.391 0.063 0.766 0.186 1.129 0.35 0.2 0.093 0.277 0.236 0.216 0.456-0.090 0.325-0.175 0.654-0.277 0.974-0.094 0.304-0.187 0.35-0.473 0.207-0.567-0.283-1.162-0.401-1.79-0.367-0.163 0.008-0.326 0.034-0.477 0.101-0.542 0.245-0.632 0.865-0.167 1.244 0.232 0.194 0.501 0.333 0.779 0.451 0.481 0.207 0.962 0.401 1.419 0.662 1.439 0.839 1.83 2.725 0.807 4.011v0zM26.802 12.4c0.659 0 1.198-0.539 1.198-1.198v-0.004c0-0.659-0.539-1.198-1.198-1.198h-1.802v-0.864c0-1.175-0.961-2.136-2.136-2.136h-0.864v-1.802c0-0.659-0.539-1.198-1.198-1.198h-0.004c-0.659 0-1.198 0.539-1.198 1.198v1.802h-2.4v-1.802c0-0.659-0.539-1.198-1.198-1.198h-0.004c-0.659 0-1.198 0.539-1.198 1.198v1.802h-2.4v-1.802c0-0.659-0.539-1.198-1.198-1.198h-0.004c-0.659 0-1.198 0.539-1.198 1.198v1.802h-0.864c-1.175 0-2.136 0.961-2.136 2.136v0.864h-1.802c-0.659 0-1.198 0.539-1.198 1.198v0.004c0 0.659 0.539 1.198 1.198 1.198h1.802v2.4h-1.802c-0.659 0-1.198 0.539-1.198 1.198v0.004c0 0.659 0.539 1.198 1.198 1.198h1.802v2.4h-1.802c-0.659 0-1.198 0.539-1.198 1.198v0.004c0 0.659 0.539 1.198 1.198 1.198h1.802v0.864c0 1.175 0.961 2.136 2.136 2.136h0.864v1.802c0 0.659 0.539 1.198 1.198 1.198h0.004c0.659 0 1.198-0.539 1.198-1.198v-1.802h2.4v1.802c0 0.659 0.539 1.198 1.198 1.198h0.004c0.659 0 1.198-0.539 1.198-1.198v-1.802h2.4v1.802c0 0.659 0.539 1.198 1.198 1.198h0.004c0.659 0 1.198-0.539 1.198-1.198v-1.802h0.864c1.175 0 2.136-0.961 2.136-2.136v-0.864h1.802c0.659 0 1.198-0.539 1.198-1.198v-0.004c0-0.659-0.539-1.198-1.198-1.198h-1.802v-2.4h1.802c0.659 0 1.198-0.539 1.198-1.198v-0.004c0-0.659-0.539-1.198-1.198-1.198h-1.802v-2.4h1.802z"></path>
</svg>
