<!-- Generated by IcoMoon.io -->
<svg version="1.1" xmlns="http://www.w3.org/2000/svg" width="32" height="32" viewBox="0 0 32 32">
<title>bulb</title>
<path d="M16.081 28h-1.68c-0.12 0-0.24 0-0.24-0.12v-0.96c0-0.12 0-0.12 0.24-0.12h3.48c0.12 0 0.24 0 0.24 0.12v0.96c0 0.12 0 0.12-0.24 0.12h-1.8zM16.081 22.72h-2.4c-0.6 0-0.6 0-0.48 0.6 0 0.36 0.24 0.6 0.6 0.6h4.68c0.36 0 0.6-0.24 0.6-0.72v-0.24c0-0.12 0-0.24-0.24-0.24h-2.76zM12.721 12.4l0.84-0.84c0.12-0.12 0.24-0.12 0.36 0l2.040 2.040c0.12 0 0.12 0.12 0.24-0.12l2.040-2.040c0.12-0.12 0.24-0.12 0.36 0 0.24 0.24 0.48 0.6 0.84 0.84 0.12 0.12 0 0.12-0.12 0.24l-2.4 2.4v6c0 0.12 0 0.24 0.24 0.24h1.92c0.12 0 0.24 0 0.24-0.24 0.24-1.44 0.96-2.64 1.92-3.72 1.68-1.8 2.28-3.84 1.8-6.24-0.84-3.6-4.44-6-8.16-5.28-2.64 0.48-4.44 2.040-5.28 4.56-0.84 2.64-0.24 4.92 1.56 6.96 0.96 1.2 1.56 2.4 1.92 3.84 0 0.12 0.12 0.24 0.24 0.24h1.8c0.24 0 0.24 0 0.24-0.24v-5.76c0-0.12-0.12-0.24-0.12-0.36-0.24-0.24-0.6-0.48-0.84-0.72-0.48-0.6-1.080-1.2-1.68-1.8zM16.081 25.48h-2.28c-1.32 0-2.16-0.96-2.28-2.28 0-0.72 0-1.44-0.12-2.16-0.12-0.96-0.6-1.8-1.32-2.52-1.32-1.32-2.16-2.88-2.4-4.68-0.48-3.48 1.2-6.96 4.32-8.76 4.92-2.76 11.040 0 12.24 5.64 0.6 2.88-0.12 5.4-2.16 7.68-0.72 0.84-1.32 1.68-1.56 2.88-0.12 0.6 0 1.2-0.12 1.68 0 0.24 0 0.6-0.12 0.84-0.24 0.96-1.080 1.68-2.040 1.68h-2.16z"></path>
</svg>
