<!-- Generated by IcoMoon.io -->
<svg version="1.1" xmlns="http://www.w3.org/2000/svg" width="32" height="32" viewBox="0 0 32 32">
<title>Bulk-Removal</title>
<path d="M24.533 9.515h-8.533l-2.133-2.182h-6.4c-1.177 0-2.133 0.979-2.133 2.182v13.091c0 1.203 0.957 2.182 2.133 2.182h17.067c1.177 0 2.133-0.979 2.133-2.182v-10.909c0-1.203-0.957-2.182-2.133-2.182zM20 19.935l-1.398 1.398-2.602-2.602-2.602 2.602-1.398-1.398 2.602-2.602-2.602-2.602 1.398-1.398 2.602 2.602 2.602-2.602 1.398 1.398-2.602 2.602 2.602 2.602z"></path>
</svg>
