<!-- Generated by IcoMoon.io -->
<svg version="1.1" xmlns="http://www.w3.org/2000/svg" width="32" height="32" viewBox="0 0 32 32">
<title>Car-type</title>
<path d="M1.333 8v2.222h0.611c0.33 0 0.611 0.2 0.611 0.445v9.555h1.284c0.3 1.88 2.066 3.333 4.216 3.333 1.7 0 3.159-0.913 3.848-2.222h8.193c0.689 1.309 2.148 2.222 3.848 2.222s3.159-0.913 3.848-2.222h1.652c0.672 0 1.222-0.5 1.222-1.111v-3.778c0-0.3-0.135-0.577-0.368-0.788-3.068-2.767-12.075-3.167-15.521-3.212v-2.222c0-0.611-0.55-1.111-1.222-1.111-4.131 0-6.857 1.578-8.556 3.145v-1.589c0-1.467-1.369-2.667-3.056-2.667h-0.611zM8.056 18c1.011 0 1.833 0.748 1.833 1.667s-0.823 1.667-1.833 1.667c-1.011 0-1.833-0.748-1.833-1.667s0.823-1.667 1.833-1.667zM23.944 18c1.011 0 1.833 0.748 1.833 1.667s-0.823 1.667-1.833 1.667c-1.011 0-1.833-0.748-1.833-1.667s0.823-1.667 1.833-1.667z"></path>
</svg>
