<!-- Generated by IcoMoon.io -->
<svg version="1.1" xmlns="http://www.w3.org/2000/svg" width="32" height="32" viewBox="0 0 32 32">
<title>Car-Weight</title>
<path d="M11.218 5.333c-1.389 0-2.598 0.881-3.022 2.185l-1.74 3.763-0.002 0.002-1.783-0.594-0.671 2.013 1.555 0.518v0.002c0 0-0.159 0.446-0.159 0.594v7.423c0 0.585 0.475 1.060 1.060 1.060h3.181l0.352-1.060h12.019l0.354 1.060h3.181c0.585 0 1.060-0.475 1.060-1.060v-7.423c0-0.148-0.159-0.594-0.159-0.594v-0.002l1.555-0.518-0.671-2.011-1.785 0.594v-0.004l-1.74-3.763c-0.424-1.304-1.633-2.185-3.022-2.185h-9.564zM11.218 7.454h9.564c0.467 0 0.881 0.308 1.019 0.754 0.011 0.053 0.031 0.094 0.052 0.137l1.549 3.351h-14.804l1.549-3.351c0.021-0.042 0.041-0.084 0.052-0.137 0.138-0.445 0.542-0.754 1.019-0.754zM10.698 14.877c0.583 0 1.060 0.477 1.060 1.060s-0.477 1.060-1.060 1.060c-0.583 0-1.060-0.477-1.060-1.060s0.477-1.060 1.060-1.060zM13.879 14.877h4.242v2.121h-4.242v-2.121zM21.302 14.877c0.583 0 1.060 0.477 1.060 1.060s-0.477 1.060-1.060 1.060c-0.583 0-1.060-0.477-1.060-1.060s0.477-1.060 1.060-1.060zM5.396 24.421v2.121h21.208v-2.121h-21.208z"></path>
</svg>
