<!-- Generated by IcoMoon.io -->
<svg version="1.1" xmlns="http://www.w3.org/2000/svg" width="32" height="32" viewBox="0 0 32 32">
<title>Car</title>
<path d="M10.686 6.667c-1.543 0-2.886 0.979-3.357 2.428l-1.933 4.181-0.002 0.002-1.981-0.66-0.746 2.237 1.728 0.575v0.002c0 0-0.177 0.495-0.177 0.66v8.248c0 0.65 0.528 1.178 1.178 1.178h3.535l0.391-1.178h13.354l0.393 1.178h3.535c0.65 0 1.178-0.528 1.178-1.178v-8.248c0-0.165-0.177-0.66-0.177-0.66v-0.002l1.728-0.575-0.746-2.235-1.984 0.66v-0.005l-1.933-4.181c-0.471-1.449-1.814-2.428-3.358-2.428h-10.627zM10.686 9.023h10.627c0.518 0 0.979 0.343 1.132 0.838 0.012 0.059 0.034 0.105 0.058 0.152l1.721 3.723h-16.449l1.721-3.723c0.024-0.047 0.046-0.093 0.058-0.152 0.153-0.495 0.602-0.838 1.132-0.838zM10.109 17.271c0.648 0 1.178 0.53 1.178 1.178s-0.53 1.178-1.178 1.178c-0.648 0-1.178-0.53-1.178-1.178s0.53-1.178 1.178-1.178zM13.644 17.271h4.713v2.356h-4.713v-2.356zM21.891 17.271c0.648 0 1.178 0.53 1.178 1.178s-0.53 1.178-1.178 1.178c-0.648 0-1.178-0.53-1.178-1.178s0.53-1.178 1.178-1.178z"></path>
</svg>
