<!-- Generated by IcoMoon.io -->
<svg version="1.1" xmlns="http://www.w3.org/2000/svg" width="32" height="32" viewBox="0 0 32 32">
<title>crop-1</title>
<path d="M8.528 5.335c-0.587 0.009-1.056 0.492-1.048 1.079v1.065h-1.065c-0.384-0.006-0.742 0.196-0.936 0.527s-0.194 0.743 0 1.075c0.194 0.332 0.552 0.534 0.936 0.527h1.065v12.778c0 1.164 0.966 2.13 2.13 2.13h12.778v1.065c-0.007 0.385 0.194 0.745 0.526 0.939s0.744 0.195 1.077 0c0.332-0.195 0.534-0.554 0.526-0.939v-1.065h1.065c0.385 0.007 0.745-0.194 0.939-0.526s0.195-0.744 0-1.077c-0.195-0.332-0.554-0.534-0.939-0.526h-1.965c-0.060-0.010-0.12-0.015-0.181-0.015-0.052 0.001-0.103 0.006-0.154 0.015h-12.166l11.272-11.272v8.078c-0.007 0.385 0.194 0.745 0.526 0.939s0.744 0.195 1.077 0c0.332-0.195 0.534-0.554 0.526-0.939v-10.207l1.818-1.818c0.279-0.267 0.391-0.664 0.294-1.037s-0.389-0.665-0.762-0.762c-0.373-0.097-0.77 0.015-1.037 0.294l-1.818 1.818h-10.207c-0.384-0.006-0.742 0.196-0.936 0.527s-0.194 0.743 0 1.075c0.194 0.332 0.552 0.534 0.936 0.527h8.077l-11.272 11.272v-12.158c0.019-0.115 0.019-0.232 0-0.347v-1.961c0.004-0.288-0.109-0.565-0.313-0.768s-0.481-0.316-0.769-0.311z"></path>
</svg>
