<!-- Generated by IcoMoon.io -->
<svg version="1.1" xmlns="http://www.w3.org/2000/svg" width="32" height="32" viewBox="0 0 32 32">
<title>details-page</title>
<path d="M7.704 5.333c-1.31 0-2.37 1.061-2.37 2.37v4.741h21.333v-4.741c0-1.31-1.061-2.37-2.37-2.37h-16.593zM8.889 7.704c0.654 0 1.185 0.531 1.185 1.185s-0.531 1.185-1.185 1.185c-0.654 0-1.185-0.531-1.185-1.185s0.531-1.185 1.185-1.185zM12.444 7.704c0.654 0 1.185 0.531 1.185 1.185s-0.531 1.185-1.185 1.185c-0.654 0-1.185-0.531-1.185-1.185s0.531-1.185 1.185-1.185h-0zM16 7.704h8.296v2.37h-8.296v-2.37zM5.333 14.815v9.481c0 1.296 1.075 2.371 2.37 2.371h16.593c1.295 0 2.37-1.075 2.37-2.37v-9.481h-2.37v9.481h-10.667v-9.481l-8.296-0zM16 14.815v2.37h5.926v-2.37h-5.926zM16 19.555v2.37h5.926v-2.37h-5.926z"></path>
</svg>
