<!-- Generated by IcoMoon.io -->
<svg version="1.1" xmlns="http://www.w3.org/2000/svg" width="32" height="32" viewBox="0 0 32 32">
<title>Driving</title>
<path d="M9.053 5.333c-1.55 0-2.807 1.257-2.807 2.807s1.257 2.807 2.807 2.807c1.55 0 2.807-1.257 2.807-2.807s-1.257-2.807-2.807-2.807zM19.735 8.518l-0.474 2.842-3.103 1.772-4.682-0.936c-0.747-0.261-1.622-0.125-2.276 0.48-0.82 0.764-0.888 2.055-0.259 2.987l4.412 6.636c0.18 0.258 0.404 0.483 0.651 0.64l1.504-5.513-1.645-2.463 2.268 0.454c0.266 0.053 0.541 0.007 0.776-0.127l1.877-1.072-0.173 1.037 2.215 0.368 1.123-6.737-2.215-0.368zM14.004 22.939l-1.022 3.728h2.246l0.976-3.592c-0.719 0.348-1.548 0.279-2.2-0.136zM16.204 23.075c0.011 0 0.013-0.013 0.024-0.013l5.175-2.39 3.548 4.211c0.292 0.393 0.742 0.605 1.191 0.605 0.303 0 0.617-0.090 0.875-0.292 0.584-0.438 0.741-1.246 0.371-1.875l-3.772-5.827c-0.505-0.797-1.495-1.124-2.382-0.809l-3.638 1.314-1.393 5.077zM4 12.070v2.178l0.763 0.202 1.515 0.406c-0.022-0.18-0.033-0.36-0.033-0.539 0-0.55 0.101-1.090 0.292-1.572l-1.638-0.436-0.899-0.237z"></path>
</svg>
