<!-- Generated by IcoMoon.io -->
<svg version="1.1" xmlns="http://www.w3.org/2000/svg" width="32" height="32" viewBox="0 0 32 32">
<title>duplicate</title>
<path d="M10.667 5.333c-0.589 0-1.067 0.478-1.067 1.067s0.478 1.067 1.067 1.067h13.867v13.867c0 0.589 0.478 1.067 1.067 1.067s1.067-0.478 1.067-1.067v-13.867c0-1.179-0.955-2.133-2.133-2.133h-13.867zM7.467 9.6c-1.179 0-2.133 0.955-2.133 2.133v12.8c0 1.179 0.955 2.133 2.133 2.133h12.8c1.179 0 2.133-0.955 2.133-2.133v-12.8c0-1.179-0.955-2.133-2.133-2.133h-12.8zM13.867 13.867c0.589 0 1.067 0.478 1.067 1.067v2.133h2.133c0.589 0 1.067 0.478 1.067 1.067s-0.478 1.067-1.067 1.067h-2.133v2.133c0 0.589-0.478 1.067-1.067 1.067s-1.067-0.478-1.067-1.067v-2.133h-2.133c-0.589 0-1.067-0.478-1.067-1.067s0.478-1.067 1.067-1.067h2.133v-2.133c0-0.589 0.478-1.067 1.067-1.067z"></path>
</svg>
