<!-- Generated by IcoMoon.io -->
<svg version="1.1" xmlns="http://www.w3.org/2000/svg" width="32" height="32" viewBox="0 0 32 32">
<title>Entertainment</title>
<path d="M15.868 19.874h7.463c0.422 0 0.643 0.526 0.332 0.811-1.074 0.977-2.53 1.589-4.063 1.589s-2.989-0.612-4.063-1.589c-0.312-0.286-0.091-0.811 0.331-0.811zM8.2 17.474c0.961 0 1.8 0.839 1.8 1.8s-0.839 1.8-1.8 1.8c-0.961 0-1.8-0.839-1.8-1.8s0.839-1.8 1.8-1.8zM13.713 15.074h11.774c0.122 0.361 0.113 0.839 0.113 1.2s0.010 0.839-0.113 1.2h-11.774c-0.122-0.361-0.113-0.839-0.113-1.2s-0.010-0.839 0.113-1.2zM8.2 11.474c0.961 0 1.8 0.84 1.8 1.8 0 0.961-0.839 1.8-1.8 1.8s-1.8-0.839-1.8-1.8c0-0.96 0.839-1.8 1.8-1.8zM19.6 10.274c1.534 0 2.989 0.612 4.063 1.59 0.311 0.284 0.090 0.81-0.332 0.81h-7.463c-0.422 0-0.643-0.526-0.331-0.81 1.074-0.978 2.53-1.59 4.063-1.59zM4 9.549v13.454c0 1.579 1.291 2.87 2.869 2.87h18.26c1.579 0 2.87-1.291 2.87-2.87v-13.459c0-1.578-1.29-2.869-2.869-2.87l-12.673 0.002c-0.54 0.025-3.347 0.018-5.581 0.007-1.588-0.008-2.876 1.278-2.876 2.866z"></path>
</svg>
