<!-- Generated by IcoMoon.io -->
<svg version="1.1" xmlns="http://www.w3.org/2000/svg" width="32" height="32" viewBox="0 0 32 32">
<title>listing-rejected</title>
<path d="M6.8 6.667c-1.175 0-2.133 0.973-2.133 2.167v13c0 1.193 0.958 2.167 2.133 2.167h12.8l-2.133-2.167h-10.667v-10.833h17.067v8.667l2.133-2.167v-8.667c0-1.193-0.958-2.167-2.133-2.167h-17.067zM8.667 13.333v2.667h2.667v-2.667h-2.667zM12.667 13.333v2.667h9.333v-2.667h-9.333zM8.667 17.333v2.667h2.667v-2.667h-2.667zM12.667 17.333v2.667h5.714l2.286-2.667h-8zM20.961 20l-1.628 1.406 3.039 2.625-2.966 2.563 1.664 1.406 2.93-2.563 2.966 2.563 1.628-1.438-2.93-2.531 3.003-2.625-1.628-1.406-3.039 2.625-3.039-2.625z"></path>
</svg>
