<!-- Generated by IcoMoon.io -->
<svg version="1.1" xmlns="http://www.w3.org/2000/svg" width="32" height="32" viewBox="0 0 32 32">
<title>list</title>
<path d="M11.2 10.4c-0.663 0-1.2-0.537-1.2-1.2s0.537-1.2 1.2-1.2h15.6c0.663 0 1.2 0.537 1.2 1.2s-0.537 1.2-1.2 1.2h-15.6zM11.2 17.6c-0.663 0-1.2-0.537-1.2-1.2s0.537-1.2 1.2-1.2h15.6c0.663 0 1.2 0.537 1.2 1.2s-0.537 1.2-1.2 1.2h-15.6zM11.2 24.8c-0.663 0-1.2-0.537-1.2-1.2s0.537-1.2 1.2-1.2h15.6c0.663 0 1.2 0.537 1.2 1.2s-0.537 1.2-1.2 1.2h-15.6zM4 8h2.4v2.4h-2.4v-2.4zM4 15.2h2.4v2.4h-2.4v-2.4zM4 22.4h2.4v2.4h-2.4v-2.4z"></path>
</svg>
