<!-- Generated by IcoMoon.io -->
<svg version="1.1" xmlns="http://www.w3.org/2000/svg" width="32" height="32" viewBox="0 0 32 32">
<title>Motorbike</title>
<path d="M15.5 6.667v2.333h2.78l0.237 0.476c-0.691 0.392-1.3 0.965-1.862 1.504-0.779 0.747-1.582 1.52-2.322 1.52-0.965 0-1.417-0.331-2.238-0.93-1.485-1.086-3.52-2.57-9.429-2.57v2.333c0.895 0 1.658 0.043 2.356 0.107l1.458 2.226h-2.648v2.333h4.177l3.475 5.307c0.216 0.329 0.584 0.527 0.978 0.526h8.871c0 1.919 1.581 3.5 3.5 3.5s3.5-1.581 3.5-3.5c0-1.679-1.21-3.101-2.798-3.429l-2.142-3.571h3.773c0.453 0 0.864-0.263 1.055-0.672 0.192-0.409 0.132-0.894-0.157-1.242-0.127-0.151-2.982-3.51-7.157-3.881l-0.864-1.727c-0.198-0.395-0.602-0.645-1.044-0.645h-3.5zM21.274 15.834l1.805 3.008c-0.304 0.183-0.589 0.396-0.827 0.659h-2.030c0.155-1.637 0.618-2.835 1.053-3.666zM6.167 18.333c-1.919 0-3.5 1.581-3.5 3.5s1.581 3.5 3.5 3.5c1.919 0 3.5-1.581 3.5-3.5s-1.581-3.5-3.5-3.5zM6.167 20.667c0.658 0 1.167 0.509 1.167 1.167s-0.509 1.167-1.167 1.167c-0.658 0-1.167-0.509-1.167-1.167s0.509-1.167 1.167-1.167zM24.71 20.689c0.087 0.011 0.175 0.013 0.262 0.005 0.586 0.069 1.028 0.531 1.028 1.139 0 0.658-0.509 1.167-1.167 1.167s-1.167-0.509-1.167-1.167c0-0.614 0.45-1.082 1.044-1.144z"></path>
</svg>
