<!-- Generated by IcoMoon.io -->
<svg version="1.1" xmlns="http://www.w3.org/2000/svg" width="32" height="32" viewBox="0 0 32 32">
<title>photo-upload</title>
<path d="M7.274 25.254l14.681 0.106-3.961-8.027c-0.264-0.581-1.003-0.581-1.32-0.053l-1.743 3.063c-0.37 0.528-1.109 0.634-1.531 0.158l-0.687-0.739c-0.687-0.739-1.901-0.634-2.429 0.264l-3.010 5.228zM9.809 10.045c-1.373 0-2.482 1.109-2.482 2.482s1.109 2.482 2.482 2.482c1.373 0 2.482-1.109 2.482-2.482s-1.109-2.482-2.482-2.482zM18.1 9.148c0 3.538 2.799 6.443 6.284 6.654v9.189c0 1.637-1.32 3.010-3.010 3.010h-14.364c-1.637 0-3.010-1.32-3.010-3.010v-14.681c0-1.69 1.373-3.010 3.010-3.010h11.354c-0.158 0.581-0.264 1.215-0.264 1.848zM27.635 8.7c0.158-0.211 0.106-0.528-0.106-0.739l-2.535-1.795c0 0 0-0.053-0.053-0.053 0-0.053 0-0.053-0.053-0.053h-0.37l-0.053 0.053-2.482 2.007c-0.211 0.158-0.264 0.475-0.053 0.739 0.158 0.211 0.475 0.211 0.686 0.053l1.69-1.373v4.542c0 0.317 0.211 0.581 0.475 0.581s0.475-0.264 0.475-0.528v-4.594l1.637 1.267c0.106 0.053 0.211 0.106 0.317 0.106 0.158 0 0.317-0.106 0.422-0.211zM24.783 4c2.852 0 5.175 2.271 5.175 5.122s-2.324 5.175-5.175 5.175c-2.852 0-5.175-2.324-5.175-5.175s2.324-5.122 5.175-5.122z"></path>
</svg>
