<!-- Generated by IcoMoon.io -->
<svg version="1.1" xmlns="http://www.w3.org/2000/svg" width="32" height="32" viewBox="0 0 32 32">
<title>registration-card</title>
<path d="M22.006 15.746h-11.835v-2.133h11.835v2.133l-0 0zM22.006 10.971h-11.835v-2.133h11.835v2.133l-0-0zM12.559 22.197l-1.219 0.559-0.152-1.27-1.067-0.762 1.067-0.762 0.152-1.27 1.168 0.559 1.168-0.559 0.152 1.27 1.067 0.762-1.016 0.711-0.152 1.27-1.168-0.508zM20.381 19.505h2.794l-4.724 4.724v-2.794c0-1.067 0.863-1.93 1.93-1.93v0zM23.479 5.333h-14.73c-1.168 0-2.083 1.067-2.083 2.387v16.559c0 1.321 0.965 2.387 2.083 2.387h9.701l7.111-7.111v-11.886c0-1.321-0.965-2.337-2.082-2.337z"></path>
</svg>
