<!-- Generated by IcoMoon.io -->
<svg version="1.1" xmlns="http://www.w3.org/2000/svg" width="32" height="32" viewBox="0 0 32 32">
<title>share</title>
<path d="M17.64 9.414c0-0.12 0-0.219 0-0.317-0.006-1.139-0.011-2.282-0.006-3.421 0-0.12 0.066-0.323 0.138-0.334 0.127-0.027 0.315 0.016 0.414 0.104 2.1 1.834 4.194 3.673 6.289 5.512 0.939 0.821 1.873 1.648 2.813 2.469 0.354 0.312 0.354 0.378 0.011 0.684-2.984 2.633-5.968 5.26-8.958 7.893-0.155 0.137-0.293 0.372-0.558 0.246-0.254-0.12-0.144-0.372-0.144-0.564-0.006-1.111 0.006-2.228 0.011-3.339 0-0.071-0.006-0.142-0.017-0.285-0.575 0.027-1.149-0.005-1.702 0.093-4.034 0.701-7.14 2.753-9.212 6.267-0.354 0.602-0.564 1.281-0.84 1.927-0.033 0.082-0.050 0.192-0.116 0.241-0.066 0.055-0.221 0.099-0.265 0.066-0.083-0.066-0.171-0.197-0.166-0.301 0.028-0.903 0.039-1.806 0.122-2.704 0.171-1.932 0.558-3.821 1.26-5.638 1.078-2.797 2.746-5.145 5.316-6.798 1.647-1.056 3.443-1.675 5.41-1.779 0.050-0.005 0.105-0.011 0.199-0.022z"></path>
</svg>
