<!-- Generated by IcoMoon.io -->
<svg version="1.1" xmlns="http://www.w3.org/2000/svg" width="32" height="32" viewBox="0 0 32 32">
<title>speedometer</title>
<path d="M16.191 5.333c-6.722 0-12.191 5.468-12.191 12.191 0 3.5 1.48 6.639 3.841 8.857l0.317 0.286h16.064l0.317-0.286c2.361-2.218 3.841-5.357 3.841-8.857 0-6.722-5.468-12.191-12.19-12.191h-0zM16.191 7.365c5.623 0 10.159 4.536 10.159 10.159 0 2.798-1.187 5.274-3.016 7.111h-14.286c-1.829-1.837-3.016-4.313-3.016-7.111 0-5.623 4.536-10.159 10.159-10.159h0zM16.191 8.381c-0.56 0-1.016 0.456-1.016 1.016s0.456 1.016 1.016 1.016c0.559 0 1.016-0.456 1.016-1.016s-0.456-1.016-1.016-1.016l0 0zM12.127 9.46c-0.559 0-1.016 0.456-1.016 1.016s0.456 1.016 1.016 1.016c0.559 0 1.016-0.456 1.016-1.016s-0.456-1.016-1.016-1.016zM20.254 9.46c-0.56 0-1.016 0.456-1.016 1.016s0.456 1.016 1.016 1.016c0.559 0 1.016-0.456 1.016-1.016s-0.456-1.016-1.016-1.016h0zM9.143 12.444c-0.559 0-1.016 0.456-1.016 1.016s0.456 1.016 1.016 1.016c0.559 0 1.016-0.456 1.016-1.016s-0.456-1.016-1.016-1.016v0zM23.238 12.444c-0.198 0-0.381 0.060-0.54 0.159l-5.492 3.175c-0.298-0.175-0.647-0.286-1.016-0.286-1.123 0-2.032 0.909-2.032 2.032s0.909 2.032 2.032 2.032c1.123 0 2.032-0.909 2.032-2.032l5.397-3.143c0.365-0.155 0.635-0.5 0.635-0.921 0-0.559-0.456-1.016-1.016-1.016h0zM8.063 16.508c-0.559 0-1.016 0.456-1.016 1.016s0.456 1.016 1.016 1.016c0.559 0 1.016-0.456 1.016-1.016s-0.456-1.016-1.016-1.016v0zM24.317 16.508c-0.559 0-1.016 0.456-1.016 1.016s0.457 1.016 1.016 1.016 1.016-0.456 1.016-1.016c0-0.559-0.456-1.016-1.016-1.016zM9.143 20.571c-0.559 0-1.016 0.456-1.016 1.016s0.456 1.016 1.016 1.016c0.559 0 1.016-0.456 1.016-1.016s-0.456-1.016-1.016-1.016zM23.238 20.571c-0.56 0-1.016 0.456-1.016 1.016s0.456 1.016 1.016 1.016c0.559 0 1.016-0.456 1.016-1.016s-0.456-1.016-1.016-1.016h0z"></path>
</svg>
