<!-- Generated by IcoMoon.io -->
<svg version="1.1" xmlns="http://www.w3.org/2000/svg" width="32" height="32" viewBox="0 0 32 32">
<title>spray</title>
<path d="M23.099 4.007c-0.043 0.014-0.084 0.033-0.122 0.058l-3.756 1.788h-0.061c-0.031 0.008-0.062 0.018-0.091 0.029-0.033 0.015-0.064 0.034-0.092 0.058l-0.030 0.029c-0.046 0.021-0.087 0.050-0.122 0.087l-0.030 0.029v0.029c-0.091 0.146-0.088 0.333 0.008 0.476s0.271 0.227 0.45 0.216l3.725 1.759c0.156 0.119 0.37 0.133 0.546 0.040 0.17-0.088 0.267-0.272 0.244-0.461-0.027-0.184-0.172-0.339-0.363-0.386l-2.076-0.98h3.817c0.176 0.004 0.34-0.087 0.427-0.227 0.092-0.143 0.092-0.326 0-0.469-0.088-0.141-0.252-0.231-0.427-0.227h-3.817l2.076-0.98c0.214-0.105 0.317-0.339 0.24-0.555s-0.309-0.35-0.546-0.31v0zM14.885 4.93c-0.588 0-0.977 0.368-0.977 0.923v1.471c0 0.184 0.202 0.375 0.397 0.375h0.397c-0.085 0.018-0.167 0.047-0.244 0.087 0 0-1.046 0.49-2.107 1.24-0.531 0.375-1.080 0.829-1.527 1.355s-0.824 1.164-0.824 1.932v14.765c0 0.555 0.389 0.923 0.977 0.923h9.771c0.588 0 0.977-0.368 0.977-0.923v-14.621c0.004-0.048 0.004-0.096 0-0.144 0-0.761-0.382-1.384-0.824-1.903s-1-0.948-1.527-1.327c-1.053-0.761-2.076-1.269-2.076-1.269-0.114-0.062-0.238-0.101-0.366-0.115h0.488c0.195 0 0.397-0.191 0.397-0.375v-1.471c0-0.555-0.389-0.923-0.977-0.923h-1.954zM15.16 9.544h1.405c0.157 0.079 0.84 0.425 1.649 1.009 0.37 0.267 0.668 0.552 0.947 0.836h-6.656c0.279-0.299 0.622-0.591 1.008-0.865 0.821-0.58 1.515-0.916 1.649-0.98v0zM15.863 16.003c1.66 0 2.931 1.2 2.931 2.768s-1.271 2.768-2.931 2.768c-1.66 0-2.931-1.2-2.931-2.768s1.271-2.768 2.931-2.768v0z"></path>
</svg>
