<!-- Generated by IcoMoon.io -->
<svg version="1.1" xmlns="http://www.w3.org/2000/svg" width="32" height="32" viewBox="0 0 32 32">
<title>Stering</title>
<path d="M16 5.333c-5.867 0-10.667 4.8-10.667 10.667s4.8 10.667 10.667 10.667c5.867 0 10.667-4.8 10.667-10.667s-4.8-10.667-10.667-10.667zM16 7.467c4.331 0 7.928 3.273 8.458 7.467h-4.331c-0.486-1.882-2.183-3.198-4.127-3.2-1.943 0.003-3.639 1.318-4.125 3.2h-4.333c0.53-4.193 4.127-7.467 8.458-7.467zM7.542 17.067h4.331c0.389 1.499 1.561 2.67 3.060 3.058v4.333c-3.843-0.486-6.906-3.549-7.392-7.392zM20.125 17.067h4.333c-0.486 3.843-3.549 6.906-7.392 7.392v-4.331c1.499-0.389 2.67-1.561 3.058-3.060v0z"></path>
</svg>
