<!-- Generated by IcoMoon.io -->
<svg version="1.1" xmlns="http://www.w3.org/2000/svg" width="32" height="32" viewBox="0 0 32 32">
<title>Suspension</title>
<path d="M21.388 5.333l-1.721 1.709 5.281 5.316 1.718-1.707-1.792-1.806 1.792-1.804-1.718-1.709-1.78 1.794-1.78-1.794zM16.986 7.994l-1.718 1.707 7.042 7.091 1.718-1.709-7.042-7.089zM11.726 10.309c-0.316 0-0.632 0.116-0.859 0.346l-3.52 3.543c-0.469 0.473-0.469 1.235 0 1.707l0.911 0.921-0.911 0.918c-0.469 0.473-0.469 1.236 0 1.709l4.395 4.426c-0.99 0.732-2.352 0.654-3.252-0.253-0.464-0.467-0.704-1.059-0.736-1.671l-2.421 0.128c0.062 1.179 0.546 2.35 1.439 3.25 1.919 1.934 5.080 1.934 6.999 0l0.563-0.552-0.002-0.002c0.004-0.004 0.010-0.005 0.014-0.009l0.899-0.907 0.902 0.907c0.228 0.229 0.537 0.36 0.859 0.36s0.633-0.13 0.859-0.36l3.52-3.546c0.469-0.471 0.469-1.235 0-1.709l-8.8-8.86c-0.227-0.23-0.543-0.346-0.859-0.346z"></path>
</svg>
