<!-- Generated by IcoMoon.io -->
<svg version="1.1" xmlns="http://www.w3.org/2000/svg" width="32" height="32" viewBox="0 0 32 32">
<title>Transfer</title>
<path d="M16 5.333c5.891 0 10.667 4.776 10.667 10.667s-4.776 10.667-10.667 10.667c-5.891 0-10.667-4.776-10.667-10.667s4.776-10.667 10.667-10.667zM12.928 16.325c-0.379-0.434-0.993-0.434-1.371 0v0l-1.939 2.222c-0.282 0.323-0.37 0.826-0.191 1.26 0.103 0.249 0.070 0.174 2.13 2.534 0.189 0.217 0.437 0.325 0.686 0.325 0.856 0 1.298-1.195 0.686-1.897v0l-0.284-0.325h6.387c0.536 0 0.97-0.497 0.97-1.111s-0.434-1.111-0.97-1.111v0h-6.387l0.284-0.325c0.379-0.434 0.379-1.137 0-1.571zM20.444 9.659c-0.379-0.434-0.993-0.434-1.371 0s-0.379 1.137 0 1.571v0l0.284 0.325h-6.387c-0.536 0-0.97 0.498-0.97 1.111s0.434 1.111 0.97 1.111v0h6.387l-0.284 0.325c-0.613 0.702-0.17 1.897 0.686 1.897 0.248 0 0.496-0.108 0.686-0.325v0l1.939-2.222c0.35-0.4 0.382-1.047 0.065-1.49-0.045-0.062 0.123 0.133-2.004-2.304z"></path>
</svg>
