<!-- Generated by IcoMoon.io -->
<svg version="1.1" xmlns="http://www.w3.org/2000/svg" width="32" height="32" viewBox="0 0 32 32">
<title>trash</title>
<path d="M23.793 6.439h-4.425l-1.106-1.106h-4.425l-1.106 1.106h-4.425c-0.664 0-1.106 0.442-1.106 1.106s0.442 1.106 1.106 1.106h15.486c0.664 0 1.106-0.442 1.106-1.106s-0.442-1.106-1.106-1.106zM8.306 24.612c0 1.13 0.996 2.054 2.212 2.054h11.062c1.217 0 2.212-0.924 2.212-2.054v-13.353h-15.486v13.353zM18.578 13.63h1.659v10.667h-1.659v-10.667zM11.957 13.63h1.659v10.667h-1.659v-10.667z"></path>
</svg>
