<!-- Generated by IcoMoon.io -->
<svg version="1.1" xmlns="http://www.w3.org/2000/svg" width="32" height="32" viewBox="0 0 32 32">
<title>User-Management</title>
<path d="M16 5.333c-5.891 0-10.667 4.775-10.667 10.667s4.775 10.667 10.667 10.667c5.891 0 10.667-4.775 10.667-10.667s-4.775-10.667-10.667-10.667zM16 8.267c1.915 0 3.467 1.552 3.467 3.467s-1.552 3.467-3.467 3.467c-1.915 0-3.467-1.552-3.467-3.467s1.552-3.467 3.467-3.467zM16 24.533c-2.955 0-5.557-1.502-7.089-3.783 1.196-1.739 5.005-2.617 7.089-2.617s5.893 0.878 7.089 2.617c-1.532 2.282-4.134 3.783-7.089 3.783z"></path>
</svg>
