<!-- Generated by IcoMoon.io -->
<svg version="1.1" xmlns="http://www.w3.org/2000/svg" width="32" height="32" viewBox="0 0 32 32">
<title>wheel</title>
<path d="M16 5.333c-5.867 0-10.667 4.8-10.667 10.667s4.8 10.667 10.667 10.667c5.867 0 10.667-4.8 10.667-10.667s-4.8-10.667-10.667-10.667zM14.933 7.531c0.352-0.043 0.704-0.064 1.067-0.064s0.715 0.021 1.067 0.064v3.136h-2.133v-3.136zM9.205 10.848l2.688 1.547-1.067 1.856-2.688-1.557c0.277-0.661 0.64-1.28 1.067-1.845zM9.205 21.152c-0.427-0.565-0.789-1.184-1.067-1.845l2.709-1.568 1.067 1.845-2.709 1.568zM17.067 24.469c-0.352 0.043-0.704 0.064-1.067 0.064s-0.715-0.021-1.067-0.064v-3.136h2.133v3.136zM16 18.133c-1.179 0-2.133-0.955-2.133-2.133s0.955-2.133 2.133-2.133c1.179 0 2.133 0.955 2.133 2.133s-0.955 2.133-2.133 2.133zM22.795 10.848c0.427 0.565 0.789 1.184 1.067 1.845l-2.699 1.557-1.067-1.845 2.699-1.557zM22.795 21.152l-2.677-1.547 1.067-1.845 2.677 1.547c-0.277 0.661-0.64 1.28-1.067 1.845z"></path>
</svg>
