<!-- Generated by IcoMoon.io -->
<svg version="1.1" xmlns="http://www.w3.org/2000/svg" width="32" height="32" viewBox="0 0 32 32">
<title>working</title>
<path d="M26.36 18.988c-0.371-0.273-0.874-0.161-1.122 0.249-3.625 5.979-10.87 7.33-15.995 3.439l1.122-1.142c0.142-0.144 0.089-0.403-0.095-0.465l-4.563-1.557c-0.184-0.063-0.361 0.118-0.319 0.324l1.044 5.139c0.042 0.207 0.272 0.285 0.413 0.141l1.18-1.201c5.898 4.75 14.368 3.219 18.556-3.69 0.249-0.41 0.149-0.964-0.222-1.236z"></path>
<path d="M6.704 12.601c3.729-5.915 10.997-7.139 16.053-3.159l-1.142 1.122c-0.144 0.142-0.096 0.401 0.087 0.467l4.535 1.636c0.183 0.066 0.363-0.111 0.324-0.319l-0.954-5.156c-0.038-0.208-0.267-0.29-0.411-0.148l-1.201 1.181c-5.814-4.852-14.309-3.469-18.618 3.366-0.256 0.406-0.166 0.961 0.2 1.24s0.871 0.176 1.127-0.229z"></path>
<path d="M22.26 14.785l-0.614-0.059c-0.181-0.018-0.334-0.143-0.387-0.318-0.106-0.35-0.245-0.684-0.415-1.001-0.086-0.161-0.067-0.358 0.049-0.498l0.393-0.476c0.148-0.179 0.135-0.44-0.029-0.604l-1.086-1.086c-0.164-0.164-0.425-0.176-0.604-0.029l-0.476 0.393c-0.141 0.116-0.338 0.135-0.498 0.049-0.317-0.17-0.651-0.309-1.001-0.415-0.175-0.053-0.3-0.206-0.318-0.387l-0.059-0.614c-0.022-0.23-0.216-0.407-0.448-0.407h-1.535c-0.232 0-0.426 0.176-0.448 0.407l-0.059 0.614c-0.018 0.181-0.143 0.334-0.318 0.387-0.35 0.106-0.684 0.245-1.001 0.415-0.161 0.086-0.358 0.067-0.498-0.049l-0.476-0.393c-0.179-0.148-0.44-0.135-0.604 0.029l-1.086 1.086c-0.164 0.164-0.176 0.425-0.029 0.604l0.393 0.476c0.116 0.141 0.135 0.338 0.049 0.498-0.17 0.317-0.309 0.651-0.415 1.001-0.053 0.175-0.206 0.3-0.387 0.318l-0.614 0.059c-0.231 0.022-0.407 0.216-0.407 0.448v1.535c0 0.232 0.176 0.426 0.407 0.448l0.614 0.059c0.181 0.018 0.334 0.143 0.387 0.318 0.106 0.349 0.245 0.684 0.415 1 0.086 0.161 0.067 0.358-0.049 0.499l-0.393 0.476c-0.148 0.179-0.135 0.44 0.029 0.605l1.085 1.085c0.164 0.164 0.425 0.176 0.604 0.029l0.476-0.393c0.141-0.116 0.338-0.135 0.498-0.049 0.317 0.17 0.651 0.309 1.001 0.415 0.175 0.053 0.3 0.206 0.318 0.387l0.059 0.614c0.022 0.23 0.216 0.407 0.448 0.407h1.535c0.232 0 0.426-0.176 0.448-0.407l0.059-0.614c0.018-0.181 0.143-0.334 0.318-0.387 0.349-0.106 0.684-0.245 1.001-0.415 0.161-0.086 0.358-0.067 0.498 0.049l0.476 0.393c0.179 0.148 0.44 0.135 0.604-0.029l1.085-1.085c0.164-0.164 0.177-0.426 0.029-0.605l-0.393-0.476c-0.116-0.141-0.135-0.338-0.049-0.499 0.17-0.316 0.309-0.651 0.415-1 0.053-0.175 0.206-0.3 0.387-0.318l0.614-0.059c0.231-0.022 0.407-0.216 0.407-0.448v-1.535c0-0.232-0.176-0.426-0.407-0.448zM16 18.667c-1.473 0-2.667-1.194-2.667-2.667s1.194-2.667 2.667-2.667c1.473 0 2.667 1.194 2.667 2.667s-1.194 2.667-2.667 2.667z"></path>
<path d="M16 14.667c-0.735 0-1.333 0.598-1.333 1.333s0.598 1.333 1.333 1.333c0.735 0 1.333-0.598 1.333-1.333s-0.598-1.333-1.333-1.333z"></path>
</svg>
