<!-- Generated by IcoMoon.io -->
<svg version="1.1" xmlns="http://www.w3.org/2000/svg" width="32" height="32" viewBox="0 0 32 32">
<title>app-1</title>
<path d="M6.519 5.333c-0.654 0-1.185 0.531-1.185 1.185v2.37c0 0.654 0.531 1.185 1.185 1.185h2.37c0.654 0 1.185-0.531 1.185-1.185v-2.37c0-0.654-0.531-1.185-1.185-1.185h-2.37zM14.815 5.333c-0.654 0-1.185 0.531-1.185 1.185v2.37c0 0.654 0.531 1.185 1.185 1.185h2.37c0.654 0 1.185-0.531 1.185-1.185v-2.37c0-0.654-0.531-1.185-1.185-1.185h-2.37zM23.111 5.333c-0.654 0-1.185 0.531-1.185 1.185v2.37c0 0.654 0.531 1.185 1.185 1.185h2.37c0.654 0 1.185-0.531 1.185-1.185v-2.37c0-0.654-0.531-1.185-1.185-1.185h-2.37zM6.519 13.63c-0.654 0-1.185 0.531-1.185 1.185v2.37c0 0.654 0.531 1.185 1.185 1.185h2.37c0.654 0 1.185-0.531 1.185-1.185v-2.37c0-0.654-0.531-1.185-1.185-1.185h-2.37zM14.815 13.63c-0.654 0-1.185 0.531-1.185 1.185v2.37c0 0.654 0.531 1.185 1.185 1.185h2.37c0.654 0 1.185-0.531 1.185-1.185v-2.37c0-0.654-0.531-1.185-1.185-1.185h-2.37zM23.111 13.63c-0.654 0-1.185 0.531-1.185 1.185v2.37c0 0.654 0.531 1.185 1.185 1.185h2.37c0.654 0 1.185-0.531 1.185-1.185v-2.37c0-0.654-0.531-1.185-1.185-1.185h-2.37zM6.519 21.926c-0.654 0-1.185 0.531-1.185 1.185v2.37c0 0.654 0.531 1.185 1.185 1.185h2.37c0.654 0 1.185-0.531 1.185-1.185v-2.37c0-0.654-0.531-1.185-1.185-1.185h-2.37zM14.815 21.926c-0.654 0-1.185 0.531-1.185 1.185v2.37c0 0.654 0.531 1.185 1.185 1.185h2.37c0.654 0 1.185-0.531 1.185-1.185v-2.37c0-0.654-0.531-1.185-1.185-1.185h-2.37zM23.111 21.926c-0.654 0-1.185 0.531-1.185 1.185v2.37c0 0.654 0.531 1.185 1.185 1.185h2.37c0.654 0 1.185-0.531 1.185-1.185v-2.37c0-0.654-0.531-1.185-1.185-1.185h-2.37z"></path>
</svg>
