<!-- Generated by IcoMoon.io -->
<svg version="1.1" xmlns="http://www.w3.org/2000/svg" width="32" height="32" viewBox="0 0 32 32">
<title>Camera</title>
<path d="M11.2 6.667c-0.661 0-1.2 0.539-1.2 1.2v1.2c0 0.661-0.539 1.2-1.2 1.2h-2.4c-1.322 0-2.4 1.078-2.4 2.4v10.8c0 1.322 1.078 2.4 2.4 2.4h19.2c1.322 0 2.4-1.078 2.4-2.4v-10.8c0-1.322-1.078-2.4-2.4-2.4h-2.4c-0.661 0-1.2-0.539-1.2-1.2v-1.2c0-0.661-0.539-1.2-1.2-1.2h-9.6zM16 11.167c3.473 0 6.3 2.827 6.3 6.3s-2.827 6.3-6.3 6.3c-3.473 0-6.3-2.827-6.3-6.3s2.827-6.3 6.3-6.3zM25 12.067c0.661 0 1.2 0.539 1.2 1.2s-0.539 1.2-1.2 1.2c-0.661 0-1.2-0.539-1.2-1.2s0.539-1.2 1.2-1.2zM16 12.667c-2.653 0-4.8 2.147-4.8 4.8s2.147 4.8 4.8 4.8c2.653 0 4.8-2.147 4.8-4.8s-2.147-4.8-4.8-4.8z"></path>
</svg>
