<!-- Generated by IcoMoon.io -->
<svg version="1.1" xmlns="http://www.w3.org/2000/svg" width="32" height="32" viewBox="0 0 32 32">
<title>iCarCoins</title>
<path d="M16 28c-6.627 0-12-5.373-12-12s5.373-12 12-12c6.627 0 12 5.373 12 12s-5.373 12-12 12zM13.333 18.667v2.534h1.642v-10.402h-1.642v2.534h-1.333v1.569h1.333v2.196h-1.333v1.569h1.333zM18.726 21.332l-0.001 0.001c0.692 0.010 1.357-0.251 1.841-0.721 0.511-0.481 0.767-1.067 0.767-1.759v-1.449h-1.709v1.432c0.005 0.241-0.096 0.472-0.278 0.639-0.186 0.174-0.41 0.262-0.674 0.262-0.251 0.004-0.491-0.092-0.666-0.263-0.183-0.174-0.276-0.387-0.276-0.638v-5.709c-0.004-0.241 0.095-0.473 0.276-0.641 0.173-0.173 0.414-0.269 0.666-0.266 0.254-0.004 0.498 0.093 0.674 0.266 0.182 0.168 0.283 0.4 0.278 0.641v1.213h1.708v-1.186c0-0.684-0.253-1.269-0.758-1.756s-1.121-0.73-1.848-0.73c-0.694-0.010-1.362 0.254-1.845 0.728-0.512 0.485-0.767 1.072-0.767 1.759v5.698c-0.012 0.66 0.263 1.296 0.761 1.756 0.486 0.474 1.156 0.736 1.852 0.724z"></path>
</svg>
