<!-- Generated by IcoMoon.io -->
<svg version="1.1" xmlns="http://www.w3.org/2000/svg" width="32" height="32" viewBox="0 0 32 32">
<title>iCarCoins-Color</title>
<path fill="#ffc500" d="M28 16c0 6.627-5.373 12-12 12s-12-5.373-12-12c0-6.627 5.373-12 12-12s12 5.373 12 12z"></path>
<path fill="#344251" d="M14.975 21.201h-1.642v-10.402h1.642v10.402h-0.001zM18.726 21.332c-0.696 0.012-1.366-0.25-1.852-0.724-0.498-0.46-0.773-1.096-0.761-1.756v-5.698c0-0.687 0.256-1.274 0.767-1.759 0.484-0.474 1.151-0.737 1.845-0.728 0.727 0 1.343 0.244 1.848 0.73s0.758 1.073 0.758 1.756v1.186h-1.708v-1.213c0.004-0.241-0.097-0.473-0.278-0.641-0.176-0.173-0.42-0.27-0.674-0.266-0.251-0.003-0.492 0.093-0.666 0.266-0.18 0.169-0.28 0.401-0.276 0.641v5.709c0 0.251 0.093 0.464 0.276 0.638 0.174 0.172 0.415 0.267 0.666 0.263 0.264 0 0.488-0.088 0.674-0.262 0.182-0.167 0.283-0.398 0.278-0.639v-1.432h1.709v1.449c0 0.692-0.257 1.278-0.767 1.759-0.484 0.47-1.149 0.731-1.841 0.721l0.001-0.001z"></path>
<path fill="#344251" d="M12 13.333h2.667v1.569h-2.667v-1.569zM12 17.098h2.667v1.569h-2.667v-1.569z"></path>
</svg>
