<!-- Generated by IcoMoon.io -->
<svg version="1.1" xmlns="http://www.w3.org/2000/svg" width="32" height="32" viewBox="0 0 32 32">
<title>Language</title>
<path d="M7.467 5.333c-1.179 0-2.133 0.955-2.133 2.133v12.8c0 1.179 0.955 2.133 2.133 2.133h14.933l4.267 4.267v-19.2c0-1.179-0.955-2.133-2.133-2.133h-17.067zM10.866 9.6h1.733l3.401 8.533h-2l-0.634-1.766h-3.266l-0.634 1.766h-2l3.399-8.533zM20.066 9.6h1.467v1.434h3.001v1.399c-0.217 1.85-1.045 3.229-2.4 4.166 0.367 0.059 0.75 0.1 1.167 0.1v1.434c-1.117 0-2.158-0.217-3.034-0.566-1.008 0.379-2.291 0.566-3.2 0.566v-1.434c0.409 0 1.117-0.042 1.567-0.133-0.809-0.724-1.567-2.258-1.567-3.299h1.5c0 0.787 0.804 2.183 1.766 2.733 1.412-0.675 2.325-1.871 2.601-3.567h-5.867v-1.399h2.999v-1.434zM11.733 11.766l-1.134 3.2h2.267l-1.133-3.2z"></path>
</svg>
