<!-- Generated by IcoMoon.io -->
<svg version="1.1" xmlns="http://www.w3.org/2000/svg" width="32" height="32" viewBox="0 0 32 32">
<title>Link</title>
<path d="M8.719 10c-3.333 0-6.053 2.719-6.053 6.053s2.719 6.053 6.053 6.053h4.825v-2.456h-4.825c-2.018 0-3.684-1.667-3.684-3.684s1.667-3.684 3.684-3.684h4.825v-2.281h-4.825zM18.456 10v2.456h4.825c2.018 0 3.684 1.667 3.684 3.684s-1.667 3.684-3.684 3.684h-4.825v2.456h4.825c3.333 0 6.053-2.719 6.053-6.053s-2.719-6.053-6.053-6.053h-4.825v-0.175zM9.947 14.825v2.456h12.193v-2.456h-12.193z"></path>
</svg>
