<!-- Generated by IcoMoon.io -->
<svg version="1.1" xmlns="http://www.w3.org/2000/svg" width="32" height="32" viewBox="0 0 32 32">
<title>check-success</title>
<path d="M27.503 15.27l-2.035-2.142 0.428-2.892c0.107-0.643-0.321-1.178-0.857-1.285l-2.999-0.428-1.392-2.57c-0.321-0.535-0.964-0.75-1.499-0.428l-2.57 1.178-2.677-1.285c-0.536-0.214-1.178 0-1.392 0.428l-1.392 2.677-2.892 0.428c-0.643 0.107-0.964 0.75-0.964 1.285l0.428 2.892-2.035 2.142c-0.428 0.428-0.428 1.071 0 1.499l2.035 2.142-0.428 2.892c-0.107 0.643 0.321 1.178 0.857 1.285l2.999 0.428 1.392 2.57c0.321 0.535 0.964 0.75 1.499 0.428l2.677-1.285 2.677 1.285c0.535 0.214 1.178 0 1.499-0.428l1.392-2.57 2.892-0.535c0.535-0.107 0.964-0.643 0.857-1.285l-0.428-2.892 2.035-2.142c0.321-0.321 0.321-0.964-0.107-1.392zM15.293 20.732l-4.070-3.963 1.499-1.499 2.463 2.463 5.676-5.676 1.499 1.499-7.068 7.176z"></path>
</svg>
