<!-- Generated by IcoMoon.io -->
<svg version="1.1" xmlns="http://www.w3.org/2000/svg" width="32" height="32" viewBox="0 0 32 32">
<title>cooperate</title>
<path d="M8.933 4c-1.325 0-2.4 1.074-2.4 2.4s1.074 2.4 2.4 2.4c1.325 0 2.4-1.074 2.4-2.4s-1.074-2.4-2.4-2.4zM23.334 4c-1.325 0-2.4 1.074-2.4 2.4s1.074 2.4 2.4 2.4c1.325 0 2.4-1.074 2.4-2.4s-1.074-2.4-2.4-2.4zM7.733 11.2c-1.326 0-2.4 1.074-2.4 2.4v14.4h2.4v-7.2h2.4v7.2h2.4v-11.796l3.6 3.602 3.6-3.602v11.796h2.4v-7.2h2.4v7.2h2.4v-14.4c0-1.326-1.074-2.4-2.4-2.4h-2.4c-0.668 0-1.269 0.273-1.704 0.713l-0.002-0.002-4.294 4.296-4.334-4.336-0.005 0.005c-0.431-0.416-1.015-0.675-1.662-0.675h-2.398z"></path>
</svg>
