<!-- Generated by IcoMoon.io -->
<svg version="1.1" xmlns="http://www.w3.org/2000/svg" width="32" height="32" viewBox="0 0 32 32">
<title>cross-circle</title>
<path d="M16 5.333c-5.878 0-10.667 4.79-10.667 10.667s4.79 10.667 10.667 10.667c5.878 0 10.667-4.79 10.667-10.667s-4.79-10.667-10.667-10.667zM22.731 21.227c-0.426 0.566-0.938 1.078-1.504 1.504l-5.227-5.227-5.227 5.227c-0.566-0.426-1.078-0.938-1.504-1.504l5.227-5.227-5.227-5.227c0.426-0.566 0.938-1.078 1.504-1.504l5.227 5.227 5.227-5.227c0.566 0.426 1.078 0.938 1.504 1.504l-5.227 5.227 5.227 5.227z"></path>
</svg>
