<!-- Generated by IcoMoon.io -->
<svg version="1.1" xmlns="http://www.w3.org/2000/svg" width="32" height="32" viewBox="0 0 32 32">
<title>favorite-outline</title>
<path d="M16.113 24.038c5.746-5.183 9.521-8.62 9.521-12.113 0-2.423-1.803-4.169-4.226-4.169-1.86 0-3.662 1.183-4.282 2.817h-2.253c-0.62-1.634-2.423-2.817-4.282-2.817-2.423 0-4.226 1.747-4.226 4.169 0 3.493 3.775 6.93 9.521 12.113l0.113 0.113 0.113-0.113zM21.408 5.334c3.718 0 6.592 2.874 6.592 6.592 0 4.564-4.056 8.225-10.253 13.859l-1.747 1.577-1.747-1.522c-6.197-5.634-10.253-9.352-10.253-13.915 0-3.718 2.874-6.592 6.592-6.592 2.085 0 4.113 1.014 5.408 2.536 1.296-1.522 3.324-2.536 5.408-2.536v0.001z"></path>
</svg>
