<!-- Generated by IcoMoon.io -->
<svg version="1.1" xmlns="http://www.w3.org/2000/svg" width="32" height="32" viewBox="0 0 32 32">
<title>Invisible</title>
<path d="M8.246 21.924c-3.001-2.544-4.246-5.864-4.246-5.864s3.273-8.727 12-8.727c2.3 0 4.221 0.606 5.803 1.499l3.821-3.69c0.53-0.512 1.374-0.497 1.885 0.033s0.497 1.374-0.033 1.885l-3.472 3.353c2.82 2.512 3.996 5.646 3.996 5.646s-3.273 8.727-12 8.727c-2.155 0-3.977-0.532-5.5-1.333l-4.124 3.983c-0.53 0.512-1.374 0.497-1.885-0.033s-0.497-1.374 0.033-1.885l3.723-3.595zM19.021 11.519c-0.865-0.577-1.904-0.913-3.021-0.913-3.012 0-5.455 2.443-5.455 5.455 0 1.049 0.296 2.029 0.81 2.861l1.633-1.577c-0.168-0.394-0.261-0.828-0.261-1.284 0-1.807 1.465-3.273 3.273-3.273 0.496 0 0.967 0.11 1.388 0.308l1.633-1.577zM20.814 13.495l-1.68 1.622c0.090 0.299 0.138 0.616 0.138 0.944 0 1.807-1.465 3.273-3.273 3.273-0.368 0-0.722-0.061-1.053-0.173l-1.68 1.622c0.803 0.466 1.737 0.733 2.732 0.733 3.012 0 5.455-2.443 5.455-5.455 0-0.928-0.232-1.801-0.64-2.566z"></path>
</svg>
