<!-- Generated by IcoMoon.io -->
<svg version="1.1" xmlns="http://www.w3.org/2000/svg" width="32" height="32" viewBox="0 0 32 32">
<title>print</title>
<path d="M25.943 15.131c-0.483-0.458-1.062-0.687-1.737-0.687h-0.82v-3.111c0-0.324-0.086-0.681-0.257-1.069s-0.376-0.697-0.615-0.924l-1.949-1.847c-0.239-0.227-0.564-0.421-0.974-0.583s-0.786-0.243-1.128-0.243h-8.616c-0.342 0-0.633 0.113-0.872 0.34s-0.359 0.502-0.359 0.826v6.611h-0.82c-0.675 0-1.254 0.229-1.737 0.687s-0.724 1.007-0.724 1.647v5.056c0 0.105 0.041 0.196 0.122 0.274s0.177 0.115 0.288 0.115h2.872v1.944c0 0.324 0.12 0.6 0.359 0.826s0.53 0.34 0.872 0.34h12.308c0.342 0 0.633-0.114 0.872-0.34s0.359-0.502 0.359-0.826v-1.944h2.872c0.111 0 0.207-0.038 0.288-0.115s0.122-0.168 0.122-0.274v-5.056c0-0.64-0.241-1.189-0.724-1.647zM21.744 23.778h-11.487v-3.111h11.487v3.111zM21.744 16h-11.487v-7.778h8.205v1.944c0 0.324 0.12 0.599 0.359 0.826s0.53 0.34 0.872 0.34h2.051v4.667zM24.782 17.325c-0.162 0.154-0.355 0.231-0.577 0.231s-0.415-0.077-0.577-0.231c-0.162-0.154-0.243-0.336-0.243-0.547s0.081-0.393 0.243-0.547c0.162-0.154 0.355-0.231 0.577-0.231s0.415 0.077 0.577 0.231c0.162 0.154 0.244 0.336 0.244 0.547s-0.081 0.393-0.244 0.547z"></path>
</svg>
