<!-- Generated by IcoMoon.io -->
<svg version="1.1" xmlns="http://www.w3.org/2000/svg" width="32" height="32" viewBox="0 0 32 32">
<title>search</title>
<path d="M13.283 18.774c3.031 0 5.491-2.459 5.491-5.491s-2.459-5.491-5.491-5.491c-3.031 0-5.491 2.459-5.491 5.491s2.459 5.491 5.491 5.491zM20.604 18.774l6.063 6.063-1.83 1.83-6.063-6.063v-0.972l-0.343-0.343c-1.373 1.201-3.203 1.887-5.147 1.887-4.404 0-7.95-3.489-7.95-7.893s3.546-7.95 7.95-7.95c4.403 0 7.893 3.546 7.893 7.95 0 1.945-0.686 3.774-1.887 5.147l0.343 0.343h0.972z"></path>
</svg>
