<!-- Generated by IcoMoon.io -->
<svg version="1.1" xmlns="http://www.w3.org/2000/svg" width="32" height="32" viewBox="0 0 32 32">
<title>settings</title>
<path d="M16.071 19.756c2.053 0 3.756-1.702 3.756-3.756s-1.702-3.756-3.756-3.756c-2.053 0-3.756 1.702-3.756 3.756s1.702 3.756 3.756 3.756zM24.033 17.052l2.254 1.753c0.2 0.151 0.251 0.451 0.1 0.701l-2.154 3.705c-0.151 0.251-0.401 0.3-0.651 0.2l-2.654-1.052c-0.551 0.401-1.152 0.801-1.803 1.052l-0.401 2.804c-0.050 0.251-0.251 0.451-0.501 0.451h-4.306c-0.251 0-0.451-0.2-0.501-0.451l-0.401-2.804c-0.651-0.251-1.252-0.601-1.803-1.052l-2.654 1.052c-0.251 0.1-0.501 0.050-0.651-0.2l-2.154-3.705c-0.151-0.251-0.1-0.551 0.1-0.701l2.254-1.753c-0.050-0.351-0.050-0.701-0.050-1.052s0-0.701 0.050-1.052l-2.254-1.753c-0.2-0.151-0.251-0.451-0.1-0.701l2.154-3.705c0.151-0.251 0.401-0.3 0.651-0.2l2.654 1.052c0.551-0.401 1.152-0.801 1.803-1.052l0.401-2.804c0.050-0.251 0.251-0.451 0.501-0.451h4.306c0.251 0 0.451 0.2 0.501 0.451l0.401 2.804c0.651 0.251 1.252 0.601 1.803 1.052l2.654-1.052c0.251-0.1 0.501-0.050 0.651 0.2l2.154 3.705c0.151 0.251 0.1 0.551-0.1 0.701l-2.254 1.753c0.050 0.351 0.050 0.701 0.050 1.052s0 0.701-0.050 1.052z"></path>
</svg>
