<!-- Generated by IcoMoon.io -->
<svg version="1.1" xmlns="http://www.w3.org/2000/svg" width="32" height="32" viewBox="0 0 32 32">
<title>share</title>
<path d="M23.111 20.867c1.889 0 3.444 1.556 3.444 3.444s-1.556 3.5-3.444 3.5c-1.889 0-3.444-1.612-3.444-3.5 0-0.278 0-0.556 0.056-0.778l-8.389-4.889c-0.667 0.612-1.5 0.945-2.444 0.945-1.945 0-3.556-1.612-3.556-3.556s1.612-3.556 3.556-3.556c0.945 0 1.778 0.333 2.444 0.945l8.333-4.834c-0.056-0.278-0.111-0.556-0.111-0.834 0-1.945 1.612-3.556 3.556-3.556s3.556 1.612 3.556 3.556c0 1.944-1.612 3.556-3.556 3.556-0.945 0-1.778-0.389-2.444-1l-8.333 4.889c0.056 0.278 0.111 0.556 0.111 0.834s-0.056 0.556-0.111 0.834l8.444 4.889c0.612-0.556 1.444-0.889 2.333-0.889v-0.001z"></path>
</svg>
