<!-- Generated by IcoMoon.io -->
<svg version="1.1" xmlns="http://www.w3.org/2000/svg" width="32" height="32" viewBox="0 0 32 32">
<title>Tools</title>
<path d="M14.646 10.881c0.51-1.824 0.047-3.862-1.384-5.297-1.427-1.42-3.444-1.886-5.255-1.394l3.071 3.072-0.807 3.006-3.010 0.805-3.073-3.069c-0.489 1.813-0.023 3.828 1.402 5.254 1.49 1.493 3.641 1.932 5.522 1.319l0.018 0.017 12.633 12.633c0.5 0.499 1.155 0.751 1.81 0.751 0.656 0 1.309-0.252 1.81-0.751 0.999-0.997 0.999-2.617 0-3.62l-12.738-12.726zM25.794 26.797c-0.538 0-0.973-0.437-0.973-0.978s0.435-0.977 0.973-0.977c0.543 0 0.982 0.437 0.982 0.977s-0.439 0.978-0.982 0.978z"></path>
</svg>
