<svg xmlns="http://www.w3.org/2000/svg"><symbol id="icon--camera" viewBox="0 0 32 32">
<title>camera</title>
<path d="M16 22.692c2.955 0 5.359-2.404 5.359-5.359s-2.404-5.359-5.359-5.359c-2.955 0-5.359 2.404-5.359 5.359s2.404 5.359 5.359 5.359zM12.795 6.667h6.41l1.953 2.103h3.405c1.152 0 2.103 1.002 2.103 2.154v12.82c0 1.152-0.952 2.154-2.103 2.154h-17.127c-1.152 0-2.103-1.002-2.103-2.154v-12.82c0-1.152 0.952-2.154 2.103-2.154h3.405l1.953-2.103zM12.594 17.333c0-1.903 1.502-3.405 3.405-3.405s3.405 1.502 3.405 3.405c0 1.903-1.502 3.405-3.405 3.405s-3.405-1.502-3.405-3.405z"/>
</symbol><symbol id="icon--device-desktop" viewBox="0 0 32 32">
<title>device-desktop</title>
<path d="M25.804 18.405v-10.927h-19.607v10.927h19.607zM25.804 5.333c1.175 0 2.196 0.971 2.196 2.145v13.071c0 1.175-1.021 2.196-2.196 2.196h-7.608l2.145 3.268v1.073h-8.68v-1.073l2.145-3.268h-7.608c-1.175 0-2.196-1.021-2.196-2.196v-13.071c0-1.175 1.021-2.145 2.196-2.145h19.608z"/>
</symbol><symbol id="icon--device-phone" viewBox="0 0 32 32">
<title>device-phone</title>
<path d="M21.661 22.536v-15.268h-11.438v15.268h11.438zM18.138 25.804v-1.073h-4.392v1.073h4.392zM20.282 4c1.788 0 3.268 1.481 3.268 3.268v17.464c0 1.788-1.481 3.268-3.268 3.268h-8.681c-1.788 0-3.268-1.481-3.268-3.268v-17.464c0-1.788 1.481-3.268 3.268-3.268h8.681z"/>
</symbol><symbol id="icon--device-tablet" viewBox="0 0 32 32">
<title>device-tablet</title>
<path d="M23.636 22.984v-15.984h-15v15.984h15zM16.136 27.015c0.844 0 1.5-0.656 1.5-1.5s-0.656-1.5-1.5-1.5c-0.844 0-1.5 0.656-1.5 1.5s0.656 1.5 1.5 1.5v0zM23.167 4c1.36 0 2.485 1.125 2.485 2.485v19.031c0 1.36-1.125 2.485-2.485 2.485h-14.016c-1.36 0-2.485-1.125-2.485-2.485v-19.031c0-1.36 1.125-2.485 2.485-2.485h14.016z"/>
</symbol><symbol id="icon--folder" viewBox="0 0 32 32">
<title>folder</title>
<path d="M13.846 8l2.154 2.154h8.564c1.152 0 2.103 1.002 2.103 2.154v10.667c0 1.152-0.952 2.154-2.103 2.154h-17.127c-1.152 0-2.103-1.002-2.103-2.154v-12.82c0-1.152 0.952-2.154 2.103-2.154l6.409-0.001z"/>
</symbol><symbol id="icon--photo" viewBox="0 0 32 32">
<title>photo</title>
<path d="M11.834 17.777l-4.111 5.333h16.555l-5.333-7.111-4.111 5.333-3-3.555zM26.667 24.277c0 1.278-1.111 2.389-2.389 2.389h-16.555c-1.278 0-2.389-1.111-2.389-2.389v-16.555c0-1.278 1.111-2.389 2.389-2.389h16.555c1.278 0 2.389 1.111 2.389 2.389v16.555z"/>
</symbol><symbol id="icon--play" viewBox="0 0 32 32">
<title>play</title>
<path d="M13.847 20.807l6.41-4.807-6.41-4.807v9.615zM16 5.333c5.909 0 10.667 4.758 10.667 10.667s-4.758 10.667-10.667 10.667c-5.909 0-10.667-4.758-10.667-10.667s4.758-10.667 10.667-10.667z"/>
</symbol><symbol id="icon--video-camera" viewBox="0 0 32 32">
<title>video-camera</title>
<path d="M21.743 12.764v-3.077c0-1.23-1.026-2.154-2.154-2.154h-13.435c-1.231 0-2.154 0.923-2.154 2.154v12.717c0 1.23 1.026 2.154 2.154 2.154h13.435c1.23 0 2.154-0.923 2.154-2.154v-3.077l6.256 3.897v-14.358c0.102 0-6.256 3.897-6.256 3.897v0.001z"/>
</symbol><symbol id="icon--video" viewBox="0 0 32 32">
<title>video</title>
<path d="M23.211 6.667h4.789v16.846c0 1.296-1.071 2.423-2.366 2.423h-19.268c-1.296 0-2.366-1.127-2.366-2.423v-14.423c0-1.296 1.071-2.423 2.366-2.423h1.239l2.366 4.845h3.606l-2.366-4.845h2.366l2.423 4.845h3.606l-2.423-4.845h2.423l2.423 4.845h3.606l-2.424-4.845z"/>
</symbol></svg>