<svg xmlns="http://www.w3.org/2000/svg"><symbol id="icon--applicator" viewBox="0 0 32 32">
<title>applicator</title>
<path d="M18.426 19.459c-0.371 0.464-0.852 0.776-1.41 0.936-0.245 0.067-0.355 0.202-0.343 0.464 0.012 0.257 0 0.519 0 0.776 0 0.232-0.114 0.354-0.334 0.358-0.269 0.008-0.538 0.008-0.807 0-0.236-0.004-0.347-0.143-0.351-0.38-0.004-0.19-0.004-0.38-0.004-0.565-0.004-0.418-0.016-0.434-0.403-0.498-0.497-0.080-0.982-0.198-1.435-0.426-0.355-0.177-0.391-0.27-0.289-0.658 0.077-0.287 0.151-0.578 0.24-0.861 0.102-0.329 0.188-0.371 0.481-0.215 0.501 0.27 1.035 0.422 1.594 0.494 0.359 0.046 0.713 0.008 1.048-0.143 0.624-0.283 0.721-1.029 0.196-1.476-0.179-0.152-0.383-0.266-0.595-0.363-0.546-0.249-1.117-0.439-1.631-0.759-0.836-0.519-1.366-1.227-1.305-2.282 0.069-1.189 0.722-1.932 1.773-2.328 0.436-0.165 0.436-0.156 0.44-0.628v-0.477c0.008-0.354 0.065-0.418 0.408-0.426 0.106-0.004 0.212 0 0.318 0 0.726 0 0.726 0 0.73 0.751 0.004 0.531 0 0.536 0.514 0.616 0.391 0.063 0.766 0.186 1.129 0.35 0.2 0.093 0.277 0.236 0.216 0.456-0.090 0.325-0.175 0.654-0.277 0.974-0.094 0.304-0.187 0.35-0.473 0.207-0.567-0.283-1.162-0.401-1.79-0.367-0.163 0.008-0.326 0.034-0.477 0.101-0.542 0.245-0.632 0.865-0.167 1.244 0.232 0.194 0.501 0.333 0.779 0.451 0.481 0.207 0.962 0.401 1.419 0.662 1.439 0.839 1.83 2.725 0.807 4.011v0zM26.802 12.4c0.659 0 1.198-0.539 1.198-1.198v-0.004c0-0.659-0.539-1.198-1.198-1.198h-1.802v-0.864c0-1.175-0.961-2.136-2.136-2.136h-0.864v-1.802c0-0.659-0.539-1.198-1.198-1.198h-0.004c-0.659 0-1.198 0.539-1.198 1.198v1.802h-2.4v-1.802c0-0.659-0.539-1.198-1.198-1.198h-0.004c-0.659 0-1.198 0.539-1.198 1.198v1.802h-2.4v-1.802c0-0.659-0.539-1.198-1.198-1.198h-0.004c-0.659 0-1.198 0.539-1.198 1.198v1.802h-0.864c-1.175 0-2.136 0.961-2.136 2.136v0.864h-1.802c-0.659 0-1.198 0.539-1.198 1.198v0.004c0 0.659 0.539 1.198 1.198 1.198h1.802v2.4h-1.802c-0.659 0-1.198 0.539-1.198 1.198v0.004c0 0.659 0.539 1.198 1.198 1.198h1.802v2.4h-1.802c-0.659 0-1.198 0.539-1.198 1.198v0.004c0 0.659 0.539 1.198 1.198 1.198h1.802v0.864c0 1.175 0.961 2.136 2.136 2.136h0.864v1.802c0 0.659 0.539 1.198 1.198 1.198h0.004c0.659 0 1.198-0.539 1.198-1.198v-1.802h2.4v1.802c0 0.659 0.539 1.198 1.198 1.198h0.004c0.659 0 1.198-0.539 1.198-1.198v-1.802h2.4v1.802c0 0.659 0.539 1.198 1.198 1.198h0.004c0.659 0 1.198-0.539 1.198-1.198v-1.802h0.864c1.175 0 2.136-0.961 2.136-2.136v-0.864h1.802c0.659 0 1.198-0.539 1.198-1.198v-0.004c0-0.659-0.539-1.198-1.198-1.198h-1.802v-2.4h1.802c0.659 0 1.198-0.539 1.198-1.198v-0.004c0-0.659-0.539-1.198-1.198-1.198h-1.802v-2.4h1.802z"/>
</symbol><symbol id="icon--blur-outline" viewBox="0 0 32 32">
<title>blur-outline</title>
<path d="M16.067 4c0 0-8.4 9.318-8.4 15.216 0 4.894 3.72 8.784 8.4 8.784s8.4-3.89 8.4-8.784c0-5.898-8.4-15.216-8.4-15.216zM16.067 25.804c-3.533 0-6.3-2.893-6.3-6.588 0-3.080 3.415-8.324 6.3-11.908 2.885 3.584 6.3 8.828 6.3 11.908 0 3.695-2.767 6.588-6.3 6.588v0z"/>
</symbol><symbol id="icon--brakes" viewBox="0 0 32 32">
<title>Brakes</title>
<path d="M5.867 6.667c-1.031 0-1.867 0.835-1.867 1.867v0.933c0 1.031 0.835 1.867 1.867 1.867h1.867c1.031 0 1.867-0.835 1.867-1.867v-0.933c0-1.031-0.835-1.867-1.867-1.867h-1.867zM13.333 6.667c-1.031 0-1.867 0.835-1.867 1.867v0.933c0 1.031 0.835 1.867 1.867 1.867h1.867c1.031 0 1.867-0.835 1.867-1.867v-0.933c0-1.031-0.835-1.867-1.867-1.867h-1.867zM24.533 6.667c-1.031 0-1.867 0.835-1.867 1.867v0.933c0 1.031 0.835 1.867 1.867 1.867h1.867c1.031 0 1.867-0.835 1.867-1.867v-0.933c0-1.031-0.835-1.867-1.867-1.867h-1.867zM6.785 12.254c-0.515 0.008-0.926 0.431-0.919 0.946v1.185c-0.577 0.333-0.933 0.949-0.933 1.615 0.001 0.666 0.357 1.28 0.933 1.613v1.187c-0.005 0.337 0.172 0.65 0.463 0.819s0.65 0.17 0.941 0c0.291-0.17 0.468-0.483 0.463-0.819v-1.185c0.282-0.164 0.517-0.399 0.68-0.682h4.24c0.163 0.283 0.398 0.518 0.68 0.682v1.185c-0.005 0.337 0.172 0.65 0.463 0.819s0.65 0.17 0.941 0c0.291-0.17 0.468-0.483 0.463-0.819v-1.187c0.281-0.164 0.515-0.398 0.678-0.68h7.973c0.164 0.282 0.399 0.517 0.682 0.68v1.187c-0.005 0.337 0.172 0.65 0.463 0.819s0.65 0.17 0.941 0c0.291-0.17 0.468-0.483 0.463-0.819v-1.185c0.577-0.333 0.933-0.949 0.933-1.615-0.001-0.666-0.357-1.28-0.933-1.613v-1.187c0.003-0.252-0.095-0.495-0.274-0.673s-0.422-0.277-0.674-0.273c-0.515 0.008-0.926 0.431-0.919 0.946v1.185c-0.282 0.164-0.517 0.399-0.68 0.682h-7.973c-0.163-0.283-0.398-0.518-0.68-0.682v-1.185c0.003-0.252-0.095-0.495-0.274-0.673s-0.422-0.277-0.674-0.273c-0.515 0.008-0.926 0.431-0.919 0.946v1.187c-0.281 0.164-0.515 0.398-0.678 0.68h-4.24c-0.164-0.282-0.399-0.517-0.682-0.68v-1.187c0.003-0.252-0.095-0.495-0.274-0.673s-0.422-0.277-0.674-0.273zM5.867 20.667c-1.031 0-1.867 0.835-1.867 1.867v0.933c0 1.031 0.835 1.867 1.867 1.867h1.867c1.031 0 1.867-0.835 1.867-1.867v-0.933c0-1.031-0.835-1.867-1.867-1.867h-1.867zM13.333 20.667c-1.031 0-1.867 0.835-1.867 1.867v0.933c0 1.031 0.835 1.867 1.867 1.867h1.867c1.031 0 1.867-0.835 1.867-1.867v-0.933c0-1.031-0.835-1.867-1.867-1.867h-1.867zM24.533 20.667c-1.031 0-1.867 0.835-1.867 1.867v0.933c0 1.031 0.835 1.867 1.867 1.867h1.867c1.031 0 1.867-0.835 1.867-1.867v-0.933c0-1.031-0.835-1.867-1.867-1.867h-1.867z"/>
</symbol><symbol id="icon--bulb" viewBox="0 0 32 32">
<title>bulb</title>
<path d="M16.081 28h-1.68c-0.12 0-0.24 0-0.24-0.12v-0.96c0-0.12 0-0.12 0.24-0.12h3.48c0.12 0 0.24 0 0.24 0.12v0.96c0 0.12 0 0.12-0.24 0.12h-1.8zM16.081 22.72h-2.4c-0.6 0-0.6 0-0.48 0.6 0 0.36 0.24 0.6 0.6 0.6h4.68c0.36 0 0.6-0.24 0.6-0.72v-0.24c0-0.12 0-0.24-0.24-0.24h-2.76zM12.721 12.4l0.84-0.84c0.12-0.12 0.24-0.12 0.36 0l2.040 2.040c0.12 0 0.12 0.12 0.24-0.12l2.040-2.040c0.12-0.12 0.24-0.12 0.36 0 0.24 0.24 0.48 0.6 0.84 0.84 0.12 0.12 0 0.12-0.12 0.24l-2.4 2.4v6c0 0.12 0 0.24 0.24 0.24h1.92c0.12 0 0.24 0 0.24-0.24 0.24-1.44 0.96-2.64 1.92-3.72 1.68-1.8 2.28-3.84 1.8-6.24-0.84-3.6-4.44-6-8.16-5.28-2.64 0.48-4.44 2.040-5.28 4.56-0.84 2.64-0.24 4.92 1.56 6.96 0.96 1.2 1.56 2.4 1.92 3.84 0 0.12 0.12 0.24 0.24 0.24h1.8c0.24 0 0.24 0 0.24-0.24v-5.76c0-0.12-0.12-0.24-0.12-0.36-0.24-0.24-0.6-0.48-0.84-0.72-0.48-0.6-1.080-1.2-1.68-1.8zM16.081 25.48h-2.28c-1.32 0-2.16-0.96-2.28-2.28 0-0.72 0-1.44-0.12-2.16-0.12-0.96-0.6-1.8-1.32-2.52-1.32-1.32-2.16-2.88-2.4-4.68-0.48-3.48 1.2-6.96 4.32-8.76 4.92-2.76 11.040 0 12.24 5.64 0.6 2.88-0.12 5.4-2.16 7.68-0.72 0.84-1.32 1.68-1.56 2.88-0.12 0.6 0 1.2-0.12 1.68 0 0.24 0 0.6-0.12 0.84-0.24 0.96-1.080 1.68-2.040 1.68h-2.16z"/>
</symbol><symbol id="icon--bulk-removal" viewBox="0 0 32 32">
<title>Bulk-Removal</title>
<path d="M24.533 9.515h-8.533l-2.133-2.182h-6.4c-1.177 0-2.133 0.979-2.133 2.182v13.091c0 1.203 0.957 2.182 2.133 2.182h17.067c1.177 0 2.133-0.979 2.133-2.182v-10.909c0-1.203-0.957-2.182-2.133-2.182zM20 19.935l-1.398 1.398-2.602-2.602-2.602 2.602-1.398-1.398 2.602-2.602-2.602-2.602 1.398-1.398 2.602 2.602 2.602-2.602 1.398 1.398-2.602 2.602 2.602 2.602z"/>
</symbol><symbol id="icon--bulk-upload" viewBox="0 0 32 32">
<title>Bulk-Upload</title>
<path d="M24.533 8.848h-8.533l-2.133-2.182h-6.4c-1.177 0-2.133 0.979-2.133 2.182v13.091c0 1.203 0.957 2.182 2.133 2.182h17.067c1.177 0 2.133-0.979 2.133-2.182v-10.909c0-1.203-0.957-2.182-2.133-2.182zM16.024 12.485l4.364 4.364h-3.273v4.364h-2.182v-4.364h-3.273l4.364-4.364z"/>
</symbol><symbol id="icon--car-type" viewBox="0 0 32 32">
<title>Car-type</title>
<path d="M1.333 8v2.222h0.611c0.33 0 0.611 0.2 0.611 0.445v9.555h1.284c0.3 1.88 2.066 3.333 4.216 3.333 1.7 0 3.159-0.913 3.848-2.222h8.193c0.689 1.309 2.148 2.222 3.848 2.222s3.159-0.913 3.848-2.222h1.652c0.672 0 1.222-0.5 1.222-1.111v-3.778c0-0.3-0.135-0.577-0.368-0.788-3.068-2.767-12.075-3.167-15.521-3.212v-2.222c0-0.611-0.55-1.111-1.222-1.111-4.131 0-6.857 1.578-8.556 3.145v-1.589c0-1.467-1.369-2.667-3.056-2.667h-0.611zM8.056 18c1.011 0 1.833 0.748 1.833 1.667s-0.823 1.667-1.833 1.667c-1.011 0-1.833-0.748-1.833-1.667s0.823-1.667 1.833-1.667zM23.944 18c1.011 0 1.833 0.748 1.833 1.667s-0.823 1.667-1.833 1.667c-1.011 0-1.833-0.748-1.833-1.667s0.823-1.667 1.833-1.667z"/>
</symbol><symbol id="icon--car-weight" viewBox="0 0 32 32">
<title>Car-Weight</title>
<path d="M11.218 5.333c-1.389 0-2.598 0.881-3.022 2.185l-1.74 3.763-0.002 0.002-1.783-0.594-0.671 2.013 1.555 0.518v0.002c0 0-0.159 0.446-0.159 0.594v7.423c0 0.585 0.475 1.060 1.060 1.060h3.181l0.352-1.060h12.019l0.354 1.060h3.181c0.585 0 1.060-0.475 1.060-1.060v-7.423c0-0.148-0.159-0.594-0.159-0.594v-0.002l1.555-0.518-0.671-2.011-1.785 0.594v-0.004l-1.74-3.763c-0.424-1.304-1.633-2.185-3.022-2.185h-9.564zM11.218 7.454h9.564c0.467 0 0.881 0.308 1.019 0.754 0.011 0.053 0.031 0.094 0.052 0.137l1.549 3.351h-14.804l1.549-3.351c0.021-0.042 0.041-0.084 0.052-0.137 0.138-0.445 0.542-0.754 1.019-0.754zM10.698 14.877c0.583 0 1.060 0.477 1.060 1.060s-0.477 1.060-1.060 1.060c-0.583 0-1.060-0.477-1.060-1.060s0.477-1.060 1.060-1.060zM13.879 14.877h4.242v2.121h-4.242v-2.121zM21.302 14.877c0.583 0 1.060 0.477 1.060 1.060s-0.477 1.060-1.060 1.060c-0.583 0-1.060-0.477-1.060-1.060s0.477-1.060 1.060-1.060zM5.396 24.421v2.121h21.208v-2.121h-21.208z"/>
</symbol><symbol id="icon--car" viewBox="0 0 32 32">
<title>Car</title>
<path d="M10.686 6.667c-1.543 0-2.886 0.979-3.357 2.428l-1.933 4.181-0.002 0.002-1.981-0.66-0.746 2.237 1.728 0.575v0.002c0 0-0.177 0.495-0.177 0.66v8.248c0 0.65 0.528 1.178 1.178 1.178h3.535l0.391-1.178h13.354l0.393 1.178h3.535c0.65 0 1.178-0.528 1.178-1.178v-8.248c0-0.165-0.177-0.66-0.177-0.66v-0.002l1.728-0.575-0.746-2.235-1.984 0.66v-0.005l-1.933-4.181c-0.471-1.449-1.814-2.428-3.358-2.428h-10.627zM10.686 9.023h10.627c0.518 0 0.979 0.343 1.132 0.838 0.012 0.059 0.034 0.105 0.058 0.152l1.721 3.723h-16.449l1.721-3.723c0.024-0.047 0.046-0.093 0.058-0.152 0.153-0.495 0.602-0.838 1.132-0.838zM10.109 17.271c0.648 0 1.178 0.53 1.178 1.178s-0.53 1.178-1.178 1.178c-0.648 0-1.178-0.53-1.178-1.178s0.53-1.178 1.178-1.178zM13.644 17.271h4.713v2.356h-4.713v-2.356zM21.891 17.271c0.648 0 1.178 0.53 1.178 1.178s-0.53 1.178-1.178 1.178c-0.648 0-1.178-0.53-1.178-1.178s0.53-1.178 1.178-1.178z"/>
</symbol><symbol id="icon--check-badge" viewBox="0 0 32 32">
<title>check-badge</title>
<path d="M27.667 15.233l-2.184-2.099 0.439-2.892c0.089-0.589-0.34-1.137-0.969-1.24l-3.093-0.505-1.472-2.579c-0.298-0.524-0.992-0.734-1.566-0.473l-2.822 1.282-2.822-1.282c-0.573-0.261-1.267-0.051-1.567 0.474l-1.472 2.58-3.093 0.505c-0.63 0.102-1.059 0.651-0.969 1.239l0.439 2.892-2.184 2.099c-0.445 0.428-0.445 1.105 0 1.533l2.184 2.099-0.439 2.892c-0.089 0.589 0.34 1.137 0.969 1.24l3.093 0.505 1.472 2.579c0.299 0.525 0.993 0.735 1.568 0.474l2.82-1.283 2.822 1.282c0.575 0.261 1.267 0.051 1.568-0.474l1.472-2.579 3.093-0.505c0.63-0.102 1.059-0.652 0.969-1.24l-0.439-2.892 2.184-2.099c0.442-0.427 0.442-1.105-0.002-1.533zM14.493 20.662l-3.827-3.954 1.46-1.508 2.367 2.446 5.464-5.645 1.46 1.508-6.924 7.154z"/>
</symbol><symbol id="icon--check-round" viewBox="0 0 32 32">
<title>check-round</title>
<path d="M23.926 7.386c0.959-0.959 2.397-0.959 3.355 0s0.959 2.397 0 3.355l-12.942 13.661c-0.959 0.959-2.397 0.959-3.355 0l-6.231-5.752c-0.959-0.959-0.959-2.397-0.24-3.355s2.397-0.959 3.355-0.24l4.314 4.074 11.744-11.744z"/>
</symbol><symbol id="icon--clock-outline" viewBox="0 0 32 32">
<title>clock-outline</title>
<path d="M16 5.333c-5.878 0-10.667 4.788-10.667 10.667s4.788 10.667 10.667 10.667c5.878 0 10.667-4.788 10.667-10.667s-4.788-10.667-10.667-10.667zM16 7.467c4.725 0 8.533 3.808 8.533 8.533s-3.808 8.533-8.533 8.533c-4.725 0-8.533-3.808-8.533-8.533s3.808-8.533 8.533-8.533zM14.933 9.6v6.842l4.579 4.579 1.508-1.508-3.954-3.954v-5.958h-2.133z"/>
</symbol><symbol id="icon--close-round" viewBox="0 0 32 32">
<title>close-round</title>
<path d="M13.238 16.667l-6.586-6.586c-0.781-0.781-0.781-2.047 0-2.829s2.047-0.781 2.829 0l6.586 6.586 6.586-6.586c0.781-0.781 2.047-0.781 2.829 0s0.781 2.047 0 2.829l-6.586 6.586 6.586 6.586c0.781 0.781 0.781 2.047 0 2.829s-2.047 0.781-2.829 0l-6.586-6.586-6.586 6.586c-0.781 0.781-2.047 0.781-2.829 0s-0.781-2.047 0-2.829l6.586-6.586z"/>
</symbol><symbol id="icon--crop-1" viewBox="0 0 32 32">
<title>crop-1</title>
<path d="M8.528 5.335c-0.587 0.009-1.056 0.492-1.048 1.079v1.065h-1.065c-0.384-0.006-0.742 0.196-0.936 0.527s-0.194 0.743 0 1.075c0.194 0.332 0.552 0.534 0.936 0.527h1.065v12.778c0 1.164 0.966 2.13 2.13 2.13h12.778v1.065c-0.007 0.385 0.194 0.745 0.526 0.939s0.744 0.195 1.077 0c0.332-0.195 0.534-0.554 0.526-0.939v-1.065h1.065c0.385 0.007 0.745-0.194 0.939-0.526s0.195-0.744 0-1.077c-0.195-0.332-0.554-0.534-0.939-0.526h-1.965c-0.060-0.010-0.12-0.015-0.181-0.015-0.052 0.001-0.103 0.006-0.154 0.015h-12.166l11.272-11.272v8.078c-0.007 0.385 0.194 0.745 0.526 0.939s0.744 0.195 1.077 0c0.332-0.195 0.534-0.554 0.526-0.939v-10.207l1.818-1.818c0.279-0.267 0.391-0.664 0.294-1.037s-0.389-0.665-0.762-0.762c-0.373-0.097-0.77 0.015-1.037 0.294l-1.818 1.818h-10.207c-0.384-0.006-0.742 0.196-0.936 0.527s-0.194 0.743 0 1.075c0.194 0.332 0.552 0.534 0.936 0.527h8.077l-11.272 11.272v-12.158c0.019-0.115 0.019-0.232 0-0.347v-1.961c0.004-0.288-0.109-0.565-0.313-0.768s-0.481-0.316-0.769-0.311z"/>
</symbol><symbol id="icon--details-page" viewBox="0 0 32 32">
<title>details-page</title>
<path d="M7.704 5.333c-1.31 0-2.37 1.061-2.37 2.37v4.741h21.333v-4.741c0-1.31-1.061-2.37-2.37-2.37h-16.593zM8.889 7.704c0.654 0 1.185 0.531 1.185 1.185s-0.531 1.185-1.185 1.185c-0.654 0-1.185-0.531-1.185-1.185s0.531-1.185 1.185-1.185zM12.444 7.704c0.654 0 1.185 0.531 1.185 1.185s-0.531 1.185-1.185 1.185c-0.654 0-1.185-0.531-1.185-1.185s0.531-1.185 1.185-1.185h-0zM16 7.704h8.296v2.37h-8.296v-2.37zM5.333 14.815v9.481c0 1.296 1.075 2.371 2.37 2.371h16.593c1.295 0 2.37-1.075 2.37-2.37v-9.481h-2.37v9.481h-10.667v-9.481l-8.296-0zM16 14.815v2.37h5.926v-2.37h-5.926zM16 19.555v2.37h5.926v-2.37h-5.926z"/>
</symbol><symbol id="icon--driving" viewBox="0 0 32 32">
<title>Driving</title>
<path d="M9.053 5.333c-1.55 0-2.807 1.257-2.807 2.807s1.257 2.807 2.807 2.807c1.55 0 2.807-1.257 2.807-2.807s-1.257-2.807-2.807-2.807zM19.735 8.518l-0.474 2.842-3.103 1.772-4.682-0.936c-0.747-0.261-1.622-0.125-2.276 0.48-0.82 0.764-0.888 2.055-0.259 2.987l4.412 6.636c0.18 0.258 0.404 0.483 0.651 0.64l1.504-5.513-1.645-2.463 2.268 0.454c0.266 0.053 0.541 0.007 0.776-0.127l1.877-1.072-0.173 1.037 2.215 0.368 1.123-6.737-2.215-0.368zM14.004 22.939l-1.022 3.728h2.246l0.976-3.592c-0.719 0.348-1.548 0.279-2.2-0.136zM16.204 23.075c0.011 0 0.013-0.013 0.024-0.013l5.175-2.39 3.548 4.211c0.292 0.393 0.742 0.605 1.191 0.605 0.303 0 0.617-0.090 0.875-0.292 0.584-0.438 0.741-1.246 0.371-1.875l-3.772-5.827c-0.505-0.797-1.495-1.124-2.382-0.809l-3.638 1.314-1.393 5.077zM4 12.070v2.178l0.763 0.202 1.515 0.406c-0.022-0.18-0.033-0.36-0.033-0.539 0-0.55 0.101-1.090 0.292-1.572l-1.638-0.436-0.899-0.237z"/>
</symbol><symbol id="icon--duplicate" viewBox="0 0 32 32">
<title>duplicate</title>
<path d="M10.667 5.333c-0.589 0-1.067 0.478-1.067 1.067s0.478 1.067 1.067 1.067h13.867v13.867c0 0.589 0.478 1.067 1.067 1.067s1.067-0.478 1.067-1.067v-13.867c0-1.179-0.955-2.133-2.133-2.133h-13.867zM7.467 9.6c-1.179 0-2.133 0.955-2.133 2.133v12.8c0 1.179 0.955 2.133 2.133 2.133h12.8c1.179 0 2.133-0.955 2.133-2.133v-12.8c0-1.179-0.955-2.133-2.133-2.133h-12.8zM13.867 13.867c0.589 0 1.067 0.478 1.067 1.067v2.133h2.133c0.589 0 1.067 0.478 1.067 1.067s-0.478 1.067-1.067 1.067h-2.133v2.133c0 0.589-0.478 1.067-1.067 1.067s-1.067-0.478-1.067-1.067v-2.133h-2.133c-0.589 0-1.067-0.478-1.067-1.067s0.478-1.067 1.067-1.067h2.133v-2.133c0-0.589 0.478-1.067 1.067-1.067z"/>
</symbol><symbol id="icon--engine" viewBox="0 0 32 32">
<title>Engine</title>
<path d="M13.778 6.667v2.222h3.333v2.222h2.222v-2.222h3.333v-2.222h-8.889zM13.778 13.333c-0.3 0-0.579 0.121-0.79 0.321l-1.888 1.901h-2.878c-0.611 0-1.111 0.5-1.111 1.111v6.667c0 0.611 0.5 1.111 1.111 1.111h1.888l3.056 2.033c0.178 0.122 0.39 0.189 0.612 0.189h5.556c0.244 0 0.477-0.077 0.666-0.221l4.444-3.333c0.278-0.211 0.445-0.545 0.445-0.89v-7.778c0-0.611-0.5-1.111-1.111-1.111h-10zM27.111 14.444v6.667h2.222v-6.667h-2.222zM17.111 15.556v3.333h2.222l-3.333 5.556v-3.333h-2.222l3.333-5.556zM2.667 16.667v5.556h2.222v-5.556h-2.222z"/>
</symbol><symbol id="icon--entertainment" viewBox="0 0 32 32">
<title>Entertainment</title>
<path d="M15.868 19.874h7.463c0.422 0 0.643 0.526 0.332 0.811-1.074 0.977-2.53 1.589-4.063 1.589s-2.989-0.612-4.063-1.589c-0.312-0.286-0.091-0.811 0.331-0.811zM8.2 17.474c0.961 0 1.8 0.839 1.8 1.8s-0.839 1.8-1.8 1.8c-0.961 0-1.8-0.839-1.8-1.8s0.839-1.8 1.8-1.8zM13.713 15.074h11.774c0.122 0.361 0.113 0.839 0.113 1.2s0.010 0.839-0.113 1.2h-11.774c-0.122-0.361-0.113-0.839-0.113-1.2s-0.010-0.839 0.113-1.2zM8.2 11.474c0.961 0 1.8 0.84 1.8 1.8 0 0.961-0.839 1.8-1.8 1.8s-1.8-0.839-1.8-1.8c0-0.96 0.839-1.8 1.8-1.8zM19.6 10.274c1.534 0 2.989 0.612 4.063 1.59 0.311 0.284 0.090 0.81-0.332 0.81h-7.463c-0.422 0-0.643-0.526-0.331-0.81 1.074-0.978 2.53-1.59 4.063-1.59zM4 9.549v13.454c0 1.579 1.291 2.87 2.869 2.87h18.26c1.579 0 2.87-1.291 2.87-2.87v-13.459c0-1.578-1.29-2.869-2.869-2.87l-12.673 0.002c-0.54 0.025-3.347 0.018-5.581 0.007-1.588-0.008-2.876 1.278-2.876 2.866z"/>
</symbol><symbol id="icon--filter" viewBox="0 0 32 32">
<title>filter</title>
<path d="M5.333 5.333v2.37h1.185l5.926 9.481v9.481h7.111v-9.481l5.926-9.481h1.185v-2.37h-21.333zM9.315 7.704h13.373l-5.502 8.801v7.792h-2.37v-7.792l-5.5-8.801z"/>
</symbol><symbol id="icon--graph" viewBox="0 0 32 32">
<title>Graph</title>
<path d="M5.333 5.333v18.963c0 1.295 1.075 2.37 2.37 2.37h18.963v-2.37h-18.963v-18.963h-2.37zM24.676 9.262l-5.134 5.086-3.549-3.394-6.745 6.567 1.653 1.699 5.106-4.972 3.563 3.405 6.775-6.708-1.669-1.683z"/>
</symbol><symbol id="icon--home" viewBox="0 0 32 32">
<title>Home</title>
<path d="M16.416 5.333l-12.416 11.175h3.386v10.159h5.644v-7.901h6.772v7.901h5.644v-10.159h3.386l-4.515-4.063v-4.967h-2.257v2.934z"/>
</symbol><symbol id="icon--list" viewBox="0 0 32 32">
<title>list</title>
<path d="M11.2 10.4c-0.663 0-1.2-0.537-1.2-1.2s0.537-1.2 1.2-1.2h15.6c0.663 0 1.2 0.537 1.2 1.2s-0.537 1.2-1.2 1.2h-15.6zM11.2 17.6c-0.663 0-1.2-0.537-1.2-1.2s0.537-1.2 1.2-1.2h15.6c0.663 0 1.2 0.537 1.2 1.2s-0.537 1.2-1.2 1.2h-15.6zM11.2 24.8c-0.663 0-1.2-0.537-1.2-1.2s0.537-1.2 1.2-1.2h15.6c0.663 0 1.2 0.537 1.2 1.2s-0.537 1.2-1.2 1.2h-15.6zM4 8h2.4v2.4h-2.4v-2.4zM4 15.2h2.4v2.4h-2.4v-2.4zM4 22.4h2.4v2.4h-2.4v-2.4z"/>
</symbol><symbol id="icon--listing-rejected" viewBox="0 0 32 32">
<title>listing-rejected</title>
<path d="M6.8 6.667c-1.175 0-2.133 0.973-2.133 2.167v13c0 1.193 0.958 2.167 2.133 2.167h12.8l-2.133-2.167h-10.667v-10.833h17.067v8.667l2.133-2.167v-8.667c0-1.193-0.958-2.167-2.133-2.167h-17.067zM8.667 13.333v2.667h2.667v-2.667h-2.667zM12.667 13.333v2.667h9.333v-2.667h-9.333zM8.667 17.333v2.667h2.667v-2.667h-2.667zM12.667 17.333v2.667h5.714l2.286-2.667h-8zM20.961 20l-1.628 1.406 3.039 2.625-2.966 2.563 1.664 1.406 2.93-2.563 2.966 2.563 1.628-1.438-2.93-2.531 3.003-2.625-1.628-1.406-3.039 2.625-3.039-2.625z"/>
</symbol><symbol id="icon--listing" viewBox="0 0 32 32">
<title>Listings</title>
<path d="M5.333 8c-1.619 0-2.667 1.371-2.667 2.667v10.667c0 1.295 1.047 2.667 2.667 2.667h21.333c1.619 0 2.667-1.371 2.667-2.667v-10.667c0-1.295-1.047-2.667-2.667-2.667h-21.333zM5.333 12h8v8h-8v-8zM16 12h10.667v2.667h-10.667v-2.667zM16 17.333h10.667v2.667h-10.667v-2.667z"/>
</symbol><symbol id="icon--moderation" viewBox="0 0 32 32">
<title>Moderation</title>
<path d="M15.067 4v2.4h2.4v-2.4h-2.4zM17.467 5.2v2.4h-2.4v-2.4h-6c-1.324 0-2.4 1.076-2.4 2.4v18c0 1.324 1.076 2.4 2.4 2.4h14.4c1.324 0 2.4-1.076 2.4-2.4v-18c0-1.324-1.076-2.4-2.4-2.4h-6zM14.979 21.55l-4.313-4.313 1.457-1.457 2.856 2.856 5.969-5.969 1.457 1.457-7.426 7.426z"/>
</symbol><symbol id="icon--motorbike" viewBox="0 0 32 32">
<title>Motorbike</title>
<path d="M15.5 6.667v2.333h2.78l0.237 0.476c-0.691 0.392-1.3 0.965-1.862 1.504-0.779 0.747-1.582 1.52-2.322 1.52-0.965 0-1.417-0.331-2.238-0.93-1.485-1.086-3.52-2.57-9.429-2.57v2.333c0.895 0 1.658 0.043 2.356 0.107l1.458 2.226h-2.648v2.333h4.177l3.475 5.307c0.216 0.329 0.584 0.527 0.978 0.526h8.871c0 1.919 1.581 3.5 3.5 3.5s3.5-1.581 3.5-3.5c0-1.679-1.21-3.101-2.798-3.429l-2.142-3.571h3.773c0.453 0 0.864-0.263 1.055-0.672 0.192-0.409 0.132-0.894-0.157-1.242-0.127-0.151-2.982-3.51-7.157-3.881l-0.864-1.727c-0.198-0.395-0.602-0.645-1.044-0.645h-3.5zM21.274 15.834l1.805 3.008c-0.304 0.183-0.589 0.396-0.827 0.659h-2.030c0.155-1.637 0.618-2.835 1.053-3.666zM6.167 18.333c-1.919 0-3.5 1.581-3.5 3.5s1.581 3.5 3.5 3.5c1.919 0 3.5-1.581 3.5-3.5s-1.581-3.5-3.5-3.5zM6.167 20.667c0.658 0 1.167 0.509 1.167 1.167s-0.509 1.167-1.167 1.167c-0.658 0-1.167-0.509-1.167-1.167s0.509-1.167 1.167-1.167zM24.71 20.689c0.087 0.011 0.175 0.013 0.262 0.005 0.586 0.069 1.028 0.531 1.028 1.139 0 0.658-0.509 1.167-1.167 1.167s-1.167-0.509-1.167-1.167c0-0.614 0.45-1.082 1.044-1.144z"/>
</symbol><symbol id="icon--package" viewBox="0 0 32 32">
<title>package</title>
<path d="M13.255 11.059v6.039c-0.001 0.086 0.019 0.171 0.058 0.248 0.136 0.271 0.465 0.381 0.736 0.246v0l1.951-0.978 1.951 0.976c0.076 0.038 0.16 0.058 0.246 0.058 0.303-0 0.549-0.246 0.549-0.549v0-6.039h6.588v14.275h-18.667v-14.275h6.588zM14.199 6.667l-0.824 3.294h-6.37l1.647-3.294h5.546zM23.347 6.667l1.647 3.294h-6.37l-0.824-3.294h5.546z"/>
</symbol><symbol id="icon--photo-error" viewBox="0 0 32 32">
<title>photo-error</title>
<path d="M24.166 17.759h0.105v7.247c0 1.628-1.313 2.993-2.993 2.993h-14.284c-1.628 0-2.993-1.313-2.993-2.993v-14.6c0-1.681 1.365-2.993 3.046-3.046h9.978c-0.368 0.84-0.525 1.786-0.525 2.731 0 4.201 3.414 7.667 7.667 7.667zM9.777 10.144c-1.365 0-2.468 1.103-2.468 2.468s1.103 2.468 2.468 2.468c1.365 0 2.468-1.103 2.468-2.468s-1.103-2.468-2.468-2.468zM7.256 25.322l14.6 0.053-3.991-7.93c-0.263-0.578-0.998-0.578-1.313-0.053l-1.733 3.046c-0.315 0.525-1.050 0.63-1.47 0.158l-0.683-0.735c-0.683-0.735-1.891-0.63-2.416 0.263l-2.993 5.199zM24.166 4c3.361 0 6.092 2.731 6.092 6.092s-2.731 6.092-6.092 6.092c-3.361 0-6.092-2.731-6.092-6.092s2.731-6.092 6.092-6.092zM24.954 6.363h-1.208l0.105 4.569h0.998l0.105-4.569zM24.376 13.453c0.368 0 0.683-0.315 0.683-0.683s-0.315-0.683-0.683-0.683c-0.368 0-0.683 0.315-0.683 0.683s0.315 0.683 0.683 0.683z"/>
</symbol><symbol id="icon--photo-upload" viewBox="0 0 32 32">
<title>photo-upload</title>
<path d="M7.274 25.254l14.681 0.106-3.961-8.027c-0.264-0.581-1.003-0.581-1.32-0.053l-1.743 3.063c-0.37 0.528-1.109 0.634-1.531 0.158l-0.687-0.739c-0.687-0.739-1.901-0.634-2.429 0.264l-3.010 5.228zM9.809 10.045c-1.373 0-2.482 1.109-2.482 2.482s1.109 2.482 2.482 2.482c1.373 0 2.482-1.109 2.482-2.482s-1.109-2.482-2.482-2.482zM18.1 9.148c0 3.538 2.799 6.443 6.284 6.654v9.189c0 1.637-1.32 3.010-3.010 3.010h-14.364c-1.637 0-3.010-1.32-3.010-3.010v-14.681c0-1.69 1.373-3.010 3.010-3.010h11.354c-0.158 0.581-0.264 1.215-0.264 1.848zM27.635 8.7c0.158-0.211 0.106-0.528-0.106-0.739l-2.535-1.795c0 0 0-0.053-0.053-0.053 0-0.053 0-0.053-0.053-0.053h-0.37l-0.053 0.053-2.482 2.007c-0.211 0.158-0.264 0.475-0.053 0.739 0.158 0.211 0.475 0.211 0.686 0.053l1.69-1.373v4.542c0 0.317 0.211 0.581 0.475 0.581s0.475-0.264 0.475-0.528v-4.594l1.637 1.267c0.106 0.053 0.211 0.106 0.317 0.106 0.158 0 0.317-0.106 0.422-0.211zM24.783 4c2.852 0 5.175 2.271 5.175 5.122s-2.324 5.175-5.175 5.175c-2.852 0-5.175-2.324-5.175-5.175s2.324-5.122 5.175-5.122z"/>
</symbol><symbol id="icon--rectangle" viewBox="0 0 32 32">
<title>rectangle</title>
<path d="M2.667 8.32v15.556h26.667v-15.556h-26.667zM27.111 21.653h-22.222v-11.111h22.222v11.111z"/>
</symbol><symbol id="icon--registration-card" viewBox="0 0 32 32">
<title>registration-card</title>
<path d="M22.006 15.746h-11.835v-2.133h11.835v2.133l-0 0zM22.006 10.971h-11.835v-2.133h11.835v2.133l-0-0zM12.559 22.197l-1.219 0.559-0.152-1.27-1.067-0.762 1.067-0.762 0.152-1.27 1.168 0.559 1.168-0.559 0.152 1.27 1.067 0.762-1.016 0.711-0.152 1.27-1.168-0.508zM20.381 19.505h2.794l-4.724 4.724v-2.794c0-1.067 0.863-1.93 1.93-1.93v0zM23.479 5.333h-14.73c-1.168 0-2.083 1.067-2.083 2.387v16.559c0 1.321 0.965 2.387 2.083 2.387h9.701l7.111-7.111v-11.886c0-1.321-0.965-2.337-2.082-2.337z"/>
</symbol><symbol id="icon--remark" viewBox="0 0 32 32">
<title>Remark</title>
<path d="M26.667 8.8c0-1.173-0.96-2.133-2.133-2.133h-17.067c-1.173 0-2.133 0.96-2.133 2.133v12.8c0 1.173 0.96 2.133 2.133 2.133h14.933l4.267 4.267v-19.2zM22.667 20h-13.333v-1.333h13.333v1.333zM22.667 16h-13.333v-1.333h13.333v1.333zM22.667 12h-13.333v-1.333h13.333v1.333z"/>
</symbol><symbol id="icon--report" viewBox="0 0 32 32">
<title>Report</title>
<path d="M26.909 6.667h-22.909v2.182h1.091v12c0 1.205 0.976 2.182 2.182 2.182h7.636v3.273h2.182v-3.273h7.636c1.205 0 2.182-0.976 2.182-2.182v-12h1.091v-2.182h-1.091zM22.047 16.438l-2.774-2.774-4.364 4.364-2.182-2.182-2.774 2.774-1.543-1.543 4.317-4.317 2.182 2.182 4.364-4.364 4.317 4.317-1.543 1.543z"/>
</symbol><symbol id="icon--rotate-left-2" viewBox="0 0 32 32">
<title>rotate-left-2</title>
<path d="M10.172 5.337c-0.181 0.023-0.355 0.151-0.464 0.413l-2.966 7.145c-0.219 0.522 0.058 0.877 0.619 0.799l7.583-1.083c0.561-0.077 0.538-0.445 0.206-0.903l-1.315-1.806c0.861-0.351 1.793-0.542 2.786-0.542 4.117 0 7.428 3.311 7.428 7.428-0.003 0.043-0.003 0.086 0 0.129l-0.052 0.697-0.103 0.619 0.31 1.032 1.006 0.413 0.929-0.516 0.206-0.542 0.129-0.748v-0.129l0.052-0.877v-0.077c0-5.455-4.449-9.904-9.904-9.904-1.525 0-2.982 0.358-4.282 0.98l-1.625-2.218c-0.168-0.229-0.361-0.332-0.542-0.31v0zM8.779 18.078l-1.057 0.052-0.645 0.851 0.052 0.593 0.103 0.413 0.052 0.103 0.284 0.696 0.052 0.103 0.181 0.413 0.851 0.645 1.032-0.232 0.464-0.954-0.129-0.567-0.206-0.413-0.206-0.516-0.103-0.413-0.722-0.774zM23.945 21.018l-1.057 0.026-0.464 0.361-0.026 0.052-0.026 0.026-0.052 0.077-0.413 0.438-0.077 0.077-0.387 0.335-0.387 1.006 0.516 0.928 1.032 0.181 0.516-0.284 0.464-0.413 0.077-0.077 0.567-0.619 0.078-0.103 0.103-0.155 0.206-1.032-0.671-0.825zM11.204 22.669l-0.774 0.722 0.077 1.057 0.387 0.413 0.593 0.413 0.103 0.052 0.671 0.361 0.103 0.052 0.155 0.052 1.058-0.026 0.645-0.851-0.258-1.032-0.464-0.361-0.077-0.026-0.077-0.052-0.49-0.258-0.103-0.052-0.49-0.335-1.058-0.129zM18.916 23.984l-0.567 0.026-0.181 0.052h-0.026l-0.077 0.026-0.619 0.077-0.49 0.026-0.928 0.516-0.206 1.032 0.697 0.825 0.567 0.103 0.49-0.026h0.129l0.851-0.129 0.129-0.026 0.284-0.077 0.8-0.697v-1.057l-0.851-0.671z"/>
</symbol><symbol id="icon--rotate-right-2" viewBox="0 0 32 32">
<title>rotate-right-2</title>
<path d="M23.026 5.336c-0.174-0.019-0.377 0.087-0.541 0.335l-1.623 2.216c-1.295-0.618-2.744-0.979-4.302-0.979-5.449 0-9.893 4.444-9.893 9.893v0.155l0.052 0.799v0.129l0.129 0.747 0.593 0.876 1.056 0.103 0.747-0.773 0.052-0.593-0.103-0.618-0.052-0.747v-0.129c0.026-4.090 3.323-7.368 7.42-7.368 1.018 0 1.958 0.174 2.808 0.515l-1.314 1.803c-0.328 0.496-0.341 0.818 0.155 0.902l7.574 1.056c0.576 0.084 0.834-0.248 0.67-0.824l-2.963-7.085c-0.122-0.248-0.29-0.393-0.464-0.412zM24.984 17.985l-1.005 0.386-0.283 0.489-0.129 0.412-0.18 0.489h-0.026l-0.206 0.438-0.026 1.056 0.799 0.696 1.056-0.206 0.386-0.438 0.258-0.515 0.283-0.721 0.026-0.103 0.129-0.386-0.18-1.056-0.902-0.541zM9.81 20.922l-0.979 0.412-0.283 1.030 0.232 0.515 0.103 0.155 0.077 0.103 0.567 0.618 0.077 0.077 0.464 0.412 1.030 0.309 0.876-0.593 0.077-1.056-0.309-0.489-0.386-0.335-0.077-0.077-0.412-0.438-0.052-0.077-0.026-0.026-0.026-0.052-0.953-0.489zM21.454 22.622l-0.541 0.18-0.489 0.335-0.077 0.052-0.489 0.258-0.026 0.026-0.155 0.052-0.696 0.799 0.18 1.056 0.927 0.515 0.567-0.103 0.18-0.077 0.103-0.052 0.67-0.361 0.103-0.052 0.567-0.386 0.541-0.902-0.361-1.005-1.005-0.335zM14.833 24.013l-1.030 0.206-0.515 0.927 0.412 0.979 0.515 0.283 0.283 0.077 0.129 0.026 0.85 0.129h0.129l0.489 0.026 0.979-0.412 0.309-1.005-0.618-0.876-0.541-0.18-0.489-0.026-0.618-0.077-0.077-0.026h-0.026l-0.18-0.052z"/>
</symbol><symbol id="icon--share-2" viewBox="0 0 32 32">
<title>share</title>
<path d="M17.64 9.414c0-0.12 0-0.219 0-0.317-0.006-1.139-0.011-2.282-0.006-3.421 0-0.12 0.066-0.323 0.138-0.334 0.127-0.027 0.315 0.016 0.414 0.104 2.1 1.834 4.194 3.673 6.289 5.512 0.939 0.821 1.873 1.648 2.813 2.469 0.354 0.312 0.354 0.378 0.011 0.684-2.984 2.633-5.968 5.26-8.958 7.893-0.155 0.137-0.293 0.372-0.558 0.246-0.254-0.12-0.144-0.372-0.144-0.564-0.006-1.111 0.006-2.228 0.011-3.339 0-0.071-0.006-0.142-0.017-0.285-0.575 0.027-1.149-0.005-1.702 0.093-4.034 0.701-7.14 2.753-9.212 6.267-0.354 0.602-0.564 1.281-0.84 1.927-0.033 0.082-0.050 0.192-0.116 0.241-0.066 0.055-0.221 0.099-0.265 0.066-0.083-0.066-0.171-0.197-0.166-0.301 0.028-0.903 0.039-1.806 0.122-2.704 0.171-1.932 0.558-3.821 1.26-5.638 1.078-2.797 2.746-5.145 5.316-6.798 1.647-1.056 3.443-1.675 5.41-1.779 0.050-0.005 0.105-0.011 0.199-0.022z"/>
</symbol><symbol id="icon--sort" viewBox="0 0 32 32">
<title>sort</title>
<path d="M10.667 5.333l-5.333 5.333h4.267v6.4h2.133v-6.4h4.267l-5.333-5.333zM20.267 6.4v2.133h2.133v-2.133h-2.133zM20.267 10.667v2.133h2.133v-2.133h-2.133zM20.267 14.933v6.4h-4.267l5.333 5.333 5.333-5.333h-4.267v-6.4h-2.133zM9.6 19.2v2.133h2.133v-2.133h-2.133zM9.6 23.467v2.133h2.133v-2.133h-2.133z"/>
</symbol><symbol id="icon--speedometer" viewBox="0 0 32 32">
<title>speedometer</title>
<path d="M16.191 5.333c-6.722 0-12.191 5.468-12.191 12.191 0 3.5 1.48 6.639 3.841 8.857l0.317 0.286h16.064l0.317-0.286c2.361-2.218 3.841-5.357 3.841-8.857 0-6.722-5.468-12.191-12.19-12.191h-0zM16.191 7.365c5.623 0 10.159 4.536 10.159 10.159 0 2.798-1.187 5.274-3.016 7.111h-14.286c-1.829-1.837-3.016-4.313-3.016-7.111 0-5.623 4.536-10.159 10.159-10.159h0zM16.191 8.381c-0.56 0-1.016 0.456-1.016 1.016s0.456 1.016 1.016 1.016c0.559 0 1.016-0.456 1.016-1.016s-0.456-1.016-1.016-1.016l0 0zM12.127 9.46c-0.559 0-1.016 0.456-1.016 1.016s0.456 1.016 1.016 1.016c0.559 0 1.016-0.456 1.016-1.016s-0.456-1.016-1.016-1.016zM20.254 9.46c-0.56 0-1.016 0.456-1.016 1.016s0.456 1.016 1.016 1.016c0.559 0 1.016-0.456 1.016-1.016s-0.456-1.016-1.016-1.016h0zM9.143 12.444c-0.559 0-1.016 0.456-1.016 1.016s0.456 1.016 1.016 1.016c0.559 0 1.016-0.456 1.016-1.016s-0.456-1.016-1.016-1.016v0zM23.238 12.444c-0.198 0-0.381 0.060-0.54 0.159l-5.492 3.175c-0.298-0.175-0.647-0.286-1.016-0.286-1.123 0-2.032 0.909-2.032 2.032s0.909 2.032 2.032 2.032c1.123 0 2.032-0.909 2.032-2.032l5.397-3.143c0.365-0.155 0.635-0.5 0.635-0.921 0-0.559-0.456-1.016-1.016-1.016h0zM8.063 16.508c-0.559 0-1.016 0.456-1.016 1.016s0.456 1.016 1.016 1.016c0.559 0 1.016-0.456 1.016-1.016s-0.456-1.016-1.016-1.016v0zM24.317 16.508c-0.559 0-1.016 0.456-1.016 1.016s0.457 1.016 1.016 1.016 1.016-0.456 1.016-1.016c0-0.559-0.456-1.016-1.016-1.016zM9.143 20.571c-0.559 0-1.016 0.456-1.016 1.016s0.456 1.016 1.016 1.016c0.559 0 1.016-0.456 1.016-1.016s-0.456-1.016-1.016-1.016zM23.238 20.571c-0.56 0-1.016 0.456-1.016 1.016s0.456 1.016 1.016 1.016c0.559 0 1.016-0.456 1.016-1.016s-0.456-1.016-1.016-1.016h0z"/>
</symbol><symbol id="icon--spray" viewBox="0 0 32 32">
<title>spray</title>
<path d="M23.099 4.007c-0.043 0.014-0.084 0.033-0.122 0.058l-3.756 1.788h-0.061c-0.031 0.008-0.062 0.018-0.091 0.029-0.033 0.015-0.064 0.034-0.092 0.058l-0.030 0.029c-0.046 0.021-0.087 0.050-0.122 0.087l-0.030 0.029v0.029c-0.091 0.146-0.088 0.333 0.008 0.476s0.271 0.227 0.45 0.216l3.725 1.759c0.156 0.119 0.37 0.133 0.546 0.040 0.17-0.088 0.267-0.272 0.244-0.461-0.027-0.184-0.172-0.339-0.363-0.386l-2.076-0.98h3.817c0.176 0.004 0.34-0.087 0.427-0.227 0.092-0.143 0.092-0.326 0-0.469-0.088-0.141-0.252-0.231-0.427-0.227h-3.817l2.076-0.98c0.214-0.105 0.317-0.339 0.24-0.555s-0.309-0.35-0.546-0.31v0zM14.885 4.93c-0.588 0-0.977 0.368-0.977 0.923v1.471c0 0.184 0.202 0.375 0.397 0.375h0.397c-0.085 0.018-0.167 0.047-0.244 0.087 0 0-1.046 0.49-2.107 1.24-0.531 0.375-1.080 0.829-1.527 1.355s-0.824 1.164-0.824 1.932v14.765c0 0.555 0.389 0.923 0.977 0.923h9.771c0.588 0 0.977-0.368 0.977-0.923v-14.621c0.004-0.048 0.004-0.096 0-0.144 0-0.761-0.382-1.384-0.824-1.903s-1-0.948-1.527-1.327c-1.053-0.761-2.076-1.269-2.076-1.269-0.114-0.062-0.238-0.101-0.366-0.115h0.488c0.195 0 0.397-0.191 0.397-0.375v-1.471c0-0.555-0.389-0.923-0.977-0.923h-1.954zM15.16 9.544h1.405c0.157 0.079 0.84 0.425 1.649 1.009 0.37 0.267 0.668 0.552 0.947 0.836h-6.656c0.279-0.299 0.622-0.591 1.008-0.865 0.821-0.58 1.515-0.916 1.649-0.98v0zM15.863 16.003c1.66 0 2.931 1.2 2.931 2.768s-1.271 2.768-2.931 2.768c-1.66 0-2.931-1.2-2.931-2.768s1.271-2.768 2.931-2.768v0z"/>
</symbol><symbol id="icon--stering" viewBox="0 0 32 32">
<title>Stering</title>
<path d="M16 5.333c-5.867 0-10.667 4.8-10.667 10.667s4.8 10.667 10.667 10.667c5.867 0 10.667-4.8 10.667-10.667s-4.8-10.667-10.667-10.667zM16 7.467c4.331 0 7.928 3.273 8.458 7.467h-4.331c-0.486-1.882-2.183-3.198-4.127-3.2-1.943 0.003-3.639 1.318-4.125 3.2h-4.333c0.53-4.193 4.127-7.467 8.458-7.467zM7.542 17.067h4.331c0.389 1.499 1.561 2.67 3.060 3.058v4.333c-3.843-0.486-6.906-3.549-7.392-7.392zM20.125 17.067h4.333c-0.486 3.843-3.549 6.906-7.392 7.392v-4.331c1.499-0.389 2.67-1.561 3.058-3.060v0z"/>
</symbol><symbol id="icon--suspension" viewBox="0 0 32 32">
<title>Suspension</title>
<path d="M21.388 5.333l-1.721 1.709 5.281 5.316 1.718-1.707-1.792-1.806 1.792-1.804-1.718-1.709-1.78 1.794-1.78-1.794zM16.986 7.994l-1.718 1.707 7.042 7.091 1.718-1.709-7.042-7.089zM11.726 10.309c-0.316 0-0.632 0.116-0.859 0.346l-3.52 3.543c-0.469 0.473-0.469 1.235 0 1.707l0.911 0.921-0.911 0.918c-0.469 0.473-0.469 1.236 0 1.709l4.395 4.426c-0.99 0.732-2.352 0.654-3.252-0.253-0.464-0.467-0.704-1.059-0.736-1.671l-2.421 0.128c0.062 1.179 0.546 2.35 1.439 3.25 1.919 1.934 5.080 1.934 6.999 0l0.563-0.552-0.002-0.002c0.004-0.004 0.010-0.005 0.014-0.009l0.899-0.907 0.902 0.907c0.228 0.229 0.537 0.36 0.859 0.36s0.633-0.13 0.859-0.36l3.52-3.546c0.469-0.471 0.469-1.235 0-1.709l-8.8-8.86c-0.227-0.23-0.543-0.346-0.859-0.346z"/>
</symbol><symbol id="icon--transfer" viewBox="0 0 32 32">
<title>Transfer</title>
<path d="M16 5.333c5.891 0 10.667 4.776 10.667 10.667s-4.776 10.667-10.667 10.667c-5.891 0-10.667-4.776-10.667-10.667s4.776-10.667 10.667-10.667zM12.928 16.325c-0.379-0.434-0.993-0.434-1.371 0v0l-1.939 2.222c-0.282 0.323-0.37 0.826-0.191 1.26 0.103 0.249 0.070 0.174 2.13 2.534 0.189 0.217 0.437 0.325 0.686 0.325 0.856 0 1.298-1.195 0.686-1.897v0l-0.284-0.325h6.387c0.536 0 0.97-0.497 0.97-1.111s-0.434-1.111-0.97-1.111v0h-6.387l0.284-0.325c0.379-0.434 0.379-1.137 0-1.571zM20.444 9.659c-0.379-0.434-0.993-0.434-1.371 0s-0.379 1.137 0 1.571v0l0.284 0.325h-6.387c-0.536 0-0.97 0.498-0.97 1.111s0.434 1.111 0.97 1.111v0h6.387l-0.284 0.325c-0.613 0.702-0.17 1.897 0.686 1.897 0.248 0 0.496-0.108 0.686-0.325v0l1.939-2.222c0.35-0.4 0.382-1.047 0.065-1.49-0.045-0.062 0.123 0.133-2.004-2.304z"/>
</symbol><symbol id="icon--transmission-2" viewBox="0 0 32 32">
<title>transmission-2</title>
<path d="M7.704 5.333c-1.309 0-2.37 1.061-2.37 2.37 0.001 0.846 0.452 1.628 1.185 2.051v4.861c-0.021 0.128-0.021 0.259 0 0.387v4.875c-0.732 0.423-1.184 1.203-1.185 2.049 0 1.309 1.061 2.37 2.37 2.37s2.37-1.061 2.37-2.37c-0.001-0.846-0.452-1.628-1.185-2.051v-3.875h5.926v3.875c-0.733 0.423-1.185 1.205-1.185 2.051 0 1.309 1.061 2.37 2.37 2.37s2.37-1.061 2.37-2.37c-0.002-0.845-0.453-1.626-1.185-2.049v-3.877h5.926v6.248c-0.732 0.423-1.184 1.203-1.185 2.049 0 1.309 1.061 2.37 2.37 2.37s2.37-1.061 2.37-2.37c-0.001-0.846-0.452-1.628-1.185-2.051v-7.231c0.021-0.128 0.021-0.259 0-0.387v-4.875c0.732-0.423 1.184-1.203 1.185-2.049 0-1.309-1.061-2.371-2.37-2.371s-2.37 1.061-2.37 2.37c0.001 0.846 0.452 1.628 1.185 2.051v3.875h-5.926v-3.877c0.732-0.423 1.184-1.203 1.185-2.049 0-1.309-1.061-2.37-2.37-2.37s-2.37 1.061-2.37 2.37c0.001 0.846 0.452 1.628 1.185 2.051v3.875h-5.926v-3.877c0.732-0.423 1.184-1.203 1.185-2.049 0-1.309-1.061-2.37-2.37-2.37z"/>
</symbol><symbol id="icon--trash-delete" viewBox="0 0 32 32">
<title>trash-delete</title>
<path d="M21.49 5.655c0.593 0 0.988 0.395 0.988 0.988s-0.395 0.988-0.988 0.988h-13.835c-0.593 0-0.988-0.395-0.988-0.988s0.395-0.988 0.988-0.988h3.953l0.988-0.988h3.953l0.988 0.988h3.953zM12.796 24.431h-3.164c-1.087 0-1.976-0.889-1.976-1.976v-12.847h13.835v3.558c-0.233-0.019-0.468-0.029-0.706-0.029-0.927 0-1.819 0.149-2.654 0.424v-1.187h-1.482v1.839c-2.254 1.264-3.871 3.528-4.249 6.191v-8.030h-1.482v9.388h1.399c0.017 0.934 0.185 1.831 0.481 2.668zM20.784 28.667c-3.898 0-7.059-3.16-7.059-7.059s3.16-7.059 7.059-7.059c3.898 0 7.059 3.16 7.059 7.059s-3.16 7.059-7.059 7.059zM22.082 21.419l1.633-1.633c0.358-0.358 0.358-0.939 0-1.298s-0.939-0.358-1.298 0l-1.633 1.633-1.633-1.633c-0.358-0.358-0.939-0.358-1.298 0s-0.358 0.939 0 1.298l1.633 1.633-1.633 1.633c-0.358 0.358-0.358 0.939 0 1.298s0.939 0.358 1.298 0l1.633-1.633 1.633 1.633c0.358 0.358 0.939 0.358 1.298 0s0.358-0.939 0-1.298l-1.633-1.633z"/>
</symbol><symbol id="icon--trash" viewBox="0 0 32 32">
<title>trash</title>
<path d="M23.793 6.439h-4.425l-1.106-1.106h-4.425l-1.106 1.106h-4.425c-0.664 0-1.106 0.442-1.106 1.106s0.442 1.106 1.106 1.106h15.486c0.664 0 1.106-0.442 1.106-1.106s-0.442-1.106-1.106-1.106zM8.306 24.612c0 1.13 0.996 2.054 2.212 2.054h11.062c1.217 0 2.212-0.924 2.212-2.054v-13.353h-15.486v13.353zM18.578 13.63h1.659v10.667h-1.659v-10.667zM11.957 13.63h1.659v10.667h-1.659v-10.667z"/>
</symbol><symbol id="icon--unlisted" viewBox="0 0 32 32">
<title>unlisted</title>
<path d="M16 5.333c-5.867 0-10.667 4.8-10.667 10.667s4.8 10.667 10.667 10.667c5.867 0 10.667-4.8 10.667-10.667s-4.8-10.667-10.667-10.667zM22.4 17.067h-12.8v-2.133h12.8v2.133z"/>
</symbol><symbol id="icon--user-management" viewBox="0 0 32 32">
<title>User-Management</title>
<path d="M16 5.333c-5.891 0-10.667 4.775-10.667 10.667s4.775 10.667 10.667 10.667c5.891 0 10.667-4.775 10.667-10.667s-4.775-10.667-10.667-10.667zM16 8.267c1.915 0 3.467 1.552 3.467 3.467s-1.552 3.467-3.467 3.467c-1.915 0-3.467-1.552-3.467-3.467s1.552-3.467 3.467-3.467zM16 24.533c-2.955 0-5.557-1.502-7.089-3.783 1.196-1.739 5.005-2.617 7.089-2.617s5.893 0.878 7.089 2.617c-1.532 2.282-4.134 3.783-7.089 3.783z"/>
</symbol><symbol id="icon--wheel" viewBox="0 0 32 32">
<title>wheel</title>
<path d="M16 5.333c-5.867 0-10.667 4.8-10.667 10.667s4.8 10.667 10.667 10.667c5.867 0 10.667-4.8 10.667-10.667s-4.8-10.667-10.667-10.667zM14.933 7.531c0.352-0.043 0.704-0.064 1.067-0.064s0.715 0.021 1.067 0.064v3.136h-2.133v-3.136zM9.205 10.848l2.688 1.547-1.067 1.856-2.688-1.557c0.277-0.661 0.64-1.28 1.067-1.845zM9.205 21.152c-0.427-0.565-0.789-1.184-1.067-1.845l2.709-1.568 1.067 1.845-2.709 1.568zM17.067 24.469c-0.352 0.043-0.704 0.064-1.067 0.064s-0.715-0.021-1.067-0.064v-3.136h2.133v3.136zM16 18.133c-1.179 0-2.133-0.955-2.133-2.133s0.955-2.133 2.133-2.133c1.179 0 2.133 0.955 2.133 2.133s-0.955 2.133-2.133 2.133zM22.795 10.848c0.427 0.565 0.789 1.184 1.067 1.845l-2.699 1.557-1.067-1.845 2.699-1.557zM22.795 21.152l-2.677-1.547 1.067-1.845 2.677 1.547c-0.277 0.661-0.64 1.28-1.067 1.845z"/>
</symbol><symbol id="icon--working" viewBox="0 0 32 32">
<title>working</title>
<path d="M26.36 18.988c-0.371-0.273-0.874-0.161-1.122 0.249-3.625 5.979-10.87 7.33-15.995 3.439l1.122-1.142c0.142-0.144 0.089-0.403-0.095-0.465l-4.563-1.557c-0.184-0.063-0.361 0.118-0.319 0.324l1.044 5.139c0.042 0.207 0.272 0.285 0.413 0.141l1.18-1.201c5.898 4.75 14.368 3.219 18.556-3.69 0.249-0.41 0.149-0.964-0.222-1.236z"/>
<path d="M6.704 12.601c3.729-5.915 10.997-7.139 16.053-3.159l-1.142 1.122c-0.144 0.142-0.096 0.401 0.087 0.467l4.535 1.636c0.183 0.066 0.363-0.111 0.324-0.319l-0.954-5.156c-0.038-0.208-0.267-0.29-0.411-0.148l-1.201 1.181c-5.814-4.852-14.309-3.469-18.618 3.366-0.256 0.406-0.166 0.961 0.2 1.24s0.871 0.176 1.127-0.229z"/>
<path d="M22.26 14.785l-0.614-0.059c-0.181-0.018-0.334-0.143-0.387-0.318-0.106-0.35-0.245-0.684-0.415-1.001-0.086-0.161-0.067-0.358 0.049-0.498l0.393-0.476c0.148-0.179 0.135-0.44-0.029-0.604l-1.086-1.086c-0.164-0.164-0.425-0.176-0.604-0.029l-0.476 0.393c-0.141 0.116-0.338 0.135-0.498 0.049-0.317-0.17-0.651-0.309-1.001-0.415-0.175-0.053-0.3-0.206-0.318-0.387l-0.059-0.614c-0.022-0.23-0.216-0.407-0.448-0.407h-1.535c-0.232 0-0.426 0.176-0.448 0.407l-0.059 0.614c-0.018 0.181-0.143 0.334-0.318 0.387-0.35 0.106-0.684 0.245-1.001 0.415-0.161 0.086-0.358 0.067-0.498-0.049l-0.476-0.393c-0.179-0.148-0.44-0.135-0.604 0.029l-1.086 1.086c-0.164 0.164-0.176 0.425-0.029 0.604l0.393 0.476c0.116 0.141 0.135 0.338 0.049 0.498-0.17 0.317-0.309 0.651-0.415 1.001-0.053 0.175-0.206 0.3-0.387 0.318l-0.614 0.059c-0.231 0.022-0.407 0.216-0.407 0.448v1.535c0 0.232 0.176 0.426 0.407 0.448l0.614 0.059c0.181 0.018 0.334 0.143 0.387 0.318 0.106 0.349 0.245 0.684 0.415 1 0.086 0.161 0.067 0.358-0.049 0.499l-0.393 0.476c-0.148 0.179-0.135 0.44 0.029 0.605l1.085 1.085c0.164 0.164 0.425 0.176 0.604 0.029l0.476-0.393c0.141-0.116 0.338-0.135 0.498-0.049 0.317 0.17 0.651 0.309 1.001 0.415 0.175 0.053 0.3 0.206 0.318 0.387l0.059 0.614c0.022 0.23 0.216 0.407 0.448 0.407h1.535c0.232 0 0.426-0.176 0.448-0.407l0.059-0.614c0.018-0.181 0.143-0.334 0.318-0.387 0.349-0.106 0.684-0.245 1.001-0.415 0.161-0.086 0.358-0.067 0.498 0.049l0.476 0.393c0.179 0.148 0.44 0.135 0.604-0.029l1.085-1.085c0.164-0.164 0.177-0.426 0.029-0.605l-0.393-0.476c-0.116-0.141-0.135-0.338-0.049-0.499 0.17-0.316 0.309-0.651 0.415-1 0.053-0.175 0.206-0.3 0.387-0.318l0.614-0.059c0.231-0.022 0.407-0.216 0.407-0.448v-1.535c0-0.232-0.176-0.426-0.407-0.448zM16 18.667c-1.473 0-2.667-1.194-2.667-2.667s1.194-2.667 2.667-2.667c1.473 0 2.667 1.194 2.667 2.667s-1.194 2.667-2.667 2.667z"/>
<path d="M16 14.667c-0.735 0-1.333 0.598-1.333 1.333s0.598 1.333 1.333 1.333c0.735 0 1.333-0.598 1.333-1.333s-0.598-1.333-1.333-1.333z"/>
</symbol></svg>