<svg xmlns="http://www.w3.org/2000/svg"><symbol id="icon--android" viewBox="0 0 32 32">
<title>android</title>
<path d="M18.985 9.016v-1.031h-0.984v1.031h0.984zM13.968 9.016v-1.031h-0.984v1.031h0.984zM19.5 6.157c1.5 1.077 2.485 2.86 2.485 4.829h-12.001c0-1.968 0.938-3.75 2.438-4.829l-1.312-1.312c-0.187-0.187-0.187-0.516 0-0.704s0.516-0.187 0.704 0l1.5 1.5c0.797-0.422 1.734-0.657 2.672-0.657s1.828 0.235 2.626 0.657l1.5-1.5c0.187-0.187 0.516-0.187 0.704 0s0.187 0.516 0 0.704l-1.315 1.312zM24.47 12.016c0.844 0 1.5 0.657 1.5 1.5v6.986c0 0.844-0.657 1.5-1.5 1.5s-1.5-0.657-1.5-1.5v-6.986c0-0.844 0.657-1.5 1.5-1.5zM7.5 12.016c0.844 0 1.5 0.657 1.5 1.5v6.986c0 0.844-0.657 1.5-1.5 1.5s-1.5-0.657-1.5-1.5v-6.986c0-0.844 0.657-1.5 1.5-1.5zM9.984 22.001v-9.985h12.001v9.985c0 0.563-0.422 0.984-0.984 0.984h-1.031v3.516c0 0.844-0.657 1.5-1.5 1.5s-1.5-0.657-1.5-1.5v-3.516h-1.968v3.516c0 0.844-0.657 1.5-1.5 1.5s-1.5-0.657-1.5-1.5v-3.516h-1.031c-0.563 0-0.984-0.422-0.984-0.984h-0.005z"/>
</symbol><symbol id="icon--apple" viewBox="0 0 32 32">
<title>apple</title>
<path d="M25.956 21.525c-0.361 1.139-0.938 2.351-1.774 3.605-1.24 1.889-2.481 2.827-3.706 2.827-0.49 0-1.154-0.158-2.019-0.462-0.851-0.318-1.586-0.462-2.177-0.462-0.577 0-1.27 0.158-2.048 0.476-0.794 0.331-1.428 0.49-1.904 0.49-1.485 0-2.913-1.255-4.341-3.736-1.399-2.481-2.12-4.889-2.12-7.255 0-2.207 0.548-3.995 1.629-5.394 1.081-1.385 2.437-2.077 4.097-2.077 0.707 0 1.544 0.144 2.553 0.433 0.995 0.289 1.659 0.433 1.99 0.433 0.418 0 1.111-0.158 2.062-0.49 0.952-0.318 1.788-0.49 2.495-0.49 1.154 0 2.177 0.318 3.073 0.938 0.505 0.346 1.010 0.837 1.5 1.442-0.75 0.635-1.298 1.198-1.644 1.701-0.62 0.894-0.938 1.889-0.938 2.985 0 1.183 0.331 2.264 0.995 3.217s1.428 1.557 2.279 1.818h-0.002zM20.533 4.607c0 0.591-0.144 1.255-0.418 1.961-0.289 0.722-0.735 1.385-1.342 1.99-0.519 0.519-1.038 0.866-1.557 1.038-0.331 0.101-0.822 0.187-1.5 0.246 0.029-1.428 0.404-2.669 1.125-3.706s1.933-1.746 3.605-2.135c0.029 0.13 0.058 0.23 0.072 0.318 0 0.101 0.014 0.187 0.014 0.289v0z"/>
</symbol><symbol id="icon--social-facebook" viewBox="0 0 32 32">
<title>social-facebook</title>
<path d="M25.49 5.333h-18.98c-0.65 0-1.177 0.527-1.177 1.177v18.98c0 0.65 0.527 1.177 1.177 1.177h10.217v-8.262h-2.782v-3.218h2.782v-2.378c0-2.754 1.683-4.254 4.142-4.254 1.178 0 2.19 0.086 2.486 0.126v2.88h-1.707c-1.334 0-1.593 0.641-1.593 1.574v2.054h3.186l-0.414 3.226h-2.773v8.251h5.435c0.651 0 1.178-0.526 1.178-1.177v-18.98c0-0.65-0.526-1.177-1.177-1.177z"/>
</symbol><symbol id="icon--social-googleplus" viewBox="0 0 32 32">
<title>social-googleplus</title>
<path d="M10.665 14.663v3.201h5.298c-0.212 1.375-1.601 4.027-5.294 4.027-3.183 0-5.782-2.64-5.782-5.895 0-3.253 2.593-5.893 5.779-5.893 1.815 0 3.030 0.774 3.722 1.44l2.534-2.437c-1.625-1.522-3.735-2.438-6.252-2.438-5.166-0.003-9.336 4.177-9.336 9.329s4.173 9.332 9.332 9.332c5.39 0 8.961-3.787 8.961-9.119 0-0.612-0.066-1.082-0.147-1.546l-8.815 0.001zM30.667 14.663h-2.668v-2.668h-2.668v2.668h-2.667v2.666h2.669v2.669h2.676v-2.669h2.658v-2.666z"/>
</symbol><symbol id="icon--social-instagram" viewBox="0 0 32 32">
<title>social-instagram</title>
<path d="M16 5.333c-2.897 0-3.259 0.014-4.397 0.064-1.136 0.054-1.909 0.232-2.589 0.496-0.702 0.272-1.297 0.638-1.889 1.23s-0.959 1.187-1.23 1.89c-0.264 0.68-0.443 1.454-0.496 2.589-0.054 1.138-0.064 1.499-0.064 4.397s0.014 3.259 0.064 4.397c0.054 1.135 0.232 1.91 0.496 2.589 0.272 0.701 0.638 1.297 1.23 1.889s1.187 0.959 1.889 1.23c0.681 0.263 1.454 0.443 2.589 0.496 1.138 0.054 1.499 0.064 4.397 0.064s3.259-0.014 4.397-0.064c1.135-0.054 1.91-0.233 2.589-0.496 0.701-0.272 1.297-0.638 1.889-1.23s0.959-1.186 1.23-1.889c0.263-0.68 0.443-1.454 0.496-2.589 0.054-1.138 0.064-1.499 0.064-4.397s-0.014-3.259-0.064-4.397c-0.054-1.135-0.233-1.91-0.496-2.589-0.272-0.702-0.638-1.297-1.23-1.889s-1.186-0.959-1.889-1.23c-0.68-0.264-1.454-0.443-2.589-0.496-1.138-0.054-1.499-0.064-4.397-0.064zM16 7.253c2.847 0 3.186 0.014 4.311 0.063 1.040 0.049 1.605 0.222 1.979 0.369 0.499 0.193 0.854 0.424 1.229 0.797 0.373 0.374 0.603 0.728 0.797 1.227 0.146 0.375 0.32 0.939 0.367 1.979 0.050 1.126 0.062 1.463 0.062 4.311s-0.014 3.186-0.066 4.311c-0.054 1.040-0.227 1.605-0.374 1.979-0.199 0.499-0.426 0.854-0.799 1.229-0.373 0.373-0.733 0.603-1.226 0.797-0.374 0.146-0.946 0.32-1.986 0.367-1.133 0.050-1.466 0.062-4.319 0.062s-3.187-0.014-4.319-0.066c-1.041-0.054-1.614-0.227-1.987-0.374-0.506-0.199-0.854-0.426-1.226-0.799-0.374-0.373-0.614-0.733-0.8-1.226-0.146-0.374-0.319-0.946-0.374-1.986-0.040-1.12-0.054-1.466-0.054-4.305s0.014-3.187 0.054-4.321c0.054-1.040 0.226-1.613 0.374-1.986 0.186-0.506 0.426-0.854 0.8-1.227 0.373-0.373 0.72-0.613 1.226-0.798 0.374-0.147 0.934-0.321 1.974-0.374 1.134-0.040 1.466-0.054 4.319-0.054l0.040 0.026-0.002-0.001zM16 10.522c-3.026 0-5.477 2.453-5.477 5.477 0 3.026 2.453 5.477 5.477 5.477 3.026 0 5.477-2.453 5.477-5.477 0-3.026-2.453-5.477-5.477-5.477zM16 19.554c-1.965 0-3.555-1.591-3.555-3.555s1.591-3.555 3.555-3.555c1.964 0 3.555 1.591 3.555 3.555s-1.591 3.555-3.555 3.555zM22.974 10.306c0 0.706-0.574 1.28-1.28 1.28s-1.28-0.574-1.28-1.28 0.574-1.279 1.28-1.279c0.705-0.001 1.28 0.574 1.28 1.279z"/>
</symbol><symbol id="icon--social-line-alt" viewBox="0 0 32 32">
<title>social-line-alt</title>
<path d="M27.999 13.739c0-5.369-5.383-9.739-12-9.739s-12 4.364-12 9.739c0 4.815 4.27 8.846 10.038 9.607 0.391 0.085 0.92 0.257 1.058 0.591 0.052 0.189 0.082 0.405 0.082 0.629 0 0.162-0.015 0.319-0.045 0.472s-0.138 0.831-0.167 1.013c-0.053 0.304-0.23 1.187 1.040 0.646s6.902-4.070 9.433-6.968v0c1.73-1.907 2.562-3.842 2.562-5.991l-0.001 0.002zM11.764 16.606c0 0.127-0.103 0.23-0.23 0.23h-3.366c0 0-0.001 0-0.001 0-0.062 0-0.118-0.025-0.16-0.065v0c-0.040-0.041-0.065-0.097-0.065-0.16 0-0.001 0-0.001 0-0.002v0-5.231c0-0.127 0.103-0.23 0.23-0.23h0.842c0.127 0 0.23 0.103 0.23 0.23v4.152h2.287c0.127 0 0.23 0.103 0.23 0.23l0.003 0.845zM13.793 16.606c0 0.127-0.103 0.23-0.23 0.23h-0.844c-0.127 0-0.23-0.103-0.23-0.23v-5.229c0-0.127 0.103-0.23 0.23-0.23h0.842c0.127 0 0.23 0.103 0.23 0.23l0.003 5.229zM19.586 16.606c0 0.127-0.103 0.23-0.23 0.23h-0.842c-0.009 0.001-0.019 0.002-0.030 0.002s-0.021-0.001-0.031-0.002h-0.029c-0.024-0.015-0.044-0.035-0.059-0.057l-2.4-3.24v3.106c0 0.127-0.103 0.23-0.23 0.23h-0.842c-0.127 0-0.23-0.103-0.23-0.23v-5.268c0-0.127 0.103-0.23 0.23-0.23h0.969l0.014 0.014 0.018 0.023 2.397 3.237v-3.106c0-0.127 0.103-0.23 0.23-0.23h0.842c0.127 0 0.23 0.103 0.23 0.23l-0.007 5.292zM24.245 12.221c0 0.127-0.103 0.23-0.23 0.23h-2.301v0.884h2.287c0.127 0 0.23 0.103 0.23 0.23v0.842c0 0.127-0.103 0.23-0.23 0.23h-2.287v0.884h2.287c0.127 0 0.23 0.103 0.23 0.23v0.842c0 0.127-0.103 0.23-0.23 0.23h-3.361c0 0-0.001 0-0.001 0-0.062 0-0.118-0.025-0.16-0.065v0c-0.040-0.041-0.065-0.097-0.065-0.16 0-0.001 0-0.001 0-0.002v0-5.218c0 0 0-0.001 0-0.001 0-0.062 0.025-0.118 0.065-0.16v0c0.041-0.041 0.098-0.066 0.161-0.066h3.363c0.127 0 0.23 0.103 0.23 0.23l0.012 0.841z"/>
</symbol><symbol id="icon--social-line" viewBox="0 0 32 32">
<title>social-line-1</title>
<path d="M9.2 5.333c-2.125 0-3.867 1.742-3.867 3.866v13.6c0 2.125 1.742 3.866 3.867 3.866h13.6c2.125 0 3.866-1.742 3.866-3.866v-13.6c0-2.125-1.742-3.867-3.866-3.867h-13.6zM16 7.733c4.871 0 8.834 3.213 8.834 7.167 0 1.583-0.621 3.029-1.9 4.434-1.854 2.134-5.992 4.738-6.934 5.134s-0.804-0.275-0.766-0.5c0.021-0.134 0.134-0.734 0.134-0.734 0.029-0.225 0.058-0.575-0.034-0.8-0.1-0.246-0.479-0.371-0.766-0.434-4.246-0.562-7.4-3.558-7.4-7.1 0-3.954 3.962-7.167 8.834-7.167h-0.001zM10.066 12.8c-0.254 0-0.466 0.221-0.466 0.466v3.366c0 0.246 0.213 0.434 0.466 0.434h1.766c0.254 0 0.434-0.187 0.434-0.434s-0.179-0.466-0.434-0.466h-1.3v-2.9c0-0.246-0.213-0.466-0.466-0.466v0zM13.4 12.8c-0.254 0-0.466 0.221-0.466 0.466v3.366c0 0.246 0.213 0.434 0.466 0.434s0.466-0.187 0.466-0.434v-3.366c0-0.246-0.213-0.466-0.466-0.466zM15.366 12.8c-0.046 0-0.087 0.017-0.134 0.034-0.179 0.062-0.3 0.242-0.3 0.434v3.366c0 0.246 0.192 0.434 0.434 0.434 0.246 0 0.434-0.187 0.434-0.434v-2.1l1.734 2.366c0.083 0.113 0.196 0.166 0.334 0.166 0.046 0 0.121-0.017 0.166-0.034 0.183-0.062 0.3-0.208 0.3-0.4v-3.366c0-0.246-0.225-0.466-0.466-0.466s-0.434 0.221-0.434 0.466v2.066l-1.7-2.334c-0.083-0.113-0.229-0.2-0.366-0.2l-0.001 0.001zM19.834 12.8c-0.254 0-0.466 0.221-0.466 0.466v3.366c0 0.246 0.213 0.434 0.466 0.434h1.734c0.254 0 0.466-0.187 0.466-0.434s-0.213-0.466-0.466-0.466h-1.3v-0.766h1.3c0.254 0 0.466-0.221 0.466-0.466s-0.213-0.434-0.466-0.434h-1.3v-0.8h1.3c0.254 0 0.466-0.187 0.466-0.434s-0.213-0.466-0.466-0.466h-1.734z"/>
</symbol><symbol id="icon--social-rss" viewBox="0 0 32 32">
<title>social-rss</title>
<path d="M22.4 26.666c0-9.362-7.703-17.066-17.065-17.066v-4.266c11.702 0 21.333 9.631 21.333 21.333l-4.268-0.001zM8.259 20.813c1.613 0 2.927 1.314 2.927 2.929 0 1.611-1.32 2.925-2.934 2.925-1.611 0-2.918-1.31-2.918-2.925s1.311-2.928 2.926-2.929v0zM19.475 26.666h-4.146c0-5.483-4.511-9.995-9.994-9.995v-4.146c7.758 0 14.141 6.386 14.141 14.142l-0.001-0.001z"/>
</symbol><symbol id="icon--social-twitter" viewBox="0 0 32 32">
<title>social-twitter</title>
<path d="M27.953 8.99c-0.884 0.389-1.83 0.654-2.825 0.775 1.014-0.611 1.794-1.574 2.162-2.723-0.951 0.555-2.005 0.959-3.127 1.184-0.896-0.959-2.173-1.559-3.591-1.559-2.717 0-4.92 2.203-4.92 4.917 0 0.39 0.045 0.765 0.127 1.124-4.090-0.193-7.715-2.157-10.141-5.126-0.427 0.722-0.666 1.561-0.666 2.475 0 1.71 0.87 3.213 2.188 4.095-0.807-0.026-1.566-0.248-2.228-0.616v0.061c0 2.385 1.693 4.374 3.946 4.827-0.413 0.111-0.849 0.171-1.296 0.171-0.314 0-0.615-0.030-0.916-0.086 0.631 1.953 2.445 3.377 4.604 3.417-1.679 1.319-3.809 2.105-6.102 2.105-0.39 0-0.779-0.023-1.17-0.067 2.189 1.394 4.768 2.209 7.556 2.209 9.053 0 13.999-7.496 13.999-13.985 0-0.209 0-0.42-0.015-0.63 0.961-0.689 1.8-1.56 2.46-2.548l-0.047-0.020v0.002z"/>
</symbol><symbol id="icon--social-whatsapp" viewBox="0 0 32 32">
<title>social-whatsapp</title>
<path d="M23.479 8.434c-1.998-2.002-4.652-3.101-7.481-3.101-5.831 0-10.574 4.743-10.574 10.57-0.004 1.865 0.484 3.685 1.41 5.285l-1.501 5.479 5.608-1.472c1.543 0.844 3.283 1.286 5.053 1.29h0.004c5.827 0 10.57-4.743 10.574-10.574 0-2.824-1.096-5.479-3.093-7.477zM21.171 19.682c-0.219 0.616-1.298 1.212-1.782 1.253-0.488 0.045-0.943 0.219-3.172-0.657-2.688-1.058-4.383-3.813-4.516-3.99-0.133-0.174-1.075-1.431-1.075-2.73 0-1.303 0.682-1.94 0.922-2.204 0.244-0.264 0.53-0.331 0.707-0.331 0.174 0 0.352 0 0.504 0.008 0.191 0.004 0.397 0.017 0.595 0.455 0.236 0.521 0.749 1.828 0.815 1.96s0.112 0.29 0.021 0.463c-0.087 0.178-0.133 0.285-0.26 0.442-0.133 0.153-0.277 0.343-0.397 0.459-0.133 0.133-0.269 0.277-0.116 0.541s0.682 1.129 1.468 1.828c1.009 0.901 1.861 1.178 2.125 1.311s0.418 0.112 0.571-0.066c0.157-0.174 0.661-0.769 0.839-1.034 0.174-0.264 0.352-0.219 0.591-0.133 0.244 0.087 1.543 0.728 1.807 0.86s0.438 0.198 0.504 0.306c0.066 0.112 0.066 0.641-0.153 1.257l0.002 0.002z"/>
</symbol><symbol id="icon--social-youtube" viewBox="0 0 32 32">
<title>social-youtube</title>
<path d="M27.499 10.59c-0.29-1.015-1.074-1.799-2.068-2.084l-0.021-0.005c-1.87-0.501-9.4-0.501-9.4-0.501s-7.51-0.010-9.4 0.501c-1.015 0.29-1.799 1.074-2.084 2.068l-0.005 0.021c-0.332 1.711-0.522 3.679-0.522 5.691 0 0.041 0 0.082 0 0.122v-0.006c0 0.028 0 0.062 0 0.095 0 2.012 0.19 3.979 0.553 5.886l-0.031-0.195c0.29 1.015 1.074 1.799 2.068 2.084l0.021 0.005c1.869 0.502 9.4 0.502 9.4 0.502s7.509 0 9.4-0.502c1.015-0.29 1.799-1.074 2.084-2.068l0.005-0.021c0.319-1.675 0.501-3.604 0.501-5.574 0-0.074 0-0.149-0.001-0.223v0.011c0.001-0.069 0.001-0.151 0.001-0.233 0-1.97-0.182-3.898-0.531-5.767l0.030 0.194v-0.001zM13.607 19.99v-7.196l6.266 3.604-6.266 3.592z"/>
</symbol></svg>