<svg xmlns="http://www.w3.org/2000/svg"><symbol id="icon--apps" viewBox="0 0 32 32">
<title>app</title>
<path d="M21.302 26.667v-5.365h5.365v5.365h-5.365zM21.302 18.682v-5.365h5.365v5.365h-5.365zM13.318 10.698v-5.365h5.365v5.365h-5.365zM21.302 5.333h5.365v5.365h-5.365v-5.365zM13.318 18.682v-5.365h5.365v5.365h-5.365zM5.333 18.682v-5.365h5.365v5.365h-5.365zM5.333 26.667v-5.365h5.365v5.365h-5.365zM13.318 26.667v-5.365h5.365v5.365h-5.365zM5.333 10.698v-5.365h5.365v5.365h-5.365z"/>
</symbol><symbol id="icon--arrow-down" viewBox="0 0 32 32">
<title>arrow-down</title>
<path d="M14.667 5.333v16.227l-7.453-7.453-1.88 1.893 10.667 10.667 10.667-10.667-1.88-1.88-7.453 7.44v-16.227z"/>
</symbol><symbol id="icon--arrow-left" viewBox="0 0 32 32">
<title>arrow-left</title>
<path d="M26.667 14.667h-16.227l7.453-7.453-1.893-1.88-10.667 10.667 10.667 10.667 1.88-1.88-7.44-7.453h16.227z"/>
</symbol><symbol id="icon--arrow-right" viewBox="0 0 32 32">
<title>arrow-right</title>
<path d="M5.333 14.667h16.227l-7.453-7.453 1.893-1.88 10.667 10.667-10.667 10.667-1.88-1.88 7.44-7.453h-16.227z"/>
</symbol><symbol id="icon--arrow-up" viewBox="0 0 32 32">
<title>arrow-up</title>
<path d="M14.667 26.667v-16.227l-7.453 7.453-1.88-1.893 10.667-10.667 10.667 10.667-1.88 1.88-7.453-7.44v16.227z"/>
</symbol><symbol id="icon--caret-down" viewBox="0 0 32 32">
<title>caret-down</title>
<path d="M5.333 10.667l10.667 10.667 10.667-10.667z"/>
</symbol><symbol id="icon--caret-up" viewBox="0 0 32 32">
<title>caret-up</title>
<path d="M5.333 21.333l10.667-10.667 10.667 10.667z"/>
</symbol><symbol id="icon--chevron-down" viewBox="0 0 32 32">
<title>chevron-down</title>
<path d="M7.833 9.333l8.167 8.167 8.167-8.167 2.5 2.5-10.667 10.667-10.667-10.667z"/>
</symbol><symbol id="icon--chevron-left" viewBox="0 0 32 32">
<title>chevron-left</title>
<path d="M22.5 24.167l-2.5 2.5-10.667-10.667 10.667-10.667 2.5 2.5-8.167 8.167z"/>
</symbol><symbol id="icon--chevron-right" viewBox="0 0 32 32">
<title>chevron-right</title>
<path d="M9.333 24.167l8.167-8.167-8.167-8.167 2.5-2.5 10.667 10.667-10.667 10.667z"/>
</symbol><symbol id="icon--chevron-up" viewBox="0 0 32 32">
<title>chevron-up</title>
<path d="M7.833 22.5l-2.5-2.5 10.667-10.667 10.667 10.667-2.5 2.5-8.167-8.167z"/>
</symbol><symbol id="icon--menu" viewBox="0 0 32 32">
<title>Menu</title>
<path d="M5.333 22.667h21.333v-2.667h-21.333v2.667zM5.333 17.333h21.333v-2.667h-21.333v2.667zM5.333 9.333v2.667h21.333v-2.667h-21.333z"/>
</symbol><symbol id="icon--more-alt" viewBox="0 0 32 32">
<title>more-alt</title>
<path d="M16 21.333c-1.473 0-2.667 1.194-2.667 2.667s1.194 2.667 2.667 2.667c1.473 0 2.667-1.194 2.667-2.667s-1.194-2.667-2.667-2.667zM16 13.333c-1.473 0-2.667 1.194-2.667 2.667s1.194 2.667 2.667 2.667c1.473 0 2.667-1.194 2.667-2.667s-1.194-2.667-2.667-2.667zM16 5.333c-1.473 0-2.667 1.194-2.667 2.667s1.194 2.667 2.667 2.667c1.473 0 2.667-1.194 2.667-2.667s-1.194-2.667-2.667-2.667z"/>
</symbol><symbol id="icon--more" viewBox="0 0 32 32">
<title>more</title>
<path d="M16 13.333c1.435 0 2.683 1.248 2.683 2.683s-1.247 2.683-2.683 2.683c-1.435 0-2.683-1.247-2.683-2.683s1.248-2.683 2.683-2.683v0zM23.984 13.333c1.435 0 2.683 1.248 2.683 2.683s-1.247 2.683-2.683 2.683c-1.435 0-2.683-1.247-2.683-2.683s1.247-2.683 2.683-2.683zM8.016 13.333c1.435 0 2.683 1.248 2.683 2.683s-1.248 2.683-2.683 2.683c-1.435 0-2.683-1.247-2.683-2.683s1.248-2.683 2.683-2.683z"/>
</symbol></svg>