<svg xmlns="http://www.w3.org/2000/svg"><symbol id="icon--add" viewBox="0 0 32 32">
<title>add</title>
<path d="M26.667 17.504h-9.163v9.163h-3.008v-9.163h-9.163v-3.008h9.163v-9.163h3.008v9.163h9.163z"/>
</symbol><symbol id="icon--attachment" viewBox="0 0 32 32">
<title>attachement</title>
<path d="M2.667 16.053c0-4.069 3.255-7.386 7.324-7.386h14.021c2.942 0 5.321 2.442 5.321 5.383s-2.379 5.321-5.321 5.321h-11.33c-1.816 0-3.38-1.502-3.38-3.318s1.565-3.38 3.38-3.38h10.015v2.692h-10.14c-0.751 0-0.751 1.315 0 1.315h11.455c1.44 0 2.692-1.19 2.692-2.629s-1.252-2.692-2.692-2.692h-14.021c-2.567 0-4.695 2.128-4.695 4.695s2.128 4.632 4.695 4.632h12.707v2.692h-12.707c-4.069 0-7.324-3.255-7.324-7.324v-0.001z"/>
</symbol><symbol id="icon--bookmark" viewBox="0 0 32 32">
<title>bookmark</title>
<path d="M23.352 5.333h-14.513c-0.463 0.001-0.839 0.365-0.839 0.811v21.856l8.095-3.263 0.199 0.080 7.896 3.183v-21.855c-0.001-0.446-0.377-0.81-0.839-0.811v0 0z"/>
</symbol><symbol id="icon--chat" viewBox="0 0 32 32">
<title>chat</title>
<path d="M21.359 16.281v-2.154h-2.154v2.154h2.154zM17.052 16.281v-2.154h-2.103v2.154h2.103zM12.795 16.281v-2.154h-2.154v2.154h2.154zM24.563 6.667c1.152 0 2.103 0.952 2.103 2.103v12.82c0 1.152-0.952 2.154-2.103 2.154h-14.973l-4.257 4.257v-19.229c0-1.152 0.952-2.103 2.103-2.103l17.127-0.001z"/>
</symbol><symbol id="icon--check-circle" viewBox="0 0 32 32">
<title>check-circle</title>
<path d="M13.847 21.358l9.615-9.615-1.502-1.553-8.112 8.112-3.806-3.806-1.502 1.502 5.308 5.359zM16 5.333c5.909 0 10.667 4.758 10.667 10.667s-4.758 10.667-10.667 10.667c-5.909 0-10.667-4.758-10.667-10.667s4.758-10.667 10.667-10.667z"/>
</symbol><symbol id="icon--check-success" viewBox="0 0 32 32">
<title>check-success</title>
<path d="M27.503 15.27l-2.035-2.142 0.428-2.892c0.107-0.643-0.321-1.178-0.857-1.285l-2.999-0.428-1.392-2.57c-0.321-0.535-0.964-0.75-1.499-0.428l-2.57 1.178-2.677-1.285c-0.536-0.214-1.178 0-1.392 0.428l-1.392 2.677-2.892 0.428c-0.643 0.107-0.964 0.75-0.964 1.285l0.428 2.892-2.035 2.142c-0.428 0.428-0.428 1.071 0 1.499l2.035 2.142-0.428 2.892c-0.107 0.643 0.321 1.178 0.857 1.285l2.999 0.428 1.392 2.57c0.321 0.535 0.964 0.75 1.499 0.428l2.677-1.285 2.677 1.285c0.535 0.214 1.178 0 1.499-0.428l1.392-2.57 2.892-0.535c0.535-0.107 0.964-0.643 0.857-1.285l-0.428-2.892 2.035-2.142c0.321-0.321 0.321-0.964-0.107-1.392zM15.293 20.732l-4.070-3.963 1.499-1.499 2.463 2.463 5.676-5.676 1.499 1.499-7.068 7.176z"/>
</symbol><symbol id="icon--check" viewBox="0 0 32 32">
<title>check</title>
<path d="M12.104 20.856l12.856-12.856 1.707 1.707-14.563 14.563-6.771-6.769 1.707-1.707z"/>
</symbol><symbol id="icon--checkbox-checked" viewBox="0 0 32 32">
<title>checkbox-check</title>
<path d="M24.296 5.333h-16.592c-1.309 0-2.371 1.060-2.371 2.371v16.592c0 1.309 1.060 2.371 2.371 2.371h16.592c1.309 0 2.371-1.060 2.371-2.371v-16.592c0-1.309-1.060-2.371-2.371-2.371zM13.63 22.416l-5.578-5.578 1.675-1.675 3.903 3.903 8.643-8.643 1.675 1.675-10.319 10.319z"/>
</symbol><symbol id="icon--checkbox" viewBox="0 0 32 32">
<title>checkbox</title>
<path d="M24.296 7.704v16.592h-16.592v-16.592h16.592zM24.296 5.333h-16.592c-1.304 0-2.371 1.067-2.371 2.371v16.592c0 1.304 1.067 2.371 2.371 2.371h16.592c1.304 0 2.371-1.067 2.371-2.371v-16.592c0-1.304-1.067-2.371-2.371-2.371z"/>
</symbol><symbol id="icon--close" viewBox="0 0 32 32">
<title>close</title>
<path d="M26.667 7.481l-8.519 8.519 8.519 8.519-2.148 2.148-8.519-8.519-8.519 8.519-2.148-2.148 8.519-8.519-8.519-8.519 2.148-2.148 8.519 8.519 8.519-8.519z"/>
</symbol><symbol id="icon--compare" viewBox="0 0 32 32">
<title>compare</title>
<path d="M22.179 22.028v-4.845h2.366v7.211h-14.423v3.606l-4.789-4.789 4.789-4.789v3.606l12.056 0.001zM10.123 9.972v4.845h-2.366v-7.211h14.423v-3.606l4.789 4.789-4.789 4.789v-3.606l-12.056-0.001z"/>
</symbol><symbol id="icon--content-paste" viewBox="0 0 32 32">
<title>content-paste</title>
<path d="M23.783 25.851v-17.501h-2.149v3.275h-10.951v-3.275h-2.149v17.501h15.249zM16.158 6.201c-0.614 0-1.075 0.461-1.075 1.075s0.461 1.075 1.075 1.075c0.614 0 1.075-0.461 1.075-1.075s-0.461-1.075-1.075-1.075v0zM23.783 6.201c1.177 0 2.201 0.973 2.201 2.149v17.501c0 1.177-1.023 2.149-2.201 2.149h-15.249c-1.177 0-2.201-0.973-2.201-2.149v-17.501c0-1.177 1.023-2.149 2.201-2.149h4.555c0.461-1.28 1.637-2.201 3.070-2.201s2.61 0.921 3.070 2.201h4.554z"/>
</symbol><symbol id="icon--cooperate" viewBox="0 0 32 32">
<title>cooperate</title>
<path d="M8.933 4c-1.325 0-2.4 1.074-2.4 2.4s1.074 2.4 2.4 2.4c1.325 0 2.4-1.074 2.4-2.4s-1.074-2.4-2.4-2.4zM23.334 4c-1.325 0-2.4 1.074-2.4 2.4s1.074 2.4 2.4 2.4c1.325 0 2.4-1.074 2.4-2.4s-1.074-2.4-2.4-2.4zM7.733 11.2c-1.326 0-2.4 1.074-2.4 2.4v14.4h2.4v-7.2h2.4v7.2h2.4v-11.796l3.6 3.602 3.6-3.602v11.796h2.4v-7.2h2.4v7.2h2.4v-14.4c0-1.326-1.074-2.4-2.4-2.4h-2.4c-0.668 0-1.269 0.273-1.704 0.713l-0.002-0.002-4.294 4.296-4.334-4.336-0.005 0.005c-0.431-0.416-1.015-0.675-1.662-0.675h-2.398z"/>
</symbol><symbol id="icon--cross-circle" viewBox="0 0 32 32">
<title>cross-circle</title>
<path d="M16 5.333c-5.878 0-10.667 4.79-10.667 10.667s4.79 10.667 10.667 10.667c5.878 0 10.667-4.79 10.667-10.667s-4.79-10.667-10.667-10.667zM22.731 21.227c-0.426 0.566-0.938 1.078-1.504 1.504l-5.227-5.227-5.227 5.227c-0.566-0.426-1.078-0.938-1.504-1.504l5.227-5.227-5.227-5.227c0.426-0.566 0.938-1.078 1.504-1.504l5.227 5.227 5.227-5.227c0.566 0.426 1.078 0.938 1.504 1.504l-5.227 5.227 5.227 5.227z"/>
</symbol><symbol id="icon--delete" viewBox="0 0 32 32">
<title>delete</title>
<path d="M25.291 5.313v2.688h-18.624v-2.688h4.625l1.375-1.313h6.625l1.375 1.313h4.625zM7.979 25.312v-15.999h15.999v15.999c0 1.438-1.25 2.688-2.688 2.688h-10.625c-1.438 0-2.688-1.25-2.688-2.688h0.001z"/>
</symbol><symbol id="icon--exit" viewBox="0 0 32 32">
<title>exit</title>
<path d="M24.277 5.333c1.278 0 2.389 1.111 2.389 2.389v16.555c0 1.278-1.111 2.389-2.389 2.389h-16.555c-1.333 0-2.389-1.111-2.389-2.389v-4.722h2.389v4.722h16.555v-16.555h-16.555v4.722h-2.389v-4.722c0-1.278 1.056-2.389 2.389-2.389h16.555zM13.722 20.278l3.056-3.111h-11.444v-2.333h11.444l-3.056-3.111 1.667-1.667 5.945 5.945-5.945 5.945-1.667-1.668z"/>
</symbol><symbol id="icon--favorite-outline" viewBox="0 0 32 32">
<title>favorite-outline</title>
<path d="M16.113 24.038c5.746-5.183 9.521-8.62 9.521-12.113 0-2.423-1.803-4.169-4.226-4.169-1.86 0-3.662 1.183-4.282 2.817h-2.253c-0.62-1.634-2.423-2.817-4.282-2.817-2.423 0-4.226 1.747-4.226 4.169 0 3.493 3.775 6.93 9.521 12.113l0.113 0.113 0.113-0.113zM21.408 5.334c3.718 0 6.592 2.874 6.592 6.592 0 4.564-4.056 8.225-10.253 13.859l-1.747 1.577-1.747-1.522c-6.197-5.634-10.253-9.352-10.253-13.915 0-3.718 2.874-6.592 6.592-6.592 2.085 0 4.113 1.014 5.408 2.536 1.296-1.522 3.324-2.536 5.408-2.536v0.001z"/>
</symbol><symbol id="icon--favorite" viewBox="0 0 32 32">
<title>favorite</title>
<path d="M16 27.361l-1.747-1.577c-6.197-5.634-10.253-9.296-10.253-13.859 0-3.718 2.874-6.592 6.592-6.592 2.085 0 4.113 1.014 5.408 2.536 1.296-1.522 3.324-2.536 5.408-2.536 3.718 0 6.592 2.874 6.592 6.592 0 4.564-4.056 8.282-10.253 13.915l-1.747 1.521z"/>
</symbol><symbol id="icon--filter" viewBox="0 0 32 32">
<title>filter</title>
<path d="M5.333 21.926v2.37h7.111v-2.37h-7.111zM5.333 7.704v2.37h11.852v-2.37h-11.852zM17.185 26.667v-2.37h9.481v-2.37h-9.481v-2.37h-2.37v7.111h2.37zM10.074 12.444v2.37h-4.741v2.37h4.741v2.37h2.37v-7.111h-2.37zM26.667 17.185v-2.37h-11.852v2.37h11.852zM19.556 12.444h2.37v-2.37h4.741v-2.37h-4.741v-2.37h-2.37v7.111z"/>
</symbol><symbol id="icon--flag" viewBox="0 0 32 32">
<title>flag</title>
<path d="M18.42 7.86h7.052v12.517h-8.815l-0.471-2.468h-7.052v8.757h-2.468v-21.333h11.284z"/>
</symbol><symbol id="icon--grid" viewBox="0 0 32 32">
<title>grid</title>
<path d="M14.476 17.524v9.143h-9.143v-9.143h9.143zM26.667 17.524v9.143h-9.143v-9.143h9.143zM14.476 5.333v9.143h-9.143v-9.143h9.143zM26.667 5.333v9.143h-9.143v-9.143h9.143z"/>
</symbol><symbol id="icon--invisible" viewBox="0 0 32 32">
<title>Invisible</title>
<path d="M8.246 21.924c-3.001-2.544-4.246-5.864-4.246-5.864s3.273-8.727 12-8.727c2.3 0 4.221 0.606 5.803 1.499l3.821-3.69c0.53-0.512 1.374-0.497 1.885 0.033s0.497 1.374-0.033 1.885l-3.472 3.353c2.82 2.512 3.996 5.646 3.996 5.646s-3.273 8.727-12 8.727c-2.155 0-3.977-0.532-5.5-1.333l-4.124 3.983c-0.53 0.512-1.374 0.497-1.885-0.033s-0.497-1.374 0.033-1.885l3.723-3.595zM19.021 11.519c-0.865-0.577-1.904-0.913-3.021-0.913-3.012 0-5.455 2.443-5.455 5.455 0 1.049 0.296 2.029 0.81 2.861l1.633-1.577c-0.168-0.394-0.261-0.828-0.261-1.284 0-1.807 1.465-3.273 3.273-3.273 0.496 0 0.967 0.11 1.388 0.308l1.633-1.577zM20.814 13.495l-1.68 1.622c0.090 0.299 0.138 0.616 0.138 0.944 0 1.807-1.465 3.273-3.273 3.273-0.368 0-0.722-0.061-1.053-0.173l-1.68 1.622c0.803 0.466 1.737 0.733 2.732 0.733 3.012 0 5.455-2.443 5.455-5.455 0-0.928-0.232-1.801-0.64-2.566z"/>
</symbol><symbol id="icon--mail" viewBox="0 0 32 32">
<title>mail</title>
<path d="M24.581 12.331v-2.165l-8.581 5.373-8.581-5.373v2.165l8.581 5.293 8.581-5.293zM24.581 8c1.123 0 2.085 0.962 2.085 2.165v12.832c0 1.123-0.962 2.165-2.085 2.165h-17.163c-1.123 0-2.085-0.962-2.085-2.165v-12.832c0-1.123 0.962-2.165 2.085-2.165 0 0 17.163 0 17.163 0z"/>
</symbol><symbol id="icon--open-window" viewBox="0 0 32 32">
<title>open-window</title>
<path d="M18.389 5.333h8.278v8.278h-2.389v-4.222l-11.611 11.611-1.667-1.667 11.611-11.611h-4.222v-2.389zM24.277 24.277v-8.278h2.389v8.278c0 1.278-1.111 2.389-2.389 2.389h-16.555c-1.333 0-2.389-1.111-2.389-2.389v-16.555c0-1.278 1.056-2.389 2.389-2.389h8.278v2.389h-8.278v16.555h16.555z"/>
</symbol><symbol id="icon--pencil" viewBox="0 0 32 32">
<title>pencil</title>
<path d="M22.64 5.333c-0.287 0-0.575 0.109-0.794 0.329l-1.917 1.917 4.491 4.491 1.917-1.917c0.439-0.439 0.439-1.15 0-1.588l-2.903-2.904c-0.22-0.22-0.507-0.329-0.794-0.329zM18.245 9.263l-12.912 12.912v4.491h4.491l12.912-12.912-4.491-4.491z"/>
</symbol><symbol id="icon--print" viewBox="0 0 32 32">
<title>print</title>
<path d="M25.943 15.131c-0.483-0.458-1.062-0.687-1.737-0.687h-0.82v-3.111c0-0.324-0.086-0.681-0.257-1.069s-0.376-0.697-0.615-0.924l-1.949-1.847c-0.239-0.227-0.564-0.421-0.974-0.583s-0.786-0.243-1.128-0.243h-8.616c-0.342 0-0.633 0.113-0.872 0.34s-0.359 0.502-0.359 0.826v6.611h-0.82c-0.675 0-1.254 0.229-1.737 0.687s-0.724 1.007-0.724 1.647v5.056c0 0.105 0.041 0.196 0.122 0.274s0.177 0.115 0.288 0.115h2.872v1.944c0 0.324 0.12 0.6 0.359 0.826s0.53 0.34 0.872 0.34h12.308c0.342 0 0.633-0.114 0.872-0.34s0.359-0.502 0.359-0.826v-1.944h2.872c0.111 0 0.207-0.038 0.288-0.115s0.122-0.168 0.122-0.274v-5.056c0-0.64-0.241-1.189-0.724-1.647zM21.744 23.778h-11.487v-3.111h11.487v3.111zM21.744 16h-11.487v-7.778h8.205v1.944c0 0.324 0.12 0.599 0.359 0.826s0.53 0.34 0.872 0.34h2.051v4.667zM24.782 17.325c-0.162 0.154-0.355 0.231-0.577 0.231s-0.415-0.077-0.577-0.231c-0.162-0.154-0.243-0.336-0.243-0.547s0.081-0.393 0.243-0.547c0.162-0.154 0.355-0.231 0.577-0.231s0.415 0.077 0.577 0.231c0.162 0.154 0.244 0.336 0.244 0.547s-0.081 0.393-0.244 0.547z"/>
</symbol><symbol id="icon--search" viewBox="0 0 32 32">
<title>search</title>
<path d="M13.283 18.774c3.031 0 5.491-2.459 5.491-5.491s-2.459-5.491-5.491-5.491c-3.031 0-5.491 2.459-5.491 5.491s2.459 5.491 5.491 5.491zM20.604 18.774l6.063 6.063-1.83 1.83-6.063-6.063v-0.972l-0.343-0.343c-1.373 1.201-3.203 1.887-5.147 1.887-4.404 0-7.95-3.489-7.95-7.893s3.546-7.95 7.95-7.95c4.403 0 7.893 3.546 7.893 7.95 0 1.945-0.686 3.774-1.887 5.147l0.343 0.343h0.972z"/>
</symbol><symbol id="icon--send" viewBox="0 0 32 32">
<title>send</title>
<path d="M4.667 26.307v-7.983l17.143-2.304-17.143-2.304v-7.983l24 10.285z"/>
</symbol><symbol id="icon--settings" viewBox="0 0 32 32">
<title>settings</title>
<path d="M16.071 19.756c2.053 0 3.756-1.702 3.756-3.756s-1.702-3.756-3.756-3.756c-2.053 0-3.756 1.702-3.756 3.756s1.702 3.756 3.756 3.756zM24.033 17.052l2.254 1.753c0.2 0.151 0.251 0.451 0.1 0.701l-2.154 3.705c-0.151 0.251-0.401 0.3-0.651 0.2l-2.654-1.052c-0.551 0.401-1.152 0.801-1.803 1.052l-0.401 2.804c-0.050 0.251-0.251 0.451-0.501 0.451h-4.306c-0.251 0-0.451-0.2-0.501-0.451l-0.401-2.804c-0.651-0.251-1.252-0.601-1.803-1.052l-2.654 1.052c-0.251 0.1-0.501 0.050-0.651-0.2l-2.154-3.705c-0.151-0.251-0.1-0.551 0.1-0.701l2.254-1.753c-0.050-0.351-0.050-0.701-0.050-1.052s0-0.701 0.050-1.052l-2.254-1.753c-0.2-0.151-0.251-0.451-0.1-0.701l2.154-3.705c0.151-0.251 0.401-0.3 0.651-0.2l2.654 1.052c0.551-0.401 1.152-0.801 1.803-1.052l0.401-2.804c0.050-0.251 0.251-0.451 0.501-0.451h4.306c0.251 0 0.451 0.2 0.501 0.451l0.401 2.804c0.651 0.251 1.252 0.601 1.803 1.052l2.654-1.052c0.251-0.1 0.501-0.050 0.651 0.2l2.154 3.705c0.151 0.251 0.1 0.551-0.1 0.701l-2.254 1.753c0.050 0.351 0.050 0.701 0.050 1.052s0 0.701-0.050 1.052z"/>
</symbol><symbol id="icon--share" viewBox="0 0 32 32">
<title>share</title>
<path d="M23.111 20.867c1.889 0 3.444 1.556 3.444 3.444s-1.556 3.5-3.444 3.5c-1.889 0-3.444-1.612-3.444-3.5 0-0.278 0-0.556 0.056-0.778l-8.389-4.889c-0.667 0.612-1.5 0.945-2.444 0.945-1.945 0-3.556-1.612-3.556-3.556s1.612-3.556 3.556-3.556c0.945 0 1.778 0.333 2.444 0.945l8.333-4.834c-0.056-0.278-0.111-0.556-0.111-0.834 0-1.945 1.612-3.556 3.556-3.556s3.556 1.612 3.556 3.556c0 1.944-1.612 3.556-3.556 3.556-0.945 0-1.778-0.389-2.444-1l-8.333 4.889c0.056 0.278 0.111 0.556 0.111 0.834s-0.056 0.556-0.111 0.834l8.444 4.889c0.612-0.556 1.444-0.889 2.333-0.889v-0.001z"/>
</symbol><symbol id="icon--sort" viewBox="0 0 32 32">
<title>sort</title>
<path d="M14.154 16.82v-3.282h9.846v3.282h-9.846zM14.154 25.026v-3.282h4.923v3.282h-4.923zM14.154 10.256v-3.282h14.769v3.282h-14.769zM7.941 22.274h2.93l-4.103 4.392-4.103-4.392h2.93v-12.549h-2.93l4.103-4.392 4.103 4.392h-2.93v12.549z"/>
</symbol><symbol id="icon--speech" viewBox="0 0 32 32">
<title>speech</title>
<path d="M16 5.333c-5.882 0-10.666 4.307-10.666 9.6 0 5.61 5.376 10.141 11.733 9.549v3.35l1.642-1.054c1.207-0.774 7.261-4.937 7.897-10.826 0.039-0.335 0.061-0.675 0.061-1.018 0-5.293-4.785-9.6-10.666-9.6l-0.001-0.001zM12.8 16h-2.134v-2.134h2.134v2.134zM17.066 16h-2.134v-2.134h2.134v2.134zM21.333 16h-2.134v-2.134h2.134v2.134z"/>
</symbol><symbol id="icon--star" viewBox="0 0 32 32">
<title>star</title>
<path d="M15.999 22.311l-7.436 4.507 1.972-8.451-6.535-5.691 8.62-0.732 3.38-7.944 3.38 7.944 8.62 0.732-6.535 5.691 1.972 8.451z"/>
</symbol><symbol id="icon--support" viewBox="0 0 32 32">
<title>support</title>
<path d="M15.589 5.335c-4.359 0-9.589 3.487-9.589 9.589v4.359c0 1.322 0.579 2.264 1.17 2.78 0.36 0.315 0.511 0.32 0.753 0.415 0.317 0.819 2.342 5.522 7.667 5.522 0.029 0 0.057-0.003 0.087-0.003 0.001 0 0.002 0 0.003 0s0.002 0 0.003 0v0c1.997-0.023 3.589-0.756 4.808-1.74h-4.902c-4.65 0-6.147-4.635-6.147-4.635l-0.151-0.454-0.465-0.116c0 0-0.228-0.054-0.509-0.3s-0.574-0.612-0.574-1.469v-0.872h0.872c0-6.103 8.718-1.743 11.333-7.846 0 0 2.615 2.406 2.615 7.846v2.615h0.713c-0.357 1.018-1.311 1.743-2.457 1.743h-3.567c-0.18-0.507-0.66-0.872-1.228-0.872h-0.872c-0.722 0-1.308 0.586-1.308 1.308s0.586 1.308 1.308 1.308h0.872c0.078 0 0.154-0.011 0.228-0.024 0.060 0.016 0.131 0.024 0.203 0.024 0.002 0 0.003 0 0.006 0h4.359c2.172 0 3.981-1.613 4.303-3.698 0.55-0.293 0.928-0.866 0.928-1.532v-0.872c0-0.644-0.352-1.2-0.872-1.501v-1.985c0-3.487-1.743-7.846-5.231-7.846 0 0-0.872-1.743-4.359-1.743v0.002z"/>
</symbol><symbol id="icon--tool" viewBox="0 0 32 32">
<title>Tools</title>
<path d="M14.646 10.881c0.51-1.824 0.047-3.862-1.384-5.297-1.427-1.42-3.444-1.886-5.255-1.394l3.071 3.072-0.807 3.006-3.010 0.805-3.073-3.069c-0.489 1.813-0.023 3.828 1.402 5.254 1.49 1.493 3.641 1.932 5.522 1.319l0.018 0.017 12.633 12.633c0.5 0.499 1.155 0.751 1.81 0.751 0.656 0 1.309-0.252 1.81-0.751 0.999-0.997 0.999-2.617 0-3.62l-12.738-12.726zM25.794 26.797c-0.538 0-0.973-0.437-0.973-0.978s0.435-0.977 0.973-0.977c0.543 0 0.982 0.437 0.982 0.977s-0.439 0.978-0.982 0.978z"/>
</symbol><symbol id="icon--upload" viewBox="0 0 32 32">
<title>upload</title>
<path d="M16 5.333l-6.4 8.534h4.266v8.534h4.266v-8.534h4.266l-6.399-8.534zM5.333 24.533v2.134h21.333v-2.134h-21.333z"/>
</symbol><symbol id="icon--view" viewBox="0 0 32 32">
<title>view</title>
<path d="M16 7.333c-8.727 0-12 8.727-12 8.727s3.273 8.727 12 8.727c8.727 0 12-8.727 12-8.727s-3.273-8.727-12-8.727zM16 10.606c3.012 0 5.455 2.443 5.455 5.455s-2.443 5.455-5.455 5.455c-3.012 0-5.455-2.443-5.455-5.455s2.443-5.455 5.455-5.455zM16 12.788c-1.807 0-3.273 1.465-3.273 3.273s1.465 3.273 3.273 3.273c1.807 0 3.273-1.465 3.273-3.273s-1.465-3.273-3.273-3.273z"/>
</symbol></svg>