<svg xmlns="http://www.w3.org/2000/svg"><symbol id="icon--apps-2" viewBox="0 0 32 32">
<title>app-1</title>
<path d="M6.519 5.333c-0.654 0-1.185 0.531-1.185 1.185v2.37c0 0.654 0.531 1.185 1.185 1.185h2.37c0.654 0 1.185-0.531 1.185-1.185v-2.37c0-0.654-0.531-1.185-1.185-1.185h-2.37zM14.815 5.333c-0.654 0-1.185 0.531-1.185 1.185v2.37c0 0.654 0.531 1.185 1.185 1.185h2.37c0.654 0 1.185-0.531 1.185-1.185v-2.37c0-0.654-0.531-1.185-1.185-1.185h-2.37zM23.111 5.333c-0.654 0-1.185 0.531-1.185 1.185v2.37c0 0.654 0.531 1.185 1.185 1.185h2.37c0.654 0 1.185-0.531 1.185-1.185v-2.37c0-0.654-0.531-1.185-1.185-1.185h-2.37zM6.519 13.63c-0.654 0-1.185 0.531-1.185 1.185v2.37c0 0.654 0.531 1.185 1.185 1.185h2.37c0.654 0 1.185-0.531 1.185-1.185v-2.37c0-0.654-0.531-1.185-1.185-1.185h-2.37zM14.815 13.63c-0.654 0-1.185 0.531-1.185 1.185v2.37c0 0.654 0.531 1.185 1.185 1.185h2.37c0.654 0 1.185-0.531 1.185-1.185v-2.37c0-0.654-0.531-1.185-1.185-1.185h-2.37zM23.111 13.63c-0.654 0-1.185 0.531-1.185 1.185v2.37c0 0.654 0.531 1.185 1.185 1.185h2.37c0.654 0 1.185-0.531 1.185-1.185v-2.37c0-0.654-0.531-1.185-1.185-1.185h-2.37zM6.519 21.926c-0.654 0-1.185 0.531-1.185 1.185v2.37c0 0.654 0.531 1.185 1.185 1.185h2.37c0.654 0 1.185-0.531 1.185-1.185v-2.37c0-0.654-0.531-1.185-1.185-1.185h-2.37zM14.815 21.926c-0.654 0-1.185 0.531-1.185 1.185v2.37c0 0.654 0.531 1.185 1.185 1.185h2.37c0.654 0 1.185-0.531 1.185-1.185v-2.37c0-0.654-0.531-1.185-1.185-1.185h-2.37zM23.111 21.926c-0.654 0-1.185 0.531-1.185 1.185v2.37c0 0.654 0.531 1.185 1.185 1.185h2.37c0.654 0 1.185-0.531 1.185-1.185v-2.37c0-0.654-0.531-1.185-1.185-1.185h-2.37z"/>
</symbol><symbol id="icon--arrow-up-rounded" viewBox="0 0 32 32">
<title>arrow-up-rounded</title>
<path d="M21.946 15.047c-0.182 0.272-0.499 0.409-0.817 0.409-0.227 0-0.454-0.091-0.635-0.227l-3.404-2.633v9.532c0 0.59-0.454 1.044-1.044 1.044s-1.044-0.454-1.044-1.044v-9.441l-3.495 2.814c-0.454 0.363-1.089 0.272-1.453-0.136-0.363-0.454-0.272-1.089 0.136-1.453l5.174-4.176c0.045-0.045 0.091-0.045 0.136-0.091h0.045c0.045 0 0.091-0.045 0.136-0.045h0.045c0.045 0 0.091-0.045 0.136-0.045h0.408c0.045 0 0.091 0.045 0.182 0.045h0.045c0.045 0.045 0.091 0.045 0.136 0.091l5.038 3.904c0.545 0.363 0.59 0.999 0.272 1.453zM16 5.333c-5.901 0-10.667 4.766-10.667 10.667s4.766 10.667 10.667 10.667c5.901 0 10.667-4.766 10.667-10.667s-4.766-10.667-10.667-10.667z"/>
</symbol><symbol id="icon--camera-2" viewBox="0 0 32 32">
<title>Camera</title>
<path d="M11.2 6.667c-0.661 0-1.2 0.539-1.2 1.2v1.2c0 0.661-0.539 1.2-1.2 1.2h-2.4c-1.322 0-2.4 1.078-2.4 2.4v10.8c0 1.322 1.078 2.4 2.4 2.4h19.2c1.322 0 2.4-1.078 2.4-2.4v-10.8c0-1.322-1.078-2.4-2.4-2.4h-2.4c-0.661 0-1.2-0.539-1.2-1.2v-1.2c0-0.661-0.539-1.2-1.2-1.2h-9.6zM16 11.167c3.473 0 6.3 2.827 6.3 6.3s-2.827 6.3-6.3 6.3c-3.473 0-6.3-2.827-6.3-6.3s2.827-6.3 6.3-6.3zM25 12.067c0.661 0 1.2 0.539 1.2 1.2s-0.539 1.2-1.2 1.2c-0.661 0-1.2-0.539-1.2-1.2s0.539-1.2 1.2-1.2zM16 12.667c-2.653 0-4.8 2.147-4.8 4.8s2.147 4.8 4.8 4.8c2.653 0 4.8-2.147 4.8-4.8s-2.147-4.8-4.8-4.8z"/>
</symbol><symbol id="icon--icarcoins-color" viewBox="0 0 32 32">
<title>iCarCoins-Color</title>
<path fill="#ffc500" d="M28 16c0 6.627-5.373 12-12 12s-12-5.373-12-12c0-6.627 5.373-12 12-12s12 5.373 12 12z"/>
<path fill="#344251" d="M14.975 21.201h-1.642v-10.402h1.642v10.402h-0.001zM18.726 21.332c-0.696 0.012-1.366-0.25-1.852-0.724-0.498-0.46-0.773-1.096-0.761-1.756v-5.698c0-0.687 0.256-1.274 0.767-1.759 0.484-0.474 1.151-0.737 1.845-0.728 0.727 0 1.343 0.244 1.848 0.73s0.758 1.073 0.758 1.756v1.186h-1.708v-1.213c0.004-0.241-0.097-0.473-0.278-0.641-0.176-0.173-0.42-0.27-0.674-0.266-0.251-0.003-0.492 0.093-0.666 0.266-0.18 0.169-0.28 0.401-0.276 0.641v5.709c0 0.251 0.093 0.464 0.276 0.638 0.174 0.172 0.415 0.267 0.666 0.263 0.264 0 0.488-0.088 0.674-0.262 0.182-0.167 0.283-0.398 0.278-0.639v-1.432h1.709v1.449c0 0.692-0.257 1.278-0.767 1.759-0.484 0.47-1.149 0.731-1.841 0.721l0.001-0.001z"/>
<path fill="#344251" d="M12 13.333h2.667v1.569h-2.667v-1.569zM12 17.098h2.667v1.569h-2.667v-1.569z"/>
</symbol><symbol id="icon--icarcoins" viewBox="0 0 32 32">
<title>iCarCoins</title>
<path d="M16 28c-6.627 0-12-5.373-12-12s5.373-12 12-12c6.627 0 12 5.373 12 12s-5.373 12-12 12zM13.333 18.667v2.534h1.642v-10.402h-1.642v2.534h-1.333v1.569h1.333v2.196h-1.333v1.569h1.333zM18.726 21.332l-0.001 0.001c0.692 0.010 1.357-0.251 1.841-0.721 0.511-0.481 0.767-1.067 0.767-1.759v-1.449h-1.709v1.432c0.005 0.241-0.096 0.472-0.278 0.639-0.186 0.174-0.41 0.262-0.674 0.262-0.251 0.004-0.491-0.092-0.666-0.263-0.183-0.174-0.276-0.387-0.276-0.638v-5.709c-0.004-0.241 0.095-0.473 0.276-0.641 0.173-0.173 0.414-0.269 0.666-0.266 0.254-0.004 0.498 0.093 0.674 0.266 0.182 0.168 0.283 0.4 0.278 0.641v1.213h1.708v-1.186c0-0.684-0.253-1.269-0.758-1.756s-1.121-0.73-1.848-0.73c-0.694-0.010-1.362 0.254-1.845 0.728-0.512 0.485-0.767 1.072-0.767 1.759v5.698c-0.012 0.66 0.263 1.296 0.761 1.756 0.486 0.474 1.156 0.736 1.852 0.724z"/>
</symbol><symbol id="icon--language" viewBox="0 0 32 32">
<title>Language</title>
<path d="M7.467 5.333c-1.179 0-2.133 0.955-2.133 2.133v12.8c0 1.179 0.955 2.133 2.133 2.133h14.933l4.267 4.267v-19.2c0-1.179-0.955-2.133-2.133-2.133h-17.067zM10.866 9.6h1.733l3.401 8.533h-2l-0.634-1.766h-3.266l-0.634 1.766h-2l3.399-8.533zM20.066 9.6h1.467v1.434h3.001v1.399c-0.217 1.85-1.045 3.229-2.4 4.166 0.367 0.059 0.75 0.1 1.167 0.1v1.434c-1.117 0-2.158-0.217-3.034-0.566-1.008 0.379-2.291 0.566-3.2 0.566v-1.434c0.409 0 1.117-0.042 1.567-0.133-0.809-0.724-1.567-2.258-1.567-3.299h1.5c0 0.787 0.804 2.183 1.766 2.733 1.412-0.675 2.325-1.871 2.601-3.567h-5.867v-1.399h2.999v-1.434zM11.733 11.766l-1.134 3.2h2.267l-1.133-3.2z"/>
</symbol><symbol id="icon--link" viewBox="0 0 32 32">
<title>Link</title>
<path d="M8.719 10c-3.333 0-6.053 2.719-6.053 6.053s2.719 6.053 6.053 6.053h4.825v-2.456h-4.825c-2.018 0-3.684-1.667-3.684-3.684s1.667-3.684 3.684-3.684h4.825v-2.281h-4.825zM18.456 10v2.456h4.825c2.018 0 3.684 1.667 3.684 3.684s-1.667 3.684-3.684 3.684h-4.825v2.456h4.825c3.333 0 6.053-2.719 6.053-6.053s-2.719-6.053-6.053-6.053h-4.825v-0.175zM9.947 14.825v2.456h12.193v-2.456h-12.193z"/>
</symbol><symbol id="icon--off" viewBox="0 0 32 32">
<title>off</title>
<path d="M17.778 6.667h-2.222v11.111h2.222v-11.111zM23.144 9.078l-1.578 1.578c1.756 1.411 2.878 3.578 2.878 6.011 0 4.3-3.478 7.778-7.778 7.778s-7.778-3.478-7.778-7.778c0-2.433 1.122-4.6 2.867-6.022l-1.567-1.567c-2.156 1.833-3.522 4.544-3.522 7.589 0 5.522 4.478 10 10 10s10-4.478 10-10c0-3.044-1.367-5.756-3.522-7.589z"/>
</symbol><symbol id="icon--setting-2" viewBox="0 0 32 32">
<title>setting</title>
<path d="M13.823 5.333c-0.328 0-0.544 0.217-0.544 0.544l-0.205 2.177c-0.978 0.328-1.858 0.876-2.619 1.531l-2.075-0.986c-0.217-0.111-0.536-0.013-0.647 0.205l-2.177 3.81c-0.217 0.328-0.225 0.672 0.102 0.783l1.838 1.293c-0.217 0.544-0.205 0.986-0.205 1.531s-0.009 0.986 0.102 1.531l-1.838 1.293c-0.217 0.111-0.319 0.455-0.102 0.783l2.177 3.81c0.217 0.217 0.531 0.315 0.748 0.205l2.075-0.885c0.761 0.655 1.642 1.097 2.619 1.531l0.205 2.177c0 0.328 0.217 0.544 0.544 0.544h4.355c0.328 0 0.544-0.217 0.544-0.544l0.205-2.177c0.978-0.328 1.858-0.876 2.619-1.531l2.075 0.885c0.217 0.111 0.536 0.013 0.647-0.205l2.177-3.81c0.111-0.217 0.114-0.566-0.102-0.783l-1.735-1.293c0.111-0.544 0.102-0.986 0.102-1.531s0.009-0.986-0.102-1.531l1.838-1.293c0.217-0.111 0.319-0.455 0.102-0.783l-2.177-3.81c-0.217-0.217-0.531-0.315-0.748-0.205l-2.075 0.885c-0.761-0.655-1.642-1.097-2.619-1.531l-0.205-2.177c0-0.217-0.217-0.442-0.544-0.442l-4.355-0.001zM16.001 10.777c3.049 0 5.443 2.394 5.443 5.443s-2.394 5.443-5.443 5.443c-3.049 0-5.443-2.394-5.443-5.443s2.394-5.443 5.443-5.443zM16.001 12.954c-1.85 0-3.266 1.416-3.266 3.266s1.416 3.266 3.266 3.266c1.85 0 3.266-1.416 3.266-3.266s-1.416-3.266-3.266-3.266z"/>
</symbol></svg>