<svg xmlns="http://www.w3.org/2000/svg"><symbol id="icon--calendar" viewBox="0 0 32 32">
<title>calendar</title>
<path d="M11.494 9.362h-1.655v-4.027h1.655v4.027zM22.16 5.333h-1.654v4.027h1.654v-4.027zM26.666 10.079v14.215c0 1.306-1.066 2.372-2.372 2.372h-16.588c-1.306 0-2.372-1.066-2.372-2.372v-14.215c0-1.306 1.066-2.372 2.372-2.372h1.066v2.372h3.787v-2.372h6.879v2.372h3.787v-2.372h1.066c1.306 0 2.372 1.066 2.372 2.372h0.002zM24.294 14.804h-16.588v9.491h16.588v-9.491zM12.799 16.588h-3.549v2.372h3.549v-2.372zM17.785 16.588h-3.57v2.372h3.57v-2.372zM22.748 16.588h-3.549v2.372h3.549v-2.372zM12.799 20.137h-3.549v2.372h3.549v-2.372zM17.785 20.137h-3.57v2.372h3.57v-2.372z"/>
</symbol><symbol id="icon--call" viewBox="0 0 32 32">
<title>call</title>
<path d="M9.637 14.571c1.707 3.339 4.452 6.085 7.791 7.828l2.634-2.634c0.297-0.297 0.779-0.408 1.187-0.26 1.336 0.408 2.782 0.668 4.23 0.668 0.668 0 1.187 0.52 1.187 1.187v4.118c0 0.668-0.52 1.187-1.187 1.187-11.13 0-20.146-9.016-20.146-20.146 0-0.668 0.519-1.187 1.187-1.187h4.155c0.631 0 1.187 0.519 1.187 1.187 0 1.484 0.223 2.894 0.668 4.23 0.148 0.408 0.037 0.89-0.297 1.224l-2.597 2.597z"/>
</symbol><symbol id="icon--car-front" viewBox="0 0 32 32">
<title>car-front</title>
<path d="M26.167 18.467l-0.92 0.92h-2.761v-1.8l3.68-1v1.88h0.001zM19.685 23.028h-7.361v-1.8h7.361v1.8zM9.525 19.388h-2.761l-0.92-0.92v-1.88l3.68 1v1.8h0.001zM9.205 8.866c0.12-0.2 0.28-0.4 0.56-0.4h12.48c0.28 0 0.44 0.2 0.56 0.4 0.16 0.32 1.121 4.161 1.121 4.161h-15.801c0 0 0.92-3.839 1.080-4.161zM27.527 13.027h-1.721l-1.521-4.961c-0.52-1.040-0.92-1.4-2.16-1.4h-12.242c-1.2 0-1.64 0.36-2.16 1.4l-1.521 4.961h-1.721c-0.28 0-0.48 0.2-0.48 0.44v0.92c0 0.24 0.2 0.44 0.48 0.44h0.84l-0.4 0.92v10.481c0 0.24 0.2 0.44 0.48 0.44h1.84c0.24 0 0.44-0.2 0.44-0.44v-1.4h16.642v1.4c0 0.24 0.2 0.44 0.44 0.44h1.84c0.28 0 0.48-0.2 0.48-0.44v-10.481l-0.4-0.879h0.84c0.28 0 0.48-0.24 0.48-0.48v-0.92c0-0.24-0.2-0.44-0.48-0.44h0.008z"/>
</symbol><symbol id="icon--car-seat" viewBox="0 0 32 32">
<title>Car-Seat</title>
<path d="M10.89 24.45c0 0-1.052-3.6-2.89-1.004l0.588 4.554h15.965l0.588-4.554c-1.836-2.596-2.89 1.004-2.89 1.004h-11.361zM9.838 20.778c0 0 2.033 0.906 2.008 2.669h9.451c-0.024-1.763 2.008-2.669 2.008-2.669s-0.294-3.55-0.662-7.714c-0.392-4.236-6.072-3.697-6.072-3.697s-5.681-0.539-6.072 3.697c-0.367 4.163-0.662 7.714-0.662 7.714h0.001zM12.801 5.377c0 1.812-0.734 3.354 3.77 3.354s3.77-1.544 3.77-3.354c0-1.836-7.541-1.836-7.541 0h0.001z"/>
</symbol><symbol id="icon--car-side-front" viewBox="0 0 32 32">
<title>car-side-front</title>
<path d="M29.11 18.387l1.557-0.329v-0.987l-1.377 0.298 0.599-3.622-0.839-1.108-1.077-0.329-1.406-2.455c-0.389-0.839-1.197-1.138-2.155-1.138l-5.478-0.718-6.287 0.779c-1.227 0.21-1.975 0.508-2.095 0.928l-2.185 2.815-2.036-0.241c-0.21 0-0.389 0.15-0.359 0.359l0.031 0.718c0 0.15 0.119 0.269 0.269 0.329l-4.011 2.155-0.298 0.749-0.629 2.274 0.658 2.634 8.711 2.605 5.118-1.406c-0.090-0.508-0.15-1.077-0.090-1.676 0.119-1.765 1.138-2.994 2.246-2.964 1.736 0.060 1.916 1.676 1.795 3.442l-0.031 0.15 5.538-1.497c-0.119-0.449 0.031-0.959 0.119-1.466 0.241-1.227 0.539-1.616 1.466-1.676 1.108-0.060 1.227 0.839 1.138 2.605l0.987-0.508 0.119-0.718 0.002-0.002zM25.518 9.827l1.826 2.815-3.144 0.718-0.478-3.263 1.796-0.27zM23.063 10.274l0.359 3.263-5.299 0.867 1.765-3.652 3.174-0.478zM11.3 18.566l0.42 1.377-1.257 0.658-2.934-0.688 0.241-1.348h3.53zM11.538 9.647l7.544 0.839-2.155 3.892-8.083-1.227 2.693-3.504zM7.107 22.459l-2.964-0.959 0.031-1.197 2.934 0.959v1.197h-0.001zM2.168 17.818l0.359-1.437 2.185 1.138-0.060 1.406-2.005-0.599-0.478-0.508h-0.001zM28.6 14.315h0.749l-0.42 2.036h-0.449l0.119-2.036h0.001zM24.26 14.376l-0.060 5.029-0.599 0.21 0.119-5.238h0.539l0.002-0.001zM19.291 21.65c0.119-1.585-0.449-2.903-1.287-2.964s-1.676 1.197-1.795 2.844c-0.15 1.616 0.478 2.934 1.318 2.934 0.867 0 1.616-1.257 1.765-2.815l-0.001 0.001zM27.793 19.854c0.090-1.197-0.269-2.215-0.867-2.274-0.569-0.060-1.138 0.928-1.227 2.155-0.090 1.257 0.329 2.274 0.928 2.274 0.569 0 1.077-0.987 1.168-2.155h-0.002z"/>
</symbol><symbol id="icon--meter" viewBox="0 0 32 32">
<title>meter</title>
<path d="M13.748 20.077c-0.809 1.444-0.268 2.62 0.882 3.282s2.448 0.563 3.282-0.882c0.833-1.42 6.048-14.203 5.608-14.472-0.466-0.268-8.938 10.652-9.771 12.073l-0.001-0.001zM16 10.992c0.514 0 1.029 0.024 1.542 0.123 0.514-0.661 1.102-1.371 1.69-2.081-1.029-0.294-2.105-0.442-3.233-0.442-6.734 0-11.999 5.656-11.999 12.881 0 0.466 0.024 0.906 0.049 1.322 0.073 0.661 0.661 1.15 1.322 1.102 0.661-0.073 1.126-0.637 1.078-1.298-0.024-0.367-0.049-0.735-0.049-1.126 0-5.878 4.212-10.481 9.599-10.481h0.001zM24.668 12.486c-0.343 0.882-0.686 1.812-1.004 2.596 1.224 1.764 1.935 3.967 1.935 6.391 0 0.392-0.024 0.759-0.049 1.15-0.073 0.637 0.416 1.224 1.078 1.298 0.049 0 0.073 0 0.123 0 0.612 0 1.126-0.466 1.176-1.102 0.049-0.442 0.073-0.882 0.073-1.347 0-3.526-1.273-6.685-3.332-8.988v0.002z"/>
</symbol><symbol id="icon--paint-brush" viewBox="0 0 32 32">
<title>paint-brush</title>
<path d="M24.562 5.333c0.556 0 1.043 0.185 1.459 0.554s0.625 0.831 0.626 1.387c0 0.5-0.179 1.1-0.537 1.798-2.635 4.992-4.48 7.977-5.536 8.953-0.77 0.722-1.635 1.083-2.596 1.083-1 0-1.859-0.367-2.578-1.102s-1.077-1.605-1.077-2.613c0-1.017 0.365-1.858 1.096-2.523l7.595-6.894c0.469-0.428 0.985-0.642 1.547-0.642h0.001zM13.74 17.644c0.309 0.603 0.732 1.119 1.268 1.547s1.133 0.73 1.792 0.905l0.012 0.844c0.032 1.69-0.482 3.067-1.542 4.131s-2.443 1.595-4.149 1.595c-0.976 0-1.842-0.185-2.596-0.554s-1.36-0.875-1.815-1.519c-0.455-0.643-0.799-1.369-1.030-2.179s-0.347-1.682-0.346-2.619c0.055 0.039 0.218 0.158 0.489 0.357s0.517 0.375 0.738 0.53c0.222 0.155 0.456 0.299 0.703 0.434s0.429 0.202 0.546 0.202c0.326 0 0.544-0.147 0.654-0.442 0.198-0.524 0.427-0.97 0.685-1.339s0.534-0.67 0.827-0.905c0.293-0.235 0.642-0.423 1.047-0.565s0.814-0.243 1.227-0.303c0.413-0.060 0.909-0.102 1.488-0.126l0.001 0.002z"/>
</symbol><symbol id="icon--quote-left" viewBox="0 0 32 32">
<title>quote-left</title>
<path d="M9.271 13.98c2.892 0 5.246 2.352 5.246 5.246s-2.352 5.246-5.246 5.246c-2.892 0-5.246-2.352-5.246-5.246l-0.025-0.735c0-5.809 4.707-10.492 10.492-10.492v2.99c-2.010 0-3.873 0.784-5.295 2.205-0.271 0.271-0.514 0.539-0.76 0.858 0.271-0.049 0.564-0.073 0.834-0.073v0l0.001-0.001zM22.754 13.98c2.892 0 5.246 2.352 5.246 5.246s-2.352 5.246-5.246 5.246c-2.892 0-5.246-2.352-5.246-5.246l-0.025-0.735c0-5.809 4.707-10.492 10.492-10.492v2.99c-1.985 0-3.873 0.784-5.295 2.205-0.271 0.271-0.514 0.539-0.735 0.858 0.271-0.049 0.539-0.073 0.81-0.073v0l-0.001-0.001z"/>
</symbol><symbol id="icon--quote-right" viewBox="0 0 32 32">
<title>quote-right</title>
<path d="M9.245 18.491c-2.893 0-5.245-2.352-5.245-5.245s2.352-5.245 5.245-5.245c2.893 0 5.245 2.352 5.245 5.245l0.025 0.735c0 5.81-4.707 10.492-10.492 10.492v-2.99c2.010 0 3.873-0.784 5.295-2.205 0.271-0.271 0.514-0.564 0.76-0.858-0.271 0.049-0.564 0.073-0.834 0.073v0l0.001-0.001zM22.73 18.491c-2.893 0-5.245-2.352-5.245-5.245s2.352-5.245 5.245-5.245c2.893 0 5.245 2.352 5.245 5.245l0.025 0.735c0 5.81-4.681 10.492-10.492 10.492v-2.99c2.010 0 3.898-0.784 5.295-2.205 0.271-0.271 0.539-0.564 0.76-0.858-0.271 0.049-0.539 0.073-0.834 0.073v0l0.001-0.001z"/>
</symbol><symbol id="icon--search-car" viewBox="0 0 32 32">
<title>search-car</title>
<path d="M27.483 25.673l-1.812 1.812c-0.662 0.687-1.764 0.687-2.424 0l-4.946-4.922c-1.346 0.687-2.866 1.077-4.482 1.077-5.412 0-9.82-4.407-9.82-9.82 0-5.435 4.407-9.82 9.82-9.82 5.435 0 9.844 4.383 9.844 9.82 0 1.616-0.417 3.134-1.102 4.505l4.922 4.922c0.687 0.662 0.687 1.764 0 2.424l-0.002 0.002zM19.525 12.008h-0.832l-0.734-2.424c-0.269-0.49-0.442-0.662-1.029-0.662h-5.901c-0.563 0-0.76 0.172-1.029 0.662l-0.71 2.424h-0.857c-0.122 0-0.22 0.097-0.22 0.22v0.465c0 0.122 0.097 0.22 0.22 0.22h0.417l-0.197 0.442v5.093c0 0.122 0.097 0.221 0.22 0.221h0.906c0.097 0 0.22-0.097 0.22-0.221v-0.662h7.983v0.662c0 0.122 0.097 0.221 0.221 0.221h0.881c0.122 0 0.221-0.097 0.221-0.221v-5.093l-0.197-0.442h0.417c0.122 0 0.221-0.097 0.221-0.22v-0.465c0-0.122-0.097-0.22-0.221-0.22h0.001zM10.71 9.976c0.050-0.097 0.122-0.172 0.269-0.172h5.999c0.148 0 0.221 0.073 0.269 0.172 0.073 0.172 0.539 2.032 0.539 2.032h-7.591c0 0 0.442-1.861 0.515-2.032v0zM10.881 15.119h-1.346l-0.442-0.442v-0.931l1.787 0.49v0.881l0.001 0.003zM15.753 16.881h-3.551v-0.881h3.551v0.881zM18.863 14.679l-0.442 0.442h-1.346v-0.881l1.787-0.49v0.931l0.001-0.003z"/>
</symbol><symbol id="icon--shield" viewBox="0 0 32 32">
<title>shield</title>
<path d="M16.485 4l-9.818 4.363c0 0 0 4.363 0 6.546 0 8.542 7.024 12.531 9.818 13.091 2.794-0.56 9.818-4.549 9.818-13.091 0-2.182 0-6.546 0-6.546l-9.818-4.363z"/>
</symbol><symbol id="icon--transmission" viewBox="0 0 32 32">
<title>transmission</title>
<path d="M16 26.667c5.899 0 10.667-4.767 10.667-10.667s-4.767-10.667-10.667-10.667c-5.899 0-10.667 4.767-10.667 10.667s4.767 10.667 10.667 10.667v0zM9.333 10.817c0-0.822 0.627-1.484 1.405-1.484s1.405 0.662 1.405 1.484v3.699h1.405v-3.699c0-0.822 0.627-1.484 1.405-1.484 0.756 0 1.405 0.662 1.405 1.484v3.699h3.501v-3.699c0-0.822 0.627-1.484 1.405-1.484s1.405 0.662 1.405 1.484v5.183c0 0.822-0.627 1.484-1.405 1.484h-0.713v3.699c0 0.822-0.627 1.484-1.405 1.484s-1.405-0.662-1.405-1.484v-3.699h-1.383v3.699c0 0.822-0.648 1.484-1.405 1.484-0.778 0-1.405-0.662-1.405-1.484v-3.699h-1.405v3.699c0 0.822-0.627 1.484-1.405 1.484s-1.405-0.662-1.405-1.484v-10.365z"/>
</symbol><symbol id="icon--two-cars" viewBox="0 0 32 32">
<title>two-car</title>
<path d="M28.954 9.714h-1.387c0 0-0.626-1.387-0.844-1.877-0.409-0.816-0.626-1.17-1.714-1.17h-6.504c-0.98 0-1.334 0.354-1.714 1.17l-0.354 0.679c0.571 0.164 1.198 0.599 1.198 0.599s0.217-0.435 0.325-0.626c0.082-0.164 0.217-0.299 0.435-0.299h6.694c0.217 0 0.354 0.136 0.463 0.299 0.108 0.299 0.489 1.986 0.489 1.986h-7.619l1.088 3.048h0.707c0.734 0 0.98 0.217 0.98 0.953v2.096h2.966v1.523h-3.728v0.763h5.932v1.144c0 0.217 0.164 0.381 0.381 0.381h1.469c0.217 0 0.381-0.164 0.381-0.381v-8l-0.299-0.763h0.653c0.217 0 0.381-0.164 0.381-0.381v-0.763c0-0.217-0.164-0.381-0.381-0.381h0.002zM27.866 14.285l-0.763 0.763h-1.469v-1.523l2.232-0.844v1.604zM20.437 14.666c0-0.217-0.164-0.381-0.354-0.381h-1.415l-1.225-3.402c-0.409-0.871-0.734-1.17-1.714-1.17h-8.354c-0.953 0-1.279 0.299-1.714 1.17l-1.225 3.402h-1.387c-0.217 0-0.381 0.164-0.381 0.381v0.763c0 0.217 0.164 0.381 0.381 0.381h0.679l-0.325 0.763v8.762c0 0.217 0.164 0.381 0.381 0.381h1.469c0.217 0 0.381-0.164 0.381-0.381v-1.144h11.863v1.144c0 0.217 0.164 0.381 0.354 0.381h1.497c0.19 0 0.354-0.164 0.354-0.381v-8.762l-0.299-0.763h0.679c0.19 0 0.354-0.164 0.354-0.381v-0.763h0.004zM6.831 11.536c0.108-0.164 0.217-0.299 0.463-0.299h8.544c0.217 0 0.354 0.136 0.435 0.299 0.136 0.299 0.898 3.511 0.898 3.511h-11.211c0 0 0.763-3.211 0.871-3.511v0zM7.104 19.618h-2.204l-0.734-0.763v-1.606l2.939 0.844v1.525zM14.532 22.665h-5.932v-1.523h5.932v1.523zM18.967 18.856l-0.734 0.763h-2.232v-1.523l2.966-0.844v1.604z"/>
</symbol><symbol id="icon--user-formal" viewBox="0 0 32 32">
<title>user-formal</title>
<path d="M22.218 21.277c-2.874-1.077-3.795-1.977-3.795-3.886 0-1.167 0.876-0.787 1.258-2.897 0.157-0.875 0.942-0.022 1.101-2.021 0-0.787-0.426-0.988-0.426-0.988s0.203-1.19 0.292-2.088c0.113-1.145-0.651-4.064-4.647-4.064s-4.76 2.919-4.647 4.064c0.090 0.9 0.292 2.088 0.292 2.088s-0.426 0.203-0.426 0.988c0.157 1.998 0.942 1.145 1.101 2.021 0.381 2.111 1.258 1.728 1.258 2.897 0 1.909-0.92 2.807-3.795 3.886-2.897 1.055-4.783 2.155-4.783 2.897s0 2.493 0 2.493h9.027l1.213-3.57-0.605-1.302 1.326-0.92 1.302 0.92-0.605 1.302 1.326 3.57h9.027c0 0 0-1.752 0-2.493s-1.887-1.841-4.783-2.897h-0.008z"/>
</symbol></svg>