<svg xmlns="http://www.w3.org/2000/svg"><symbol id="icon--briefcase" viewBox="0 0 32 32">
<title>briefcase</title>
<path d="M18.153 9.59v-2.154h-4.307v2.154h4.307zM24.563 9.59c1.202 0 2.103 0.952 2.103 2.154v11.718c0 1.202-0.901 2.154-2.103 2.154h-17.127c-1.202 0-2.103-0.952-2.103-2.154v-11.718c0-1.202 0.901-2.154 2.103-2.154h4.307v-2.154c0-1.202 0.901-2.103 2.103-2.103h4.307c1.202 0 2.103 0.901 2.103 2.103v2.154h4.307z"/>
</symbol><symbol id="icon--clock-fill" viewBox="0 0 32 32">
<title>clock-fill</title>
<path d="M20.507 20.506l0.852-1.402-4.807-2.904v-5.559h-1.602v6.41l5.558 3.456zM16 5.333c5.859 0 10.667 4.807 10.667 10.667s-4.807 10.667-10.667 10.667c-5.859 0-10.667-4.807-10.667-10.667s4.807-10.667 10.667-10.667z"/>
</symbol><symbol id="icon--compass" viewBox="0 0 32 32">
<title>compass</title>
<path d="M18.354 18.353l4.057-8.764-8.764 4.057-4.057 8.764 8.764-4.057zM16 5.333c5.909 0 10.667 4.758 10.667 10.667s-4.758 10.667-10.667 10.667c-5.909 0-10.667-4.758-10.667-10.667s4.758-10.667 10.667-10.667zM16 14.848c0.651 0 1.152 0.501 1.152 1.152s-0.501 1.152-1.152 1.152c-0.651 0-1.152-0.501-1.152-1.152s0.501-1.152 1.152-1.152v0z"/>
</symbol><symbol id="icon--hot" viewBox="0 0 32 32">
<title>hot</title>
<path d="M15.704 24.624c3.007 0 5.38-2.374 5.38-5.38 0-1.582-0.211-3.059-0.633-4.536-1.16 1.53-3.218 2.48-5.222 2.901s-3.165 1.636-3.165 3.481c0 1.952 1.636 3.534 3.64 3.534v-0.001zM17.708 4c4.378 3.534 7.332 8.967 7.332 15.033 0 4.958-4.062 8.967-9.020 8.967s-9.020-4.009-9.020-8.967c0-3.798 1.371-7.332 3.64-10.022v0.422c0 2.321 1.741 4.167 4.062 4.167s3.851-1.847 3.851-4.167c0-2.426-0.844-5.433-0.844-5.433h-0.001z"/>
</symbol><symbol id="icon--layer" viewBox="0 0 32 32">
<title>layer</title>
<path d="M16.016 21.616c-3.784-2.935-7.555-5.883-11.349-8.808l11.349-8.808 11.349 8.808c-3.794 2.924-7.565 5.872-11.349 8.808zM16.016 24.867l9.281-7.271 2.069 1.596-11.349 8.808-11.349-8.808 2.069-1.596 9.279 7.271z"/>
</symbol><symbol id="icon--location" viewBox="0 0 32 32">
<title>location</title>
<path d="M16.395 15.38c1.634 0 2.986-1.352 2.986-2.986s-1.352-2.986-2.986-2.986c-1.634 0-2.986 1.352-2.986 2.986s1.352 2.986 2.986 2.986v0zM16.395 4c4.676 0 8.395 3.718 8.395 8.395 0 6.31-8.395 15.605-8.395 15.605s-8.395-9.296-8.395-15.605c0-4.676 3.718-8.395 8.395-8.395z"/>
</symbol><symbol id="icon--lock" viewBox="0 0 32 32">
<title>lock</title>
<path d="M16.010 4c-3.799 0-6.857 3.058-6.857 6.857v1.143c-1.259 0-2.286 1.027-2.286 2.286v11.428c0 1.259 1.027 2.286 2.286 2.286h13.714c1.259 0 2.286-1.027 2.286-2.286v-11.428c0-1.259-1.027-2.286-2.286-2.286v-1.143c0-3.799-3.058-6.857-6.857-6.857zM16.010 6.285c2.603 0 4.571 1.969 4.571 4.571v1.143h-9.143v-1.143c0-2.603 1.969-4.571 4.571-4.571h0.001zM16.010 17.714c1.259 0 2.286 1.027 2.286 2.286s-1.027 2.286-2.286 2.286c-1.259 0-2.286-1.027-2.286-2.286s1.027-2.286 2.286-2.286z"/>
</symbol><symbol id="icon--paragraph" viewBox="0 0 32 32">
<title>paragraph</title>
<path d="M5.333 6.667h21.333v2.62h-21.333v-2.62zM5.333 19.953v-2.683h21.333v2.683h-21.333zM26.667 11.968v2.683h-21.333v-2.683h21.333zM18.682 22.635v2.62h-13.349v-2.62h13.349z"/>
</symbol><symbol id="icon--poll" viewBox="0 0 32 32">
<title>poll</title>
<path d="M21.944 21.944v-4.778h-2.389v4.778h2.389zM17.167 21.944v-11.888h-2.333v11.888h2.333zM12.444 21.944v-8.333h-2.389v8.333h2.389zM24.277 5.333c1.278 0 2.389 1.111 2.389 2.389v16.555c0 1.278-1.111 2.389-2.389 2.389h-16.555c-1.278 0-2.389-1.111-2.389-2.389v-16.555c0-1.278 1.111-2.389 2.389-2.389h16.555z"/>
</symbol><symbol id="icon--user" viewBox="0 0 32 32">
<title>user</title>
<path d="M16 6.667c-2.618 0-4.741 2.122-4.741 4.741s2.123 4.741 4.741 4.741c2.618 0 4.741-2.123 4.741-4.741s-2.122-4.741-4.741-4.741zM16 18.37c-3.56 0-10.667 1.787-10.667 5.333v2.963h21.333v-2.963c0-3.546-7.106-5.333-10.667-5.333z"/>
</symbol><symbol id="icon--users" viewBox="0 0 32 32">
<title>users</title>
<path d="M12 6.667c-2.963 0-5.333 2.37-5.333 5.333s2.37 5.333 5.333 5.333c2.963 0 5.333-2.37 5.333-5.333s-2.37-5.333-5.333-5.333v0zM12 9.334c1.481 0 2.667 1.185 2.667 2.667s-1.185 2.667-2.667 2.667c-1.482 0-2.667-1.185-2.667-2.667s1.185-2.667 2.667-2.667zM21.925 9.334c-1.778 0-3.259 1.481-3.259 3.259s1.481 3.259 3.259 3.259c1.778 0 3.259-1.481 3.259-3.259s-1.333-3.259-3.259-3.259zM22.666 17.334c-1.926 0-3.407 0.741-4.444 1.481 3.111 1.778 4.296 4.444 4.444 4.593l0.148 0.296v0.296h6.519v-2.222c0 0-1.63-4.444-6.667-4.444zM12 18.667c-7.111 0-9.333 5.333-9.333 5.333v2.667h18.667v-2.667c0 0-2.222-5.333-9.333-5.333h-0.001zM12 21.333c4.593 0 6.074 2.667 6.074 2.667h-12.148c0 0 1.481-2.667 6.074-2.667z"/>
</symbol><symbol id="icon--validated-buyer" viewBox="0 0 32 32">
<title>validated-buyer</title>
<path d="M13.602 4c-2.653 0-4.8 2.147-4.8 4.8s2.147 4.8 4.8 4.8c2.653 0 4.8-2.147 4.8-4.8s-2.147-4.8-4.8-4.8zM13.602 16.002c-7.323 0-9.602 4.8-9.602 4.8v2.4h10.314c-0.365-2.372 0.352-4.889 2.175-6.714 0.061-0.061 0.127-0.094 0.187-0.15-0.914-0.202-1.922-0.337-3.075-0.337v0.001zM22.004 16.002c-1.538 0-3.066 0.59-4.238 1.763-2.344 2.344-2.344 6.132 0 8.476s6.132 2.344 8.476 0c2.344-2.344 2.344-6.132 0-8.476-1.172-1.172-2.705-1.763-4.238-1.763zM24.141 19.34l1.725 1.725-4.463 4.426-3.263-3.225 1.725-1.725 1.538 1.575 2.738-2.776z"/>
</symbol><symbol id="icon--verified-sheild" viewBox="0 0 32 32">
<title>verified-sheild</title>
<path d="M13.876 21.464l8.732-8.732-1.532-1.532-7.2 7.149-2.809-2.809-1.532 1.532 4.341 4.392zM16.071 4l9.804 4.392v6.536c0 6.026-4.187 11.694-9.804 13.072-5.617-1.379-9.804-7.047-9.804-13.072v-6.536l9.804-4.391z"/>
</symbol></svg>