<svg xmlns="http://www.w3.org/2000/svg"><symbol id="icon--blur" viewBox="0 0 32 32">
<title>blur</title>
<path d="M16.067 4c0 0-8.4 9.961-8.4 15.6 0 4.678 3.722 8.4 8.4 8.4s8.4-3.722 8.4-8.4c0-5.64-8.4-15.6-8.4-15.6z"/>
</symbol><symbol id="icon--crop" viewBox="0 0 32 32">
<title>crop</title>
<path d="M8.533 5.333v3.2h-3.2v3.2h3.2v11.733h11.733v3.2h3.2v-3.2h3.2v-3.2h-13.4l7-7v5.933h3.2v-9.133l2.9-2.9-1.533-1.533-2.9 2.9h-9.133v3.2h5.933l-7 7v-13.4z"/>
</symbol><symbol id="icon--flip-horizontal" viewBox="0 0 32 32">
<title>flip-horizontal</title>
<path d="M14.922 5.333l-9.4 18.333c-0.642 1.387 0.442 3 1.934 3h7.466v-21.333zM17.055 5.333v21.333h7.466c1.6 0 2.575-1.613 1.934-3l-9.4-18.333zM12.788 14.2v10.333h-5.334l5.334-10.333z"/>
</symbol><symbol id="icon--flip-vertical" viewBox="0 0 32 32">
<title>flip-verticle</title>
<path d="M8.8 5.333c-1.175 0-2.134 0.854-2.134 2.134v7.466h21.334l-18.334-9.4c-0.321-0.108-0.546-0.2-0.866-0.2zM8.8 7.466l10.334 5.334h-10.334v-5.334zM6.667 17.067v7.466c0 1.6 1.613 2.575 3 1.934l18.334-9.4h-21.334z"/>
</symbol><symbol id="icon--move" viewBox="0 0 32 32">
<title>move</title>
<path d="M17.171 8.976v5.853h5.853v-3.805l4.976 4.976-4.976 4.976v-3.805h-5.853v5.853h3.805l-4.976 4.976-4.976-4.976h3.805v-5.853h-5.853v3.805l-4.976-4.976 4.976-4.976v3.805h5.853v-5.853h-3.805l4.976-4.976 4.976 4.976z"/>
</symbol><symbol id="icon--rotate-left" viewBox="0 0 32 32">
<title>rotate-left</title>
<path d="M15.399 5.341c0.238-0.017 0.442 0 0.6 0v2.133c-0.321 0-0.683 0.050-0.733 0.066l-0.666-2.033c0.296-0.1 0.562-0.15 0.8-0.166h-0.001zM12.833 5.841l0.6 2.033-0.266 0.066-0.134 0.066-0.9 0.4-0.134 0.066h-0.034l-1.1-1.833 0.266-0.134 1.166-0.5 0.134-0.066 0.4-0.1 0.001 0.001zM20.264 7.474l6.398 0.733-1.799 1.799c1.166 1.708 1.799 3.757 1.799 5.998 0 5.902-4.761 10.663-10.663 10.663s-10.663-4.761-10.663-10.663c0-0.321-0.030-0.808 0.166-1.399l2.033 0.666c-0.017 0.050-0.066 0.412-0.066 0.733 0 4.761 3.77 8.53 8.53 8.53s8.53-3.77 8.53-8.53c0-1.682-0.404-3.178-1.2-4.465l-2.333 2.333-0.733-6.398h0.001zM9.235 7.774l1.333 1.666-0.266 0.2-0.066 0.1h-0.034l-0.7 0.7v0.034l-0.034 0.066h-0.034l-0.1-0.1-1.599-1.166 0.066-0.1 0.034-0.066 0.066-0.034 0.866-0.9 0.1-0.1 0.366-0.3h0.001zM6.636 10.906l1.866 1.033-0.2 0.366v0.034l-0.066 0.1-0.4 1.066-1.999-0.766 0.466-1.199 0.066-0.134 0.266-0.5z"/>
</symbol><symbol id="icon--rotate-right" viewBox="0 0 32 32">
<title>rotate-right</title>
<path d="M16.597 5.341c0.238 0.017 0.504 0.066 0.8 0.166l-0.666 2.033c-0.050-0.017-0.412-0.066-0.733-0.066v-2.133c0.158 0 0.362-0.017 0.6 0h-0.001zM19.162 5.841l0.4 0.1 0.134 0.066 1.166 0.5 0.266 0.134-1.1 1.833h-0.034l-0.134-0.066-0.9-0.4-0.134-0.066-0.266-0.066 0.6-2.033 0.001-0.001zM11.732 7.474l-0.733 6.398-2.333-2.333c-0.795 1.287-1.2 2.782-1.2 4.465 0 4.761 3.77 8.53 8.53 8.53s8.53-3.77 8.53-8.53c0-0.321-0.050-0.683-0.066-0.733l2.033-0.666c0.196 0.591 0.166 1.078 0.166 1.399 0 5.902-4.761 10.663-10.663 10.663s-10.663-4.761-10.663-10.663c0-2.241 0.633-4.29 1.799-5.998l-1.799-1.799 6.398-0.733zM22.761 7.774l0.366 0.3 0.1 0.1 0.866 0.9 0.066 0.034 0.034 0.066 0.066 0.1-1.599 1.166-0.1 0.1h-0.034l-0.034-0.066v-0.034l-0.7-0.7h-0.034l-0.066-0.1-0.266-0.2 1.334-1.666zM25.36 10.906l0.266 0.5 0.066 0.134 0.466 1.199-1.999 0.766-0.4-1.066-0.066-0.1v-0.034l-0.2-0.366 1.866-1.033z"/>
</symbol><symbol id="icon--rotate" viewBox="0 0 32 32">
<title>rotate</title>
<path d="M8 4.8l-0.534 6.933 6.933-0.534-2.633-2.633c1.254-0.708 2.725-1.1 4.233-1.1 4.692 0 8.533 3.841 8.533 8.533v0.734l1.8 1.834c0.213-0.854 0.334-1.713 0.334-2.566 0-5.866-4.8-10.666-10.666-10.666-2.133 0-4.113 0.621-5.766 1.7l-2.234-2.234zM5.667 13.433c-0.213 0.854-0.334 1.713-0.334 2.566 0 5.866 4.8 10.666 10.666 10.666 2.125 0 4.083-0.666 5.733-1.733l2.266 2.266 0.534-6.933-6.933 0.534 2.633 2.633c-1.25 0.708-2.725 1.1-4.233 1.1-4.692 0-8.533-3.841-8.533-8.533v-0.734l-1.799-1.832z"/>
</symbol><symbol id="icon--zoom-in" viewBox="0 0 32 32">
<title>zoom-in</title>
<path d="M12.8 5.333c-4.125 0-7.467 3.342-7.467 7.467s3.342 7.467 7.467 7.467c1.838 0 3.5-0.667 4.8-1.767l0.533 0.533v0.933l6.7 6.7 1.833-1.833-6.7-6.7h-0.933l-0.533-0.533c1.1-1.3 1.767-2.962 1.767-4.8 0-4.125-3.342-7.467-7.467-7.467zM12.8 7.467c2.942 0 5.333 2.392 5.333 5.333s-2.392 5.333-5.333 5.333c-2.942 0-5.333-2.392-5.333-5.333s2.392-5.333 5.333-5.333zM11.733 9.6v2.133h-2.133v2.133h2.133v2.133h2.133v-2.133h2.133v-2.133h-2.133v-2.133h-2.133z"/>
</symbol><symbol id="icon--zoom-out" viewBox="0 0 32 32">
<title>zoom-out</title>
<path d="M12.8 5.334c-4.111 0-7.466 3.355-7.466 7.466s3.355 7.466 7.466 7.466c1.865 0 3.568-0.695 4.879-1.834l0.454 0.454v1.379l6.4 6.4 2.134-2.134-6.4-6.4h-1.379l-0.454-0.454c1.138-1.311 1.834-3.014 1.834-4.879 0-4.111-3.355-7.466-7.466-7.466l-0.001 0.001zM12.8 7.467c2.958 0 5.334 2.375 5.334 5.334s-2.375 5.334-5.334 5.334c-2.958 0-5.334-2.375-5.334-5.334s2.375-5.334 5.334-5.334zM9.6 11.734v2.134h6.4v-2.134h-6.4z"/>
</symbol></svg>