<svg xmlns="http://www.w3.org/2000/svg"><symbol id="icon--error" viewBox="0 0 32 32">
<title>error</title>
<path d="M17.052 17.051v-6.41h-2.103v6.41h2.103zM17.052 21.358v-2.154h-2.103v2.154h2.103zM16 5.333c5.909 0 10.667 4.758 10.667 10.667s-4.758 10.667-10.667 10.667c-5.909 0-10.667-4.758-10.667-10.667s4.758-10.667 10.667-10.667z"/>
</symbol><symbol id="icon--info" viewBox="0 0 32 32">
<title>info</title>
<path d="M17.052 12.794v-2.154h-2.103v2.154h2.103zM17.052 21.358v-6.41h-2.103v6.41h2.103zM16 5.333c5.909 0 10.667 4.758 10.667 10.667s-4.758 10.667-10.667 10.667c-5.909 0-10.667-4.758-10.667-10.667s4.758-10.667 10.667-10.667z"/>
</symbol><symbol id="icon--notifications" viewBox="0 0 32 32">
<title>notifications</title>
<path d="M16.267 4c-0.994 0-1.8 0.806-1.8 1.8v0.834c-3.104 0.8-5.4 3.611-5.4 6.966v7.2l-2.4 2.4v1.2h19.2v-1.2l-2.4-2.4v-7.2c0-3.354-2.296-6.165-5.4-6.966v-0.834c0-0.994-0.806-1.8-1.8-1.8zM13.867 25.6c0 1.32 1.080 2.4 2.4 2.4s2.4-1.080 2.4-2.4h-4.8z"/>
</symbol><symbol id="icon--timelapse" viewBox="0 0 32 32">
<title>timelapse</title>
<path d="M16 24.563c4.707 0 8.563-3.856 8.563-8.563s-3.856-8.563-8.563-8.563c-4.707 0-8.563 3.856-8.563 8.563s3.856 8.563 8.563 8.563zM16 5.333c5.909 0 10.667 4.758 10.667 10.667s-4.758 10.667-10.667 10.667c-5.909 0-10.667-4.758-10.667-10.667s4.758-10.667 10.667-10.667zM20.507 11.492c2.504 2.504 2.554 6.51 0.050 9.014s-6.56 2.504-9.064 0l4.507-4.507v-6.41c1.653 0 3.255 0.651 4.507 1.903z"/>
</symbol><symbol id="icon--tips" viewBox="0 0 32 32">
<title>tips</title>
<path d="M15.942 4.002c-4.399 0.133-8.133 3.733-8.266 8-0.133 2.933 1.2 5.466 3.333 7.066 0.933 0.667 1.466 1.867 1.466 2.933h7.199c0-1.067 0.534-2.133 1.333-2.933 2.133-1.466 3.466-4 3.466-6.666 0-4.666-3.867-8.532-8.532-8.399l0.001-0.001zM12.476 23.201v1.2c0 1.466 0.8 2 1.867 2.266 0.266 0.8 0.933 1.333 1.733 1.333s1.466-0.534 1.733-1.333c1.067-0.266 1.867-0.8 1.867-2.266v-1.2h-7.2z"/>
</symbol><symbol id="icon--warning" viewBox="0 0 32 32">
<title>warning</title>
<path d="M28.845 26.667l-12.823-21.333-12.823 21.333h25.645zM17.188 24.335h-2.331v-2.331h2.331v2.331zM17.188 19.672h-2.331v-6.994h2.331v6.994z"/>
</symbol></svg>