<svg xmlns="http://www.w3.org/2000/svg"><symbol id="icon--product-bump-square" viewBox="0 0 32 32">
<title>product-bump-square</title>
<path fill="#3ad94e" d="M9.333 4h13.333c2.946 0 5.333 2.388 5.333 5.333v13.333c0 2.946-2.388 5.333-5.333 5.333h-13.333c-2.946 0-5.333-2.388-5.333-5.333v-13.333c0-2.946 2.388-5.333 5.333-5.333z"/>
<path fill="#fff" d="M16 14.25l-3.556 3.5h2.667v5.25h1.778v-5.25h2.667l-3.556-3.5zM22.222 9h-12.444c-0.987 0-1.778 0.787-1.778 1.75v10.5c0 0.966 0.796 1.75 1.778 1.75h3.556v-1.75h-3.556v-8.75h12.444v8.75h-3.556v1.75h3.556c0.982 0 1.778-0.784 1.778-1.75v-10.5c0-0.966-0.796-1.75-1.778-1.75v0z"/>
</symbol><symbol id="icon--product-bump" viewBox="0 0 32 32">
<title>product-bump</title>
<path fill="#3ad94e" d="M16 13.333l-5.333 5.333h4v8h2.667v-8h4l-5.333-5.333zM25.333 5.333h-18.667c-1.48 0-2.667 1.2-2.667 2.667v16c0 1.473 1.194 2.667 2.667 2.667h5.333v-2.667h-5.333v-13.333h18.667v13.333h-5.333v2.667h5.333c1.473 0 2.667-1.194 2.667-2.667v-16c0-1.473-1.194-2.667-2.667-2.667v0z"/>
</symbol><symbol id="icon--product-combo-square" viewBox="0 0 32 32">
<title>product-combo-square</title>
<path fill="#e35805" d="M9.333 4h13.333c2.946 0 5.333 2.388 5.333 5.333v13.333c0 2.946-2.388 5.333-5.333 5.333h-13.333c-2.946 0-5.333-2.388-5.333-5.333v-13.333c0-2.946 2.388-5.333 5.333-5.333z"/>
<path fill="#fff" d="M16 9.333c-0.737 0-1.333 0.568-1.333 1.27 0 0.533 0.347 0.982 0.833 1.171l-2.167 5.178-2.979-2.361c0.193-0.221 0.313-0.504 0.313-0.813 0-0.702-0.597-1.27-1.333-1.27s-1.333 0.568-1.333 1.27c0 0.702 0.597 1.27 1.333 1.27 0.091 0 0.185-0.003 0.271-0.020l1.125 5.099h10.542l1.125-5.099c0.086 0.017 0.18 0.020 0.271 0.020 0.737 0 1.333-0.568 1.333-1.27s-0.597-1.27-1.333-1.27c-0.737 0-1.333 0.568-1.333 1.27 0 0.31 0.12 0.593 0.313 0.813l-2.979 2.361-2.167-5.178c0.487-0.189 0.833-0.637 0.833-1.171 0-0.702-0.597-1.27-1.333-1.27h-0.001zM10.667 20.762v1.905h10.666v-1.905h-10.666z"/>
</symbol><symbol id="icon--product-combo" viewBox="0 0 32 32">
<title>product-combo</title>
<path fill="#e35805" d="M15.999 5.333c-1.105 0-2 0.877-2 1.959 0 0.823 0.52 1.515 1.25 1.806l-3.25 7.99-4.469-3.643c0.289-0.341 0.469-0.777 0.469-1.255 0-1.082-0.895-1.959-2-1.959s-2 0.877-2 1.959c0 1.082 0.895 1.959 2 1.959 0.137 0 0.277-0.004 0.406-0.030l1.688 7.867h15.812l1.688-7.867c0.129 0.026 0.27 0.030 0.406 0.030 1.105 0 2-0.877 2-1.959s-0.895-1.959-2-1.959c-1.105 0-2 0.877-2 1.959 0 0.478 0.18 0.915 0.469 1.255l-4.469 3.643-3.25-7.99c0.73-0.291 1.25-0.983 1.25-1.806 0-1.082-0.895-1.959-2-1.959h-0.001zM8 22.966v2.939h15.999v-2.939h-15.999z"/>
</symbol><symbol id="icon--product-featured-square" viewBox="0 0 32 32">
<title>product-feature-square</title>
<path fill="#0162dd" d="M9.333 4h13.333c2.946 0 5.333 2.388 5.333 5.333v13.333c0 2.946-2.388 5.333-5.333 5.333h-13.333c-2.946 0-5.333-2.388-5.333-5.333v-13.333c0-2.946 2.388-5.333 5.333-5.333z"/>
<path fill="#fff" d="M25 16c0 4.971-4.029 9-9 9s-9-4.029-9-9c0-4.971 4.029-9 9-9s9 4.029 9 9z"/>
<path fill="#0162dd" d="M16 19.292l-3.091 1.708 0.591-3.619-2.5-2.561 3.455-0.528 1.545-3.292 1.545 3.292 3.455 0.528-2.5 2.561 0.591 3.619z"/>
</symbol><symbol id="icon--product-featured" viewBox="0 0 32 32">
<title>product-feature</title>
<path fill="#0162dd" d="M28 16c0 6.627-5.373 12-12 12s-12-5.373-12-12c0-6.627 5.373-12 12-12s12 5.373 12 12z"/>
<path fill="#fff" d="M16 20.389l-4.12 2.277 0.787-4.824-3.333-3.416 4.607-0.704 2.060-4.389 2.060 4.389 4.607 0.704-3.333 3.416 0.787 4.824z"/>
</symbol><symbol id="icon--product-highlight-square" viewBox="0 0 32 32">
<title>product-highlight-square</title>
<path d="M9.333 4h13.333c2.946 0 5.333 2.388 5.333 5.333v13.333c0 2.946-2.388 5.333-5.333 5.333h-13.333c-2.946 0-5.333-2.388-5.333-5.333v-13.333c0-2.946 2.388-5.333 5.333-5.333z"/>
<path fill="#fff" d="M7 16.5c0-0.001 0-0.002 0-0.003v0c0.001-1.072 0.379-2.041 1.066-2.913 1.165-1.478 2.747-2.294 4.535-2.746 1.67-0.422 3.352-0.445 5.041-0.089 0.249 0.052 0.367 0.169 0.45 0.396 0.503 1.376 0.785 2.792 0.877 4.255 0.023 0.368 0.033 0.733 0.031 1.097h0c0 0.001-0 0.002-0 0.003s0 0.002 0 0.003h-0c0.002 0.364-0.008 0.729-0.031 1.097-0.092 1.463-0.374 2.879-0.877 4.255-0.083 0.227-0.201 0.343-0.45 0.396-1.689 0.356-3.371 0.333-5.041-0.089-1.787-0.452-3.37-1.268-4.535-2.746-0.688-0.872-1.065-1.841-1.066-2.913v0c0-0.001 0-0.002 0-0.003z"/>
<path fill="#fff" d="M25 15h-4.5v2.4h4.5v-2.4z"/>
<path fill="#fff" d="M24.377 9.243l-4.432 0.781 0.417 2.364 4.432-0.781z"/>
<path fill="#fff" d="M24.794 21.437l-4.432-0.781-0.417 2.364 4.432 0.781z"/>
</symbol><symbol id="icon--product-highlight" viewBox="0 0 32 32">
<title>product-highlight</title>
<path d="M4 16.667c0-0.002 0-0.003 0-0.005v0c0.001-1.429 0.505-2.721 1.422-3.884 1.553-1.97 3.663-3.058 6.046-3.661 2.226-0.563 4.469-0.593 6.721-0.119 0.332 0.070 0.489 0.225 0.6 0.528 0.671 1.834 1.047 3.722 1.17 5.673 0.031 0.49 0.044 0.978 0.041 1.463h0c0 0.002-0 0.003-0 0.005s0 0.003 0 0.005h-0c0.002 0.485-0.010 0.972-0.041 1.463-0.122 1.951-0.499 3.839-1.17 5.673-0.111 0.303-0.268 0.458-0.6 0.528-2.252 0.474-4.495 0.445-6.721-0.119-2.383-0.603-4.493-1.691-6.046-3.661-0.917-1.163-1.421-2.455-1.422-3.884v0c0-0.002 0-0.003 0-0.005z"/>
<path d="M28 14.667h-6v3.2h6v-3.2z"/>
<path d="M27.17 6.99l-5.909 1.042 0.556 3.151 5.909-1.042z"/>
<path d="M27.726 23.249l-5.909-1.042-0.556 3.151 5.909 1.042z"/>
</symbol><symbol id="icon--product-hotdeal-square" viewBox="0 0 32 32">
<title>product-hotdeal-square</title>
<path d="M9.333 4h13.333c2.946 0 5.333 2.388 5.333 5.333v13.333c0 2.946-2.388 5.333-5.333 5.333h-13.333c-2.946 0-5.333-2.388-5.333-5.333v-13.333c0-2.946 2.388-5.333 5.333-5.333z"/>
<path fill="#fff" d="M13.265 19.726c0.905-1.476 1.138-2.937 1.138-2.937s0.711 1.032 0.427 2.646c1.256-1.561 1.493-4.048 1.304-5 2.839 2.215 4.053 7.011 2.417 10.566 8.698-5.494 2.163-13.714 1.026-14.64 0.379 0.926 0.451 2.494-0.315 3.254-1.297-5.489-4.503-6.614-4.503-6.614 0.379 2.831-1.375 5.926-3.066 8.239-0.059-1.129-0.122-1.908-0.654-2.988-0.119 2.051-1.523 3.722-1.903 5.777-0.515 2.782 0.386 4.82 3.807 6.972-1.074-2.496-0.502-3.927 0.324-5.274z"/>
</symbol><symbol id="icon--product-hotdeal" viewBox="0 0 32 32">
<title>product-hotdeal</title>
<path d="M12.516 20.968c1.24-1.968 1.56-3.916 1.56-3.916s0.975 1.376 0.585 3.528c1.723-2.081 2.048-5.397 1.788-6.667 3.894 2.954 5.558 9.348 3.315 14.088 11.929-7.325 2.967-18.285 1.407-19.52 0.52 1.235 0.619 3.325-0.432 4.339-1.778-7.319-6.176-8.819-6.176-8.819 0.52 3.774-1.885 7.902-4.204 10.986-0.082-1.505-0.168-2.544-0.897-3.984-0.164 2.734-2.089 4.963-2.61 7.702-0.706 3.71 0.529 6.426 5.221 9.296-1.473-3.328-0.689-5.235 0.444-7.032z"/>
</symbol><symbol id="icon--product-showcase-square" viewBox="0 0 32 32">
<title>product-showcase-square</title>
<path d="M9.333 4h13.333c2.946 0 5.333 2.388 5.333 5.333v13.333c0 2.946-2.388 5.333-5.333 5.333h-13.333c-2.946 0-5.333-2.388-5.333-5.333v-13.333c0-2.946 2.388-5.333 5.333-5.333z"/>
<path fill="#fff" d="M21.677 12.649l0.862-1.391-1.391-0.901 0.157-1.607-1.666-0.215-0.588-1.528-1.567 0.509-1.214-1.117-1.195 1.117-1.587-0.509-0.588 1.528-1.666 0.215 0.157 1.607-1.391 0.901 0.862 1.391-0.862 1.372 1.391 0.901-0.157 1.607 1.666 0.215 0.588 1.508 1.587-0.49 1.195 1.117 1.214-1.117 1.567 0.49 0.588-1.508 1.666-0.215-0.157-1.607 1.391-0.901-0.862-1.372zM17.778 19.017l-0.705 0.666-0.803 0.745-0.803-0.745-0.705-0.666-0.921 0.294-0.94 0.294v5.995l3.311-2.018 3.428 2.018v-5.975l-1.861-0.608z"/>
</symbol><symbol id="icon--product-showcase" viewBox="0 0 32 32">
<title>product-showcase</title>
<path d="M24.171 11.084l1.161-1.873-1.873-1.214 0.211-2.164-2.243-0.29-0.792-2.058-2.111 0.686-1.636-1.504-1.61 1.504-2.137-0.686-0.792 2.058-2.243 0.29 0.211 2.164-1.873 1.214 1.161 1.873-1.161 1.847 1.873 1.214-0.211 2.164 2.243 0.29 0.792 2.032 2.137-0.659 1.61 1.504 1.636-1.504 2.111 0.659 0.792-2.032 2.243-0.29-0.211-2.164 1.873-1.214-1.161-1.847zM18.92 19.66l-0.95 0.897-1.082 1.003-1.082-1.003-0.95-0.897-1.24 0.396-1.266 0.396v8.074l4.459-2.718 4.617 2.718v-8.048l-2.507-0.819z"/>
</symbol><symbol id="icon--product-trusted-outline" viewBox="0 0 32 32">
<title>Product trusted outline</title>
<path d="M8.008 13.349h-4.008v13.014h4.008c0.545 0 0.991-0.446 0.991-1.015v-11.008c0-0.545-0.446-0.991-0.991-0.991v0zM18.003 5.333h-0.991c-0.768 0-1.459 0.42-1.807 1.114l-1.905 3.835-2.892 3.859c-0.274 0.346-0.396 0.768-0.396 1.212v8.015c0 1.090 0.888 1.98 1.98 1.98h1.536l1.584 0.816c0.278 0.127 0.581 0.194 0.888 0.199h4.999c0.667 0 1.286-0.322 1.658-0.888l3.909-5.839 0.84-0.864c0.396-0.372 0.595-0.886 0.595-1.411v-2.004c0.007-1.099-0.878-1.997-1.98-2.004h-6.583l0.569-3.019v-2.997c0.007-1.099-0.878-1.997-1.98-2.004h-0.024zM18.003 7.337v2.995l-0.991 5.023h8.98v2.004l-0.991 0.991-4.008 6.011h-4.994l-2.004-0.991h-2.004v-8.015l3.019-4.008 2.004-4.008h0.991l-0.002-0.002z"/>
</symbol><symbol id="icon--product-trusted" viewBox="0 0 32 32">
<title>verified</title>
<path fill="#000" d="M16 28c-6.617 0-12-5.383-12-12s5.383-12 12-12c6.617 0 12 5.383 12 12s-5.383 12-12 12z"/>
<path fill="#fff" d="M17.336 9.25l-4.036 4.145c-0.218 0.218-0.436 0.545-0.436 0.982v6.655c0 0.764 0.545 1.309 1.309 1.309h5.564c0.545 0 0.982-0.327 1.2-0.764l2.073-4.691c0.109-0.218 0.218-0.545 0.218-0.873v-0.655c0-0.764-0.655-1.418-1.309-1.418h-4.036c0 0 0.982-2.727 0.982-3.164-0.218-1.2-1.527-1.527-1.527-1.527v0z"/>
<path fill="#fff" d="M8.5 13.613h1.419v8.727h-1.419v-8.727z"/>
</symbol><symbol id="icon--product-video-square" viewBox="0 0 32 32">
<title>product-video-square</title>
<path d="M9.333 4h13.333c2.946 0 5.333 2.388 5.333 5.333v13.333c0 2.946-2.388 5.333-5.333 5.333h-13.333c-2.946 0-5.333-2.388-5.333-5.333v-13.333c0-2.946 2.388-5.333 5.333-5.333z"/>
<path fill="#fff" d="M20.393 14.149v-2.053c0-0.788-0.694-1.429-1.544-1.429h-9.471c-0.85 0-1.544 0.641-1.544 1.429v8.475c0 0.788 0.694 1.429 1.544 1.429h9.471c0.85 0 1.544-0.641 1.544-1.429v-2.070l4.441 2.595v-9.527l-4.441 2.579z"/>
</symbol><symbol id="icon--product-video" viewBox="0 0 32 32">
<title>product-video</title>
<path d="M21.731 12.916v-2.899c0-1.113-0.98-2.017-2.18-2.017h-13.371c-1.2 0-2.18 0.904-2.18 2.017v11.965c0 1.113 0.98 2.017 2.18 2.017h13.371c1.2 0 2.18-0.904 2.18-2.017v-2.922l6.269 3.664v-13.449l-6.269 3.641z"/>
</symbol></svg>