<!-- Generated by IcoMoon.io -->
<svg version="1.1" xmlns="http://www.w3.org/2000/svg" width="32" height="32" viewBox="0 0 32 32">
<title>timelapse</title>
<path d="M16 24.563c4.707 0 8.563-3.856 8.563-8.563s-3.856-8.563-8.563-8.563c-4.707 0-8.563 3.856-8.563 8.563s3.856 8.563 8.563 8.563zM16 5.333c5.909 0 10.667 4.758 10.667 10.667s-4.758 10.667-10.667 10.667c-5.909 0-10.667-4.758-10.667-10.667s4.758-10.667 10.667-10.667zM20.507 11.492c2.504 2.504 2.554 6.51 0.050 9.014s-6.56 2.504-9.064 0l4.507-4.507v-6.41c1.653 0 3.255 0.651 4.507 1.903z"></path>
</svg>
