<!-- Generated by IcoMoon.io -->
<svg version="1.1" xmlns="http://www.w3.org/2000/svg" width="32" height="32" viewBox="0 0 32 32">
<title>tips</title>
<path d="M15.942 4.002c-4.399 0.133-8.133 3.733-8.266 8-0.133 2.933 1.2 5.466 3.333 7.066 0.933 0.667 1.466 1.867 1.466 2.933h7.199c0-1.067 0.534-2.133 1.333-2.933 2.133-1.466 3.466-4 3.466-6.666 0-4.666-3.867-8.532-8.532-8.399l0.001-0.001zM12.476 23.201v1.2c0 1.466 0.8 2 1.867 2.266 0.266 0.8 0.933 1.333 1.733 1.333s1.466-0.534 1.733-1.333c1.067-0.266 1.867-0.8 1.867-2.266v-1.2h-7.2z"></path>
</svg>
