<!-- Generated by IcoMoon.io -->
<svg version="1.1" xmlns="http://www.w3.org/2000/svg" width="32" height="32" viewBox="0 0 32 32">
<title>more</title>
<path d="M16 13.333c1.435 0 2.683 1.248 2.683 2.683s-1.247 2.683-2.683 2.683c-1.435 0-2.683-1.247-2.683-2.683s1.248-2.683 2.683-2.683v0zM23.984 13.333c1.435 0 2.683 1.248 2.683 2.683s-1.247 2.683-2.683 2.683c-1.435 0-2.683-1.247-2.683-2.683s1.247-2.683 2.683-2.683zM8.016 13.333c1.435 0 2.683 1.248 2.683 2.683s-1.248 2.683-2.683 2.683c-1.435 0-2.683-1.247-2.683-2.683s1.248-2.683 2.683-2.683z"></path>
</svg>
