<!-- Generated by IcoMoon.io -->
<svg version="1.1" xmlns="http://www.w3.org/2000/svg" width="32" height="32" viewBox="0 0 32 32">
<title>product-hotdeal-square</title>
<path d="M9.333 4h13.333c2.946 0 5.333 2.388 5.333 5.333v13.333c0 2.946-2.388 5.333-5.333 5.333h-13.333c-2.946 0-5.333-2.388-5.333-5.333v-13.333c0-2.946 2.388-5.333 5.333-5.333z"></path>
<path fill="#fff" d="M13.265 19.726c0.905-1.476 1.138-2.937 1.138-2.937s0.711 1.032 0.427 2.646c1.256-1.561 1.493-4.048 1.304-5 2.839 2.215 4.053 7.011 2.417 10.566 8.698-5.494 2.163-13.714 1.026-14.64 0.379 0.926 0.451 2.494-0.315 3.254-1.297-5.489-4.503-6.614-4.503-6.614 0.379 2.831-1.375 5.926-3.066 8.239-0.059-1.129-0.122-1.908-0.654-2.988-0.119 2.051-1.523 3.722-1.903 5.777-0.515 2.782 0.386 4.82 3.807 6.972-1.074-2.496-0.502-3.927 0.324-5.274z"></path>
</svg>
