<!-- Generated by IcoMoon.io -->
<svg version="1.1" xmlns="http://www.w3.org/2000/svg" width="32" height="32" viewBox="0 0 32 32">
<title>product-feature-square</title>
<path fill="#0162dd" d="M9.333 4h13.333c2.946 0 5.333 2.388 5.333 5.333v13.333c0 2.946-2.388 5.333-5.333 5.333h-13.333c-2.946 0-5.333-2.388-5.333-5.333v-13.333c0-2.946 2.388-5.333 5.333-5.333z"></path>
<path fill="#fff" d="M25 16c0 4.971-4.029 9-9 9s-9-4.029-9-9c0-4.971 4.029-9 9-9s9 4.029 9 9z"></path>
<path fill="#0162dd" d="M16 19.292l-3.091 1.708 0.591-3.619-2.5-2.561 3.455-0.528 1.545-3.292 1.545 3.292 3.455 0.528-2.5 2.561 0.591 3.619z"></path>
</svg>
