<!-- Generated by IcoMoon.io -->
<svg version="1.1" xmlns="http://www.w3.org/2000/svg" width="32" height="32" viewBox="0 0 32 32">
<title>product-video-square</title>
<path d="M9.333 4h13.333c2.946 0 5.333 2.388 5.333 5.333v13.333c0 2.946-2.388 5.333-5.333 5.333h-13.333c-2.946 0-5.333-2.388-5.333-5.333v-13.333c0-2.946 2.388-5.333 5.333-5.333z"></path>
<path fill="#fff" d="M20.393 14.149v-2.053c0-0.788-0.694-1.429-1.544-1.429h-9.471c-0.85 0-1.544 0.641-1.544 1.429v8.475c0 0.788 0.694 1.429 1.544 1.429h9.471c0.85 0 1.544-0.641 1.544-1.429v-2.070l4.441 2.595v-9.527l-4.441 2.579z"></path>
</svg>
