<!-- Generated by IcoMoon.io -->
<svg version="1.1" xmlns="http://www.w3.org/2000/svg" width="32" height="32" viewBox="0 0 32 32">
<title>product-combo-square</title>
<path fill="#e35805" d="M9.333 4h13.333c2.946 0 5.333 2.388 5.333 5.333v13.333c0 2.946-2.388 5.333-5.333 5.333h-13.333c-2.946 0-5.333-2.388-5.333-5.333v-13.333c0-2.946 2.388-5.333 5.333-5.333z"></path>
<path fill="#fff" d="M16 9.333c-0.737 0-1.333 0.568-1.333 1.27 0 0.533 0.347 0.982 0.833 1.171l-2.167 5.178-2.979-2.361c0.193-0.221 0.313-0.504 0.313-0.813 0-0.702-0.597-1.27-1.333-1.27s-1.333 0.568-1.333 1.27c0 0.702 0.597 1.27 1.333 1.27 0.091 0 0.185-0.003 0.271-0.020l1.125 5.099h10.542l1.125-5.099c0.086 0.017 0.18 0.020 0.271 0.020 0.737 0 1.333-0.568 1.333-1.27s-0.597-1.27-1.333-1.27c-0.737 0-1.333 0.568-1.333 1.27 0 0.31 0.12 0.593 0.313 0.813l-2.979 2.361-2.167-5.178c0.487-0.189 0.833-0.637 0.833-1.171 0-0.702-0.597-1.27-1.333-1.27h-0.001zM10.667 20.762v1.905h10.666v-1.905h-10.666z"></path>
</svg>
