<!-- Generated by IcoMoon.io -->
<svg version="1.1" xmlns="http://www.w3.org/2000/svg" width="32" height="32" viewBox="0 0 32 32">
<title>product-showcase-square</title>
<path d="M9.333 4h13.333c2.946 0 5.333 2.388 5.333 5.333v13.333c0 2.946-2.388 5.333-5.333 5.333h-13.333c-2.946 0-5.333-2.388-5.333-5.333v-13.333c0-2.946 2.388-5.333 5.333-5.333z"></path>
<path fill="#fff" d="M21.677 12.649l0.862-1.391-1.391-0.901 0.157-1.607-1.666-0.215-0.588-1.528-1.567 0.509-1.214-1.117-1.195 1.117-1.587-0.509-0.588 1.528-1.666 0.215 0.157 1.607-1.391 0.901 0.862 1.391-0.862 1.372 1.391 0.901-0.157 1.607 1.666 0.215 0.588 1.508 1.587-0.49 1.195 1.117 1.214-1.117 1.567 0.49 0.588-1.508 1.666-0.215-0.157-1.607 1.391-0.901-0.862-1.372zM17.778 19.017l-0.705 0.666-0.803 0.745-0.803-0.745-0.705-0.666-0.921 0.294-0.94 0.294v5.995l3.311-2.018 3.428 2.018v-5.975l-1.861-0.608z"></path>
</svg>
