<!-- Generated by IcoMoon.io -->
<svg version="1.1" xmlns="http://www.w3.org/2000/svg" width="32" height="32" viewBox="0 0 32 32">
<title>product-highlight</title>
<path d="M4 16.667c0-0.002 0-0.003 0-0.005v0c0.001-1.429 0.505-2.721 1.422-3.884 1.553-1.97 3.663-3.058 6.046-3.661 2.226-0.563 4.469-0.593 6.721-0.119 0.332 0.070 0.489 0.225 0.6 0.528 0.671 1.834 1.047 3.722 1.17 5.673 0.031 0.49 0.044 0.978 0.041 1.463h0c0 0.002-0 0.003-0 0.005s0 0.003 0 0.005h-0c0.002 0.485-0.010 0.972-0.041 1.463-0.122 1.951-0.499 3.839-1.17 5.673-0.111 0.303-0.268 0.458-0.6 0.528-2.252 0.474-4.495 0.445-6.721-0.119-2.383-0.603-4.493-1.691-6.046-3.661-0.917-1.163-1.421-2.455-1.422-3.884v0c0-0.002 0-0.003 0-0.005z"></path>
<path d="M28 14.667h-6v3.2h6v-3.2z"></path>
<path d="M27.17 6.99l-5.909 1.042 0.556 3.151 5.909-1.042z"></path>
<path d="M27.726 23.249l-5.909-1.042-0.556 3.151 5.909 1.042z"></path>
</svg>
