<!-- Generated by IcoMoon.io -->
<svg version="1.1" xmlns="http://www.w3.org/2000/svg" width="32" height="32" viewBox="0 0 32 32">
<title>product-combo</title>
<path fill="#e35805" d="M15.999 5.333c-1.105 0-2 0.877-2 1.959 0 0.823 0.52 1.515 1.25 1.806l-3.25 7.99-4.469-3.643c0.289-0.341 0.469-0.777 0.469-1.255 0-1.082-0.895-1.959-2-1.959s-2 0.877-2 1.959c0 1.082 0.895 1.959 2 1.959 0.137 0 0.277-0.004 0.406-0.030l1.688 7.867h15.812l1.688-7.867c0.129 0.026 0.27 0.030 0.406 0.030 1.105 0 2-0.877 2-1.959s-0.895-1.959-2-1.959c-1.105 0-2 0.877-2 1.959 0 0.478 0.18 0.915 0.469 1.255l-4.469 3.643-3.25-7.99c0.73-0.291 1.25-0.983 1.25-1.806 0-1.082-0.895-1.959-2-1.959h-0.001zM8 22.966v2.939h15.999v-2.939h-15.999z"></path>
</svg>
