<!-- Generated by IcoMoon.io -->
<svg version="1.1" xmlns="http://www.w3.org/2000/svg" width="32" height="32" viewBox="0 0 32 32">
<title>product-highlight-square</title>
<path d="M9.333 4h13.333c2.946 0 5.333 2.388 5.333 5.333v13.333c0 2.946-2.388 5.333-5.333 5.333h-13.333c-2.946 0-5.333-2.388-5.333-5.333v-13.333c0-2.946 2.388-5.333 5.333-5.333z"></path>
<path fill="#fff" d="M7 16.5c0-0.001 0-0.002 0-0.003v0c0.001-1.072 0.379-2.041 1.066-2.913 1.165-1.478 2.747-2.294 4.535-2.746 1.67-0.422 3.352-0.445 5.041-0.089 0.249 0.052 0.367 0.169 0.45 0.396 0.503 1.376 0.785 2.792 0.877 4.255 0.023 0.368 0.033 0.733 0.031 1.097h0c0 0.001-0 0.002-0 0.003s0 0.002 0 0.003h-0c0.002 0.364-0.008 0.729-0.031 1.097-0.092 1.463-0.374 2.879-0.877 4.255-0.083 0.227-0.201 0.343-0.45 0.396-1.689 0.356-3.371 0.333-5.041-0.089-1.787-0.452-3.37-1.268-4.535-2.746-0.688-0.872-1.065-1.841-1.066-2.913v0c0-0.001 0-0.002 0-0.003z"></path>
<path fill="#fff" d="M25 15h-4.5v2.4h4.5v-2.4z"></path>
<path fill="#fff" d="M24.377 9.243l-4.432 0.781 0.417 2.364 4.432-0.781z"></path>
<path fill="#fff" d="M24.794 21.437l-4.432-0.781-0.417 2.364 4.432 0.781z"></path>
</svg>
