<!-- Generated by IcoMoon.io -->
<svg version="1.1" xmlns="http://www.w3.org/2000/svg" width="32" height="32" viewBox="0 0 32 32">
<title>Product trusted outline</title>
<path d="M8.008 13.349h-4.008v13.014h4.008c0.545 0 0.991-0.446 0.991-1.015v-11.008c0-0.545-0.446-0.991-0.991-0.991v0zM18.003 5.333h-0.991c-0.768 0-1.459 0.42-1.807 1.114l-1.905 3.835-2.892 3.859c-0.274 0.346-0.396 0.768-0.396 1.212v8.015c0 1.090 0.888 1.98 1.98 1.98h1.536l1.584 0.816c0.278 0.127 0.581 0.194 0.888 0.199h4.999c0.667 0 1.286-0.322 1.658-0.888l3.909-5.839 0.84-0.864c0.396-0.372 0.595-0.886 0.595-1.411v-2.004c0.007-1.099-0.878-1.997-1.98-2.004h-6.583l0.569-3.019v-2.997c0.007-1.099-0.878-1.997-1.98-2.004h-0.024zM18.003 7.337v2.995l-0.991 5.023h8.98v2.004l-0.991 0.991-4.008 6.011h-4.994l-2.004-0.991h-2.004v-8.015l3.019-4.008 2.004-4.008h0.991l-0.002-0.002z"></path>
</svg>
