<!-- Generated by IcoMoon.io -->
<svg version="1.1" xmlns="http://www.w3.org/2000/svg" width="32" height="32" viewBox="0 0 32 32">
<title>product-freedown</title>
<path d="M13.324 6c2.138 0 3.98 0.408 5.524 1.224s2.732 2.001 3.562 3.554c0.495 0.926 0.842 1.969 1.040 3.127-0.112-0.010-0.228-0.014-0.348-0.014-0.709 0-1.313 0.157-1.813 0.47s-0.881 0.731-1.144 1.252c-0.225 0.447-0.356 0.932-0.391 1.456l-0.010 0.265v0.792c0.004 0.618 0.134 1.185 0.391 1.703s0.634 0.933 1.131 1.246c0.347 0.219 0.75 0.361 1.209 0.427l-2.182 3.238c-0.44 0.366-0.921 0.689-1.442 0.97-1.54 0.829-3.383 1.244-5.528 1.244-2.145-0.004-3.989-0.421-5.532-1.253s-2.728-2.033-3.557-3.606c-0.829-1.573-1.241-3.465-1.236-5.677 0.005-2.21 0.422-4.092 1.249-5.645s2.013-2.737 3.555-3.551c1.542-0.814 3.382-1.221 5.52-1.221zM13.324 8.619c-1.564 0-2.812 0.652-3.746 1.955s-1.406 3.256-1.416 5.857c-0.005 1.753 0.205 3.217 0.629 4.39s1.025 2.052 1.801 2.636c0.776 0.584 1.686 0.876 2.732 0.876 1.571 0 2.825-0.658 3.763-1.974s1.404-3.292 1.399-5.927c0-1.736-0.213-3.181-0.64-4.338s-1.026-2.024-1.799-2.605c-0.773-0.58-1.681-0.87-2.723-0.87z"></path>
<path d="M23.106 20.011c0.462 0 0.855-0.099 1.177-0.296s0.566-0.461 0.732-0.792c0.166-0.33 0.248-0.695 0.245-1.094v0-0.505c0.002-0.399-0.079-0.765-0.243-1.098s-0.407-0.599-0.728-0.799c-0.32-0.2-0.715-0.3-1.184-0.3-0.453 0-0.838 0.1-1.157 0.3s-0.562 0.466-0.73 0.799c-0.168 0.333-0.253 0.699-0.256 1.098v0 0.505c0.002 0.394 0.086 0.757 0.25 1.087s0.405 0.596 0.722 0.795c0.317 0.2 0.708 0.3 1.172 0.3zM22.695 25.11l6.459-9.583h-1.251l-6.459 9.583h1.251zM23.106 18.682c-0.252 0-0.425-0.090-0.517-0.271s-0.142-0.375-0.147-0.583v0-0.505c0.005-0.2 0.052-0.395 0.143-0.584s0.264-0.284 0.522-0.284c0.276 0 0.459 0.093 0.549 0.278s0.132 0.382 0.127 0.59v0 0.505c0.005 0.208-0.040 0.402-0.134 0.583s-0.274 0.271-0.542 0.271zM27.976 25.51c0.462 0 0.855-0.101 1.177-0.304s0.566-0.47 0.732-0.803c0.166-0.333 0.248-0.696 0.245-1.091v0-0.505c0.003-0.399-0.079-0.765-0.243-1.098s-0.407-0.599-0.728-0.799c-0.32-0.2-0.715-0.3-1.184-0.3-0.457 0-0.845 0.101-1.163 0.304s-0.56 0.47-0.727 0.803c-0.167 0.333-0.251 0.696-0.254 1.091v0 0.505c0.003 0.394 0.086 0.758 0.25 1.091s0.405 0.6 0.722 0.803c0.317 0.202 0.708 0.304 1.172 0.304zM27.976 24.166c-0.259 0-0.436-0.092-0.53-0.277s-0.144-0.377-0.149-0.577v0-0.505c0.005-0.208 0.055-0.404 0.15-0.59s0.271-0.278 0.529-0.278c0.276 0 0.459 0.093 0.549 0.278s0.131 0.382 0.127 0.59v0 0.505c0.005 0.208-0.040 0.402-0.134 0.583s-0.274 0.271-0.542 0.271z"></path>
</svg>
