<!-- Generated by IcoMoon.io -->
<svg version="1.1" xmlns="http://www.w3.org/2000/svg" width="32" height="32" viewBox="0 0 32 32">
<title>product-bump-square</title>
<path fill="#3ad94e" d="M9.333 4h13.333c2.946 0 5.333 2.388 5.333 5.333v13.333c0 2.946-2.388 5.333-5.333 5.333h-13.333c-2.946 0-5.333-2.388-5.333-5.333v-13.333c0-2.946 2.388-5.333 5.333-5.333z"></path>
<path fill="#fff" d="M16 14.25l-3.556 3.5h2.667v5.25h1.778v-5.25h2.667l-3.556-3.5zM22.222 9h-12.444c-0.987 0-1.778 0.787-1.778 1.75v10.5c0 0.966 0.796 1.75 1.778 1.75h3.556v-1.75h-3.556v-8.75h12.444v8.75h-3.556v1.75h3.556c0.982 0 1.778-0.784 1.778-1.75v-10.5c0-0.966-0.796-1.75-1.778-1.75v0z"></path>
</svg>
