<!-- Generated by IcoMoon.io -->
<svg version="1.1" xmlns="http://www.w3.org/2000/svg" width="32" height="32" viewBox="0 0 32 32">
<title>product-showcase</title>
<path d="M24.171 11.084l1.161-1.873-1.873-1.214 0.211-2.164-2.243-0.29-0.792-2.058-2.111 0.686-1.636-1.504-1.61 1.504-2.137-0.686-0.792 2.058-2.243 0.29 0.211 2.164-1.873 1.214 1.161 1.873-1.161 1.847 1.873 1.214-0.211 2.164 2.243 0.29 0.792 2.032 2.137-0.659 1.61 1.504 1.636-1.504 2.111 0.659 0.792-2.032 2.243-0.29-0.211-2.164 1.873-1.214-1.161-1.847zM18.92 19.66l-0.95 0.897-1.082 1.003-1.082-1.003-0.95-0.897-1.24 0.396-1.266 0.396v8.074l4.459-2.718 4.617 2.718v-8.048l-2.507-0.819z"></path>
</svg>
