<!-- Generated by IcoMoon.io -->
<svg version="1.1" xmlns="http://www.w3.org/2000/svg" width="32" height="32" viewBox="0 0 32 32">
<title>camera</title>
<path d="M16 22.692c2.955 0 5.359-2.404 5.359-5.359s-2.404-5.359-5.359-5.359c-2.955 0-5.359 2.404-5.359 5.359s2.404 5.359 5.359 5.359zM12.795 6.667h6.41l1.953 2.103h3.405c1.152 0 2.103 1.002 2.103 2.154v12.82c0 1.152-0.952 2.154-2.103 2.154h-17.127c-1.152 0-2.103-1.002-2.103-2.154v-12.82c0-1.152 0.952-2.154 2.103-2.154h3.405l1.953-2.103zM12.594 17.333c0-1.903 1.502-3.405 3.405-3.405s3.405 1.502 3.405 3.405c0 1.903-1.502 3.405-3.405 3.405s-3.405-1.502-3.405-3.405z"></path>
</svg>
